<?xml version="1.0" encoding="utf-8"?>
<!-- Generator: Adobe Illustrator 23.0.0, SVG Export Plug-In . SVG Version: 6.00 Build 0)  -->
<svg version="1.1" id="Layer_1" xmlns="http://www.w3.org/2000/svg" xmlns:xlink="http://www.w3.org/1999/xlink" x="0px" y="0px"
	 width="32px" height="32px" viewBox="0 0 32 32" style="enable-background:new 0 0 32 32;" xml:space="preserve">
<style type="text/css">
	.st0{fill:#A8C0E4;}
	.st1{fill:#E3E7F2;}
	.st2{fill:#FFFFFF;}
	.st3{fill:#5B84C3;}
</style>
<title>antenna</title>
<path class="st0" d="M24.5,10c0,3.3-1.9,6.3-4.9,7.7L19.3,17c3.9-2.6,4.9-7.9,2.3-11.8c-1.4-2.1-3.7-3.5-6.3-3.7c0.2,0,0.5,0,0.7,0
	C20.7,1.5,24.5,5.3,24.5,10"/>
<path class="st1" d="M13.5,5.1C13.7,5,13.8,5,14,4.9C13.8,5,13.7,5,13.5,5.1"/>
<path class="st1" d="M13.5,5.1C13.7,5,13.8,5,14,4.9C13.8,5,13.7,5,13.5,5.1"/>
<path class="st1" d="M15.3,1.6C10.6,2,7.1,6.1,7.5,10.8c0.2,2.5,1.6,4.8,3.7,6.3c0.4,0.3,0.8,0.5,1.2,0.7l1.3-2.7l1.3-2.7l0.6-1.3
	c0.1-0.3,0.4-0.4,0.7-0.2c0.1,0,0.2,0.1,0.2,0.2l0.6,1.3l1.3,2.7l0.9,2c3.9-2.6,4.9-7.9,2.3-11.8C20.1,3.1,17.8,1.8,15.3,1.6
	 M14,4.9C13.8,5,13.7,5,13.5,5.1C13.7,5,13.8,5,14,4.9"/>
<path class="st2" d="M16.7,4.6L16.7,4.6C16.7,4.6,16.8,4.6,16.7,4.6C16.8,4.6,16.8,4.6,16.7,4.6 M9,10c0-4.4,3.4-8.1,7.7-8.4
	c-0.5,0-1,0-1.5,0C10.6,2,7.1,6.1,7.5,10.8c0.2,2.5,1.6,4.8,3.7,6.3c0.4,0.3,0.8,0.5,1.2,0.7l0.3-0.7C10.4,15.5,9,12.8,9,10"/>
<path class="st2" d="M7,10c0-5,4-9,9-9v1c-4.4,0-8,3.6-8,8H7z"/>
<path class="st3" d="M8,6.4C8,6.5,8,6.5,8,6.4c0.1,0.1,0.1,0.1,0.1,0.1c0,0,0.1,0,0.1,0c0.1,0.1,0.3,0.1,0.4,0C8.9,6.5,9,6.3,8.9,6
	c0-0.1,0-0.1-0.1-0.2C8.7,5.7,8.5,5.6,8.3,5.7C8.2,5.7,8.1,5.8,8,5.9C7.9,6.1,7.9,6.2,8,6.4L8,6.4z"/>
<path class="st3" d="M1.5,31H27c0.3,0,0.5-0.2,0.5-0.5c0-0.3-0.2-0.5-0.5-0.5h-1.2l-5.6-12c4.4-2.3,6-7.8,3.7-12.1s-7.8-6-12.1-3.7
	c-0.8,0.4-1.6,1-2.3,1.7L9.2,4.2C9,4.4,9,4.7,9.2,4.9c0,0,0,0,0,0C9.5,5.1,9.8,5,9.9,4.8l0.3-0.3c3.1-3.2,8.1-3.3,11.3-0.2
	s3.3,8.1,0.2,11.3c-0.6,0.6-1.2,1.1-2,1.5L19,15.2c2.9-1.6,3.9-5.3,2.2-8.2S15.9,3.2,13,4.8s-3.9,5.3-2.2,8.2
	c0.5,0.9,1.3,1.7,2.2,2.2L12.2,17C9.6,15.6,8,12.9,8,10c0-0.3,0-0.6,0.1-0.9c0-0.3,0.1-0.6,0.2-0.9c0.1-0.3-0.1-0.5-0.4-0.6
	C7.6,7.5,7.4,7.6,7.3,7.9c0,0,0,0,0,0C7.2,8.3,7.1,8.6,7.1,9C7,9.3,7,9.7,7,10c0,3.3,1.8,6.4,4.8,7.9L6.2,30H1.5
	C1.3,30,1,30.2,1,30.5C1,30.7,1.3,31,1.5,31 M12.1,24l3.9-1.6l3.9,1.6H12.1z M13.8,15.9l1.3,0.9l-2.6,1.8L13.8,15.9z M14,10
	c0-1.1,0.9-2,2-2c1.1,0,2,0.9,2,2c0,0.6-0.3,1.2-0.7,1.6l-0.4-0.8c-0.2-0.5-0.8-0.7-1.3-0.5c-0.2,0.1-0.4,0.3-0.5,0.5l-0.4,0.8
	C14.3,11.2,14,10.6,14,10 M15.4,12.5L15.4,12.5L15.4,12.5l0.6-1.3l0.6,1.3l0,0l0,0l0.9,2h-3.1L15.4,12.5z M18.9,19.5h-5.9l2.9-2.1
	L18.9,19.5z M15.1,15.5h1.9L16,16.2L15.1,15.5z M18,20.5l-2,0.8l-2-0.8H18z M20.4,20.6l1.4,3.1l-4.5-1.8L20.4,20.6z M19.4,18.6
	l-2.6-1.8l1.3-0.9L19.4,18.6z M11.6,20.6l3,1.2l-4.5,1.8L11.6,20.6z M9.6,25h1c-0.6,0.4-1.1,0.8-1.6,1.2L9.6,25z M22.4,25l0.6,1.2
	c-0.5-0.4-1-0.9-1.6-1.2H22.4z M11,10c0-2.8,2.2-5,5-5c2.8,0,5,2.2,5,5c0,1.8-0.9,3.4-2.5,4.3l-0.8-1.8c1.4-0.9,1.7-2.8,0.8-4.2
	c-0.9-1.4-2.8-1.7-4.2-0.8s-1.7,2.8-0.8,4.2c0.2,0.3,0.5,0.6,0.8,0.8l-0.8,1.8C12,13.4,11,11.8,11,10 M7.8,28.9
	C7.8,28.8,7.9,28.8,7.8,28.9c0.1-0.1,3.2-3.9,5.7-3.9h5c2.5,0,5.6,3.8,5.6,3.8c0,0,0.1,0,0.1,0.1l0.5,1.1H7.3L7.8,28.9z"/>
<path class="st3" d="M30.5,30H29c-0.3,0-0.5,0.2-0.5,0.5c0,0.3,0.2,0.5,0.5,0.5l0,0h1.5c0.3,0,0.5-0.2,0.5-0.5
	C31,30.2,30.7,30,30.5,30"/>
</svg>
