<?xml version="1.0" encoding="utf-8"?>
<!-- Generator: Adobe Illustrator 23.0.0, SVG Export Plug-In . SVG Version: 6.00 Build 0)  -->
<svg version="1.1" id="Layer_1" xmlns="http://www.w3.org/2000/svg" xmlns:xlink="http://www.w3.org/1999/xlink" x="0px" y="0px"
	 width="32px" height="32px" viewBox="0 0 32 32" style="enable-background:new 0 0 32 32;" xml:space="preserve">
<style type="text/css">
	.st0{fill:#CCD8EF;}
	.st1{fill:#E8ECF7;}
	.st2{fill:#88AAD9;}
	.st3{fill:#A8C0E4;}
	.st4{fill:#FFFFFF;}
	.st5{fill:#5B84C3;}
</style>
<title>camera</title>
<path class="st0" d="M28.2,17.8c-0.2,0.6-0.6,1.2-1.1,1.7c-1,1-2.4,1.4-3.8,1.3l0,0l-3.8-2.3l0.5-0.6l3.7-4.4l0.3-0.3l4.2,1.5
	C28.6,15.7,28.6,16.8,28.2,17.8"/>
<path class="st1" d="M26.9,17.8c-0.2,0.6-0.6,1.2-1.1,1.7c-0.7,0.7-1.6,1.1-2.6,1.3l-3.8-2.3l0.5-0.6l3.7-4.4l3.3,1.2
	C27.3,15.7,27.3,16.8,26.9,17.8"/>
<path class="st0" d="M27.1,19.5c-1,1-2.4,1.4-3.8,1.3l-3.8-2.3l0.5-0.6l1.3-0.2C21.3,17.7,25.2,16.8,27.1,19.5"/>
<path class="st1" d="M6.3,21.2v3.5c0,1.1-0.9,2-2,2c0,0,0,0,0,0H1.2v-2h2c0.6,0,1-0.5,1-1v-3.1L6.3,21.2z"/>
<path class="st0" d="M30.2,12.8l-6.1,5.7L22.7,18L2.1,10.3l0.5-1.4l0.4-1l1.2-3.4c0.3-0.9,1.2-1.4,2.1-1.3c0.2,0,0.3,0.1,0.5,0.1
	L30,12c0.3,0.1,0.4,0.4,0.3,0.7C30.3,12.7,30.3,12.7,30.2,12.8"/>
<path class="st1" d="M28.8,12.3l-6,5.6L2.1,10.3l0.5-1.4l0.4-1l1.2-3.4c0.3-0.9,1.2-1.4,2.1-1.3l22.2,8.3c0.3,0.1,0.4,0.4,0.3,0.6
	C28.9,12.2,28.8,12.3,28.8,12.3"/>
<path class="st0" d="M24.1,18.5l-1.1,2.9c-0.2,0.5-0.8,0.8-1.3,0.6c0,0,0,0,0,0l-1-0.4L2.6,14.8c-1.1-0.4-1.6-1.6-1.2-2.6
	c0,0,0,0,0,0l0.7-1.8l0-0.1L24.1,18.5z"/>
<path class="st1" d="M22.6,18l-1.1,2.9c-0.1,0.4-0.5,0.6-0.8,0.7L2.6,14.8c-1.1-0.4-1.6-1.6-1.2-2.6c0,0,0,0,0,0l0.7-1.8L22.6,18z"
	/>
<path class="st2" d="M10.7,17.8l-1.8,2.2c-0.1,0.2-0.4,0.2-0.6,0.2l-5.1-1.9C3.1,18.3,3,18.1,3,17.8L3.1,15l6.3,2.4L10.7,17.8z"/>
<path class="st3" d="M9.4,17.3l-1.7,2.2c-0.1,0.2-0.4,0.2-0.6,0.2l-4-1.5C3,18.1,3,18,3,17.8L3.1,15L9.4,17.3z"/>
<path class="st1" d="M7.7,20c-0.4,1-1.6,1.6-2.6,1.2c-1-0.4-1.5-1.5-1.2-2.6L7.7,20z"/>
<path class="st4" d="M3.3,18.3l2,0.7c0-0.2,0-0.4,0.1-0.5L9,19.9l-4.1-1.5c-0.2-0.1-0.3-0.3-0.3-0.5l0.1-2.3L3.1,15L3,17.8
	C3,18.1,3.1,18.3,3.3,18.3"/>
<path class="st4" d="M1.4,12.2c-0.4,1.1,0.1,2.2,1.2,2.6c0,0,0,0,0,0l2,0.7l0-0.6l6.3,2.4l1.3,0.5l-0.4,0.4l8.8,3.3l1,0.4
	c0.4,0.1,0.7,0.1,1-0.2l-0.5-0.2L4.1,14.8c-1.1-0.4-1.6-1.6-1.2-2.6c0,0,0,0,0,0l0.5-1.4l-1.3-0.5l0,0.1L1.4,12.2z"/>
<path class="st4" d="M2.6,8.8l-0.5,1.4l1.3,0.5l0.1-0.4l0-0.1l0.5-1.4l0.4-1l1.2-3.3C6,4,6.4,3.6,6.9,3.3l-0.1,0
	C6.7,3.3,6.6,3.2,6.4,3.2C5.5,3.1,4.6,3.6,4.3,4.5L3,7.9L2.6,8.8z"/>
<path class="st4" d="M22.1,17.2L3.6,10.3L22.1,17.2z"/>
<path class="st4" d="M5.8,23.6v-3.1l0,0c-0.3-0.4-0.5-0.9-0.5-1.4c0,0,0-0.1,0-0.1l-1.4-0.5c-0.2,0.7-0.1,1.5,0.4,2l0,0v3.1
	c0,0.6-0.5,1-1,1h1.5C5.3,24.6,5.8,24.2,5.8,23.6"/>
<rect x="1.2" y="24.6" class="st4" width="1.5" height="2"/>
<path class="st4" d="M1.6,10.1L2.8,7l0.6-1.6l0.3-0.8c0.1-0.1,0.1-0.2,0.2-0.4C3.9,4.1,4,3.9,4.1,3.8c0.7-0.9,1.8-1.3,2.9-1l0.8,0.3
	l3.3,1.2l6.6,2.5L31,11.8l-0.4,1L17.4,7.8l-6.6-2.5L7.5,4.1L6.7,3.8C6,3.6,5.3,3.8,4.9,4.4C4.8,4.6,4.7,4.8,4.6,5L4.3,5.8L3.7,7.3
	l-1.2,3.1L1.6,10.1z"/>
<path class="st5" d="M3,7.9c-0.3-0.1-0.6,0-0.7,0.3l-0.7,1.9l1,0.4l0.7-1.9C3.4,8.3,3.3,8,3,7.9"/>
<path class="st5" d="M30.6,12.7l0.4-1L17.8,6.8l-6.6-2.5L7.8,3.1L7,2.8c-1.1-0.4-2.3,0-2.9,1C3.9,4,3.8,4.1,3.8,4.3
	C3.7,4.6,3.8,4.9,4.1,5c0.3,0.1,0.6,0,0.7-0.3c0-0.1,0.1-0.2,0.2-0.3C5.3,3.8,6,3.6,6.7,3.8l0.8,0.3l3.3,1.2l6.6,2.5L30.6,12.7z"/>
<path class="st5" d="M3.1,6.3c0,0.1,0,0.3,0,0.4l0,0.1c0,0,0,0.1,0.1,0.1c0,0,0,0,0.1,0.1c0,0,0.1,0,0.1,0c0.1,0,0.3,0,0.4,0
	C4,6.8,4.1,6.5,4,6.2c0-0.1-0.1-0.1-0.1-0.2C3.8,6,3.8,6,3.7,6c-0.1,0-0.3,0-0.4,0C3.2,6,3.1,6.1,3.1,6.3z"/>
<path class="st5" d="M24.1,19c-0.1,0-0.1,0-0.2,0l-22-8.2c-0.3-0.1-0.4-0.4-0.3-0.7C1.7,9.8,2,9.7,2.3,9.8c0,0,0,0,0,0L24,17.9
	l6.5-6c0.2-0.2,0.5-0.2,0.7,0c0.2,0.2,0.2,0.5,0,0.7c0,0,0,0,0,0l-6.7,6.2C24.4,18.9,24.3,19,24.1,19"/>
<path class="st5" d="M22.1,22.5c-0.2,0-0.4,0-0.5-0.1L2.4,15.3c-1.3-0.5-2-2-1.5-3.3l0.7-1.9C1.7,9.8,2,9.7,2.3,9.8c0,0,0,0,0,0
	l22,8.2c0.3,0.1,0.4,0.4,0.3,0.7c0,0,0,0,0,0l-1.1,2.9C23.3,22.1,22.7,22.5,22.1,22.5z M21.9,21.5c0.3,0.1,0.6,0,0.7-0.3l0.9-2.4
	L2.4,10.9l-0.5,1.4c-0.3,0.8,0.1,1.7,0.9,2L21.9,21.5z"/>
<path class="st5" d="M23.9,21.3c-0.2,0-0.5,0-0.7,0c-0.3,0-0.5-0.3-0.4-0.6s0.3-0.5,0.6-0.4c0,0,0,0,0,0c1.9,0.2,3.7-0.8,4.4-2.6
	c0.3-0.9,0.3-1.9,0-2.8c-0.1-0.3,0-0.6,0.3-0.7c0.3-0.1,0.5,0,0.6,0.3c0.9,2.7-0.4,5.6-3.1,6.5C25,21.2,24.5,21.3,23.9,21.3"/>
<path class="st5" d="M22.9,16.4c-0.1,0-0.1,0-0.2,0l-0.5-0.2C22,16,21.9,15.8,22,15.5s0.4-0.4,0.7-0.3c0,0,0,0,0,0l0.5,0.2
	c0.3,0.1,0.4,0.4,0.3,0.7C23.3,16.2,23.1,16.4,22.9,16.4z"/>
<path class="st5" d="M20.5,15.5c-0.1,0-0.1,0-0.2,0L2.6,8.8C2.4,8.7,2.2,8.4,2.3,8.2C2.4,7.9,2.7,7.8,3,7.9l17.7,6.6
	c0.3,0.1,0.4,0.4,0.3,0.7C20.9,15.3,20.7,15.5,20.5,15.5z"/>
<path class="st5" d="M8.7,20.9c-0.1,0-0.1,0-0.2,0l-5.7-2.1c-0.2-0.1-0.3-0.3-0.3-0.5L2.6,15c0-0.3,0.2-0.5,0.5-0.5
	c0.1,0,0.1,0,0.2,0l7.7,2.9c0.3,0.1,0.4,0.4,0.3,0.7c0,0.1,0,0.1-0.1,0.1l-2,2.5C9,20.8,8.9,20.9,8.7,20.9 M3.5,17.9l5.1,1.9
	l1.4-1.7l-6.3-2.4L3.5,17.9z"/>
<path class="st5" d="M5.8,21.8c-1.4,0-2.5-1.1-2.6-2.5c0-0.3,0-0.6,0.1-0.8C3.5,18.1,3.7,18,4,18.1c0.3,0.1,0.4,0.4,0.3,0.6
	c0,0,0,0,0,0c-0.3,0.8,0.2,1.7,1,1.9c0.8,0.3,1.6-0.1,1.9-0.9c0.1-0.3,0.4-0.4,0.7-0.3c0.3,0.1,0.4,0.4,0.3,0.7
	C7.8,21.1,6.8,21.8,5.8,21.8"/>
<path class="st5" d="M4.3,27.2H1.2c-0.3,0-0.5-0.2-0.5-0.5c0,0,0,0,0,0v-2c0-0.3,0.2-0.5,0.5-0.5c0,0,0,0,0,0h2
	c0.3,0,0.5-0.2,0.5-0.5c0,0,0,0,0,0v-3.1C3.7,20.3,4,20,4.2,20c0.3,0,0.5,0.2,0.5,0.5c0,0,0,0,0,0v3.1c0,0.8-0.7,1.5-1.5,1.5H1.7v1
	h2.6c0.8,0,1.5-0.7,1.5-1.5v-3.5c0-0.3,0.2-0.5,0.5-0.5c0.3,0,0.5,0.2,0.5,0.5v3.5C6.8,26.1,5.7,27.2,4.3,27.2"/>
<path class="st5" d="M1.2,29.8c-0.3,0-0.5-0.2-0.5-0.5c0,0,0,0,0,0v-7.2c0-0.3,0.2-0.5,0.5-0.5s0.5,0.2,0.5,0.5v7.2
	C1.7,29.5,1.5,29.8,1.2,29.8"/>
</svg>
