<?xml version="1.0" encoding="utf-8"?>
<!-- Generator: Adobe Illustrator 23.0.0, SVG Export Plug-In . SVG Version: 6.00 Build 0)  -->
<svg version="1.1" id="Layer_1" xmlns="http://www.w3.org/2000/svg" xmlns:xlink="http://www.w3.org/1999/xlink" x="0px" y="0px"
	 width="32px" height="32px" viewBox="0 0 32 32" style="enable-background:new 0 0 32 32;" xml:space="preserve">
<style type="text/css">
	.st0{fill:#A7BFE3;}
	.st1{fill:#E2E5F0;}
	.st2{fill:#FFFFFF;}
	.st3{fill:#5B84C3;}
</style>
<title>chay</title>
<path class="st0" d="M26.3,20.3c-0.1-2.1-0.6-4.1-1.6-5.9c-1.2-1.8-2.6-3.5-4.2-5c-1.8-1.9-3.2-5-0.8-7c0,0-1.5-0.5-1.6-0.5
	c-1-0.3-2.1-0.3-3.2-0.2h0c-0.1,0-0.2,0-0.3,0.1c-3.9,0.9-4.9,4.7-4.1,7.9C9.7,9.5,8.9,9.4,8.1,9.5c-0.2,0-0.3,0-0.5,0.1
	c-0.9,0.1-1.7,0.5-2.4,1.2c-0.2,0.2-0.2,0.5,0,0.7c0.1,0.1,0.2,0.1,0.3,0.2C6,11.7,6.4,11.9,6.9,12c1.2,0.3,2,1.4,1.9,2.6
	c-0.2,0.7-0.6,1.2-1.1,1.7c-1.4,1.5-2.2,3.4-2.2,5.4c0,4.5,4.1,8.2,9.3,8.7c0.4,0,0.8,0.1,1.1,0.1c2.8,0,5.6-1,7.7-2.9
	c1.6-1.5,2.6-3.6,2.7-5.8C26.3,21.3,26.3,20.8,26.3,20.3"/>
<path class="st1" d="M24,20.3c-0.1-2.1-0.6-4.1-1.6-5.9c-1.2-1.8-2.6-3.5-4.2-5c-1.8-1.9-3.2-5-0.8-7c0,0-1.5-0.5-1.6-0.5
	c-0.3-0.1-0.6-0.1-0.9-0.2h0c-0.1,0-0.2,0-0.3,0.1c-3.9,0.9-4.9,4.7-4.1,7.9C9.7,9.5,8.9,9.4,8.1,9.5c0,0.1,0,0.1,0,0.2
	C8,9.6,7.8,9.6,7.6,9.6c-0.9,0.1-1.7,0.5-2.4,1.2c-0.2,0.2-0.2,0.5,0,0.7c0.1,0.1,0.2,0.1,0.3,0.2C6,11.7,6.4,11.9,6.9,12
	c1.2,0.3,2,1.4,1.9,2.6c-0.2,0.7-0.6,1.2-1.1,1.7c-1.4,1.5-2.2,3.4-2.2,5.4c0,4.5,4.1,8.2,9.3,8.7c2.4-0.2,4.7-1.2,6.6-2.8
	C23,26.1,24,24,24,21.8C24.1,21.3,24.1,20.8,24,20.3"/>
<path class="st1" d="M19.7,29.9c-1.2,0.4-2.5,0.6-3.8,0.6c-0.4,0-0.8,0-1.3-0.1v0c-2.4-1-4.9-2.9-5-5.3c0-1.3,0.6-2.5,1.7-3.2
	c0.8-0.6,1.7-1.1,2.5-1.7c0.7-0.5,1.3-1.3,1.5-2.2c0.2-1,0.2-2,0.1-3c0,0.1,0.4,0.2,0.4,0.3c1.3,0.8,2.2,2,2.6,3.5
	c0.1,0.3,0.1,0.5,0.1,0.8c0,0,0,0,0,0c0,1.4-0.6,2.7-1.4,3.8c0,0.1,0.7,0.3,0.7,0.3c0.8,0.2,1.7,0.1,2.5-0.3
	c0.3-0.1,0.5-0.3,0.6-0.6c0.1-0.2,0.2-0.5,0.3-0.8c0,0,0.3,0.3,0.3,0.4c0.1,0.2,0.3,0.4,0.4,0.6c0.2,0.4,0.3,0.7,0.4,1.1
	C23.1,26.5,21.8,28.5,19.7,29.9"/>
<path class="st2" d="M16.8,1.8c0.1,0,0.2-0.1,0.3-0.1c-0.7-0.1-1.5-0.1-2.3,0h0c-0.1,0-0.2,0-0.3,0.1c-3.8,0.9-4.8,4.6-4.1,7.7
	c0.8-0.1,1.6,0,2.3,0.2C11.9,6.5,12.9,2.7,16.8,1.8"/>
<path class="st2" d="M5.3,10.7c-0.2,0.2-0.2,0.5,0,0.7c0.1,0.1,0.2,0.1,0.3,0.2C6,11.7,6.4,11.9,6.9,12C8,12.5,9,13.5,8.8,14.6
	c-0.2,0.7-0.6,1.2-1.1,1.7c-1.4,1.5-2.2,3.4-2.2,5.4c0,4.5,4,8.2,9.2,8.7v0c0,0,0.1,0,0.1,0h0c0.4,0,0.8,0.1,1.1,0.1
	c0.3,0,0.7,0,1,0c0,0,0.1,0,0.1,0c0,0-0.1,0-0.1,0v0c-5.2-0.5-9.2-4.2-9.2-8.7c0-2,0.8-3.9,2.2-5.4c0.5-0.4,0.9-1,1.1-1.7
	c0-1.2-0.8-2.3-1.9-2.6c-0.4-0.2-0.9-0.3-1.4-0.4c-0.3-0.1-0.5-0.3-0.4-0.6c0-0.1,0.1-0.2,0.2-0.3c0.7-0.6,1.5-1,2.4-1.2
	C9.3,9.5,8.7,9.5,8.1,9.5c-0.2,0-0.3,0-0.5,0.1C6.7,9.7,5.9,10.1,5.3,10.7"/>
<path class="st3" d="M4.7,10.2c-0.3,0.3-0.5,0.8-0.4,1.2c0.1,0.5,0.5,0.8,1,0.9c0.5,0.1,1.1,0.3,1.2,0.4c0.8,0.4,1.6,1,1.5,1.8
	c-0.2,0.5-0.5,0.9-0.9,1.2l-0.1,0.1c-0.6,0.6-1.1,1.3-1.5,2.1c-0.6,1.2-0.9,2.5-0.9,3.8c0,5.2,5,9.5,11.2,9.5c1.3,0,2.6-0.2,3.9-0.6
	c0,0,0.1,0,0.1,0c1.6-0.5,3-1.3,4.2-2.4c1.8-1.6,2.8-3.9,2.9-6.3c0-0.5,0-1,0-1.5c-0.1-2.2-0.7-4.3-1.7-6.3
	c-1.2-1.9-2.7-3.6-4.3-5.1c-1.1-1-1.8-2.5-1.9-4c0-0.8,0.4-1.5,1-1.9c0.3-0.3,0.4-0.7,0.1-1.1c-0.1-0.1-0.3-0.2-0.4-0.3
	c-0.1,0-0.5-0.2-0.9-0.3c-0.3-0.1-0.6-0.2-0.7-0.2c-1.3-0.3-2.6-0.4-3.9-0.1c-1.6,0.4-3.1,1.4-3.9,2.8C9.6,5.3,9.2,7.1,9.5,8.8
	C7.8,8.5,6,9,4.7,10.2 M14.9,29.7c-1.1-0.5-4.4-2.1-4.5-4.6c0-1,0.5-2,1.4-2.6c0.4-0.3,0.8-0.5,1.1-0.8c0.5-0.3,0.9-0.6,1.3-0.9
	c0.9-0.6,1.5-1.6,1.8-2.6c0.1-0.5,0.2-1.1,0.2-1.7c0.7,0.7,1.2,1.5,1.5,2.5c0.1,0.2,0.1,0.5,0.1,0.7c-0.1,1.2-0.5,2.4-1.3,3.3
	c-0.1,0.2-0.2,0.5-0.1,0.7c0,0.1,0.2,0.5,1.2,0.8c0.3,0.1,0.7,0.1,1,0.1c0.7,0,1.4-0.2,2-0.5c0.2-0.1,0.5-0.3,0.7-0.5
	c0.1,0.3,0.2,0.5,0.3,0.8c0.3,1.9-0.6,3.9-2.3,4.8c-1.1,0.4-2.3,0.5-3.5,0.5C15.6,29.7,15.2,29.7,14.9,29.7 M10.3,10.4
	c0.4,0.1,0.8-0.2,0.9-0.6c0-0.1,0-0.2,0-0.3c-0.5-1.6-0.3-3.4,0.5-4.8c0.7-1.1,1.7-1.8,3-2.1c1.1-0.2,2.1-0.2,3.2,0.1
	c0.1,0,0.2,0.1,0.4,0.2c-0.4,0.6-0.7,1.3-0.7,2.1c0.1,2,0.9,3.8,2.3,5.1c1.5,1.4,2.9,3,4.1,4.8c0.9,1.7,1.5,3.6,1.5,5.6
	c0,0.4,0,0.9,0,1.4c-0.1,2-0.9,3.9-2.4,5.3c0,0-0.1,0-0.1,0.1c0.4-1,0.5-2.1,0.2-3.1c-0.1-0.4-0.3-0.9-0.5-1.3
	c-0.1-0.2-0.3-0.5-0.4-0.7c0,0-0.1-0.1-0.2-0.2c-0.1-0.1-0.1-0.1-0.1-0.2c-0.2-0.3-0.7-0.4-1.1-0.2c-0.1,0.1-0.2,0.2-0.3,0.3
	c0,0.1-0.1,0.2-0.1,0.3c0,0.1-0.1,0.2-0.1,0.3c-0.1,0.1-0.2,0.3-0.4,0.3c-0.5,0.3-1.1,0.4-1.7,0.3c0.7-1,1.1-2.2,1.1-3.5
	c0-0.3-0.1-0.6-0.2-0.9c-0.4-1.6-1.5-3-2.9-3.9c0,0-0.1,0-0.1-0.1c0,0-0.1,0-0.1-0.1c-0.1-0.2-0.3-0.2-0.5-0.2
	c-0.4,0-0.8,0.3-0.8,0.7c0,0,0,0,0,0c0,0.3,0,0.6,0,0.9c0,0.6,0,1.3-0.1,1.9c-0.2,0.7-0.7,1.3-1.3,1.8c-0.4,0.3-0.8,0.6-1.2,0.8
	c-0.5,0.3-0.9,0.6-1.3,0.9c-1.2,0.9-1.9,2.3-1.9,3.8c0,1.1,0.5,2.2,1.2,3c-2.4-1.3-3.8-3.7-3.9-6.4c0-1.1,0.3-2.2,0.8-3.1
	c0.3-0.6,0.7-1.2,1.2-1.7l0.1-0.1c0.6-0.5,1.1-1.2,1.3-2c0.1-1.6-0.9-3-2.4-3.5c-0.1-0.1-0.6-0.2-1.1-0.3C7.4,10.2,8.9,10,10.3,10.4
	"/>
</svg>
