<?xml version="1.0" encoding="utf-8"?>
<!-- Generator: Adobe Illustrator 23.0.0, SVG Export Plug-In . SVG Version: 6.00 Build 0)  -->
<svg version="1.1" id="Layer_1" xmlns="http://www.w3.org/2000/svg" xmlns:xlink="http://www.w3.org/1999/xlink" x="0px" y="0px"
	 width="32px" height="32px" viewBox="0 0 32 32" style="enable-background:new 0 0 32 32;" xml:space="preserve">
<style type="text/css">
	.st0{fill:#E2E5F0;}
	.st1{fill:#D3DFF2;}
	.st2{fill:#FFFFFF;}
	.st3{fill:#5B84C3;}
</style>
<title>chuyendong</title>
<path class="st0" d="M30.7,9.1c0,0.6-0.5,1-1,1c-0.6,0-1-0.5-1-1c0-0.6,0.5-1,1-1l0,0C30.3,8.1,30.7,8.5,30.7,9.1
	C30.7,9.1,30.7,9.1,30.7,9.1"/>
<path class="st0" d="M26.1,9.1c0,0.6-0.5,1-1,1c-0.6,0-1-0.5-1-1c0-0.6,0.5-1,1-1l0,0C25.7,8.1,26.1,8.5,26.1,9.1
	C26.1,9.1,26.1,9.1,26.1,9.1"/>
<path class="st0" d="M3.3,9.1c0,0.6-0.5,1-1,1s-1-0.5-1-1c0-0.6,0.5-1,1-1C2.8,8.1,3.3,8.5,3.3,9.1C3.3,9.1,3.3,9.1,3.3,9.1"/>
<path class="st0" d="M7.9,9.1c0,0.6-0.5,1-1,1s-1-0.5-1-1c0-0.6,0.5-1,1-1C7.4,8.1,7.9,8.5,7.9,9.1C7.9,9.1,7.9,9.1,7.9,9.1"/>
<path class="st0" d="M20.6,29.9c0,0.6-0.5,1-1,1c-0.6,0-1-0.5-1-1c0-0.6,0.5-1,1-1c0,0,0,0,0,0C20.1,28.9,20.6,29.4,20.6,29.9
	C20.6,29.9,20.6,29.9,20.6,29.9"/>
<path class="st0" d="M20.6,25.4c0,0.6-0.5,1-1,1c-0.6,0-1-0.5-1-1c0-0.6,0.5-1,1-1c0,0,0,0,0,0C20.1,24.3,20.6,24.8,20.6,25.4
	C20.6,25.4,20.6,25.4,20.6,25.4"/>
<path class="st0" d="M13.4,29.9c0,0.6-0.5,1-1,1c-0.6,0-1-0.5-1-1c0-0.6,0.5-1,1-1C13,28.9,13.4,29.4,13.4,29.9
	C13.4,29.9,13.4,29.9,13.4,29.9"/>
<path class="st0" d="M13.4,25.4c0,0.6-0.5,1-1,1c-0.6,0-1-0.5-1-1c0-0.6,0.5-1,1-1c0,0,0,0,0,0C13,24.3,13.4,24.8,13.4,25.4
	C13.4,25.4,13.4,25.4,13.4,25.4"/>
<path class="st1" d="M18.5,4c0,1.4-1.1,2.5-2.5,2.5c0,0,0,0,0,0c-0.3,0-0.5,0-0.8-0.1c-1.3-0.4-2.1-1.9-1.7-3.2
	c0.2-0.8,0.9-1.4,1.7-1.7c0.2-0.1,0.5-0.1,0.8-0.1C17.4,1.5,18.5,2.6,18.5,4"/>
<path class="st0" d="M17,4c0-1.3-0.8-2.4-1.8-2.4S13.4,2.7,13.4,4s0.8,2.4,1.8,2.4S17,5.4,17,4"/>
<path class="st0" d="M13.4,20.8c0,0.6-0.5,1-1,1c-0.6,0-1-0.5-1-1c0-0.6,0.5-1,1-1c0,0,0,0,0,0C13,19.8,13.4,20.2,13.4,20.8
	C13.4,20.8,13.4,20.8,13.4,20.8"/>
<path class="st0" d="M20.6,20.8c0,0.6-0.5,1-1,1c-0.6,0-1-0.5-1-1c0-0.6,0.5-1,1-1c0,0,0,0,0,0C20.1,19.8,20.6,20.2,20.6,20.8
	C20.6,20.8,20.6,20.8,20.6,20.8"/>
<path class="st0" d="M13.4,9.1c0,0.6-0.5,1-1,1c-0.6,0-1-0.5-1-1c0-0.6,0.5-1,1-1C13,8.1,13.4,8.5,13.4,9.1
	C13.4,9.1,13.4,9.1,13.4,9.1"/>
<path class="st0" d="M20.6,9.1c0,0.6-0.5,1-1,1s-1-0.5-1-1c0-0.6,0.5-1,1-1l0,0C20.1,8.1,20.6,8.5,20.6,9.1
	C20.6,9.1,20.6,9.1,20.6,9.1"/>
<path class="st0" d="M17,16.7c0,0.6-0.5,1-1,1c-0.6,0-1-0.5-1-1c0-0.6,0.5-1,1-1c0,0,0,0,0,0C16.5,15.7,17,16.2,17,16.7
	C17,16.7,17,16.7,17,16.7"/>
<path class="st0" d="M17,12.1c0,0.6-0.5,1-1,1c-0.6,0-1-0.5-1-1s0.5-1,1-1l0,0C16.5,11.1,17,11.6,17,12.1C17,12.1,17,12.1,17,12.1"
	/>
<path class="st2" d="M2.3,10.1c0.3,0,0.6-0.1,0.8-0.4c-0.3-0.4-0.3-1,0-1.3C2.7,8,2,8,1.6,8.3s-0.5,1-0.1,1.4
	C1.7,10,2,10.1,2.3,10.1"/>
<path class="st2" d="M6.8,10.1c0.3,0,0.6-0.1,0.8-0.4c-0.3-0.4-0.3-1,0-1.3C7.2,8,6.6,8,6.2,8.3c-0.4,0.4-0.5,1-0.1,1.4
	C6.3,10,6.5,10.1,6.8,10.1"/>
<path class="st2" d="M16,2c-1.1,0-2,0.9-2,2c0,1.1,0.9,2,2,2c0,0,0,0,0,0v1c-1.7,0-3-1.4-3-3.1c0-1.7,1.4-3,3-3V2z"/>
<path class="st3" d="M29.7,7.6c-0.6,0-1.2,0.4-1.4,1h-1.7c-0.3-0.8-1.1-1.2-1.9-0.9c-0.4,0.2-0.8,0.5-0.9,0.9H21
	c-0.3-0.8-1.1-1.2-1.9-0.9c-0.4,0.2-0.8,0.5-0.9,0.9h-1.6V7c1.7-0.3,2.8-1.8,2.5-3.5c-0.3-1.7-1.8-2.8-3.5-2.5
	c-0.6,0.1-1.2,0.4-1.7,0.9c-0.2,0.2-0.2,0.5,0,0.7c0,0,0.1,0.1,0.1,0.1c0.2,0.1,0.5,0.1,0.7,0c0.8-0.8,2.1-0.8,2.9,0
	c0.8,0.8,0.8,2.1,0,2.9c-0.7,0.7-1.7,0.8-2.5,0.3c-0.1-0.1-0.2-0.1-0.3-0.2c-0.2-0.1-0.5-0.1-0.7,0c-0.2,0.2-0.2,0.5-0.1,0.7
	c0,0,0.1,0.1,0.1,0.1c0.1,0.1,0.3,0.3,0.5,0.4C14.7,6.8,15.1,7,15.5,7v1.6h-1.6c-0.3-0.8-1.1-1.2-1.9-0.9c-0.4,0.2-0.8,0.5-0.9,0.9
	H8.3C8,7.8,7.1,7.4,6.3,7.7C5.9,7.8,5.6,8.2,5.4,8.6H3.7C3.4,7.8,2.5,7.4,1.7,7.7C0.9,7.9,0.5,8.8,0.8,9.6s1.2,1.2,1.9,0.9
	c0.4-0.2,0.8-0.5,0.9-0.9h1.7c0.3,0.8,1.1,1.2,1.9,0.9c0.4-0.2,0.8-0.5,0.9-0.9H11c0.3,0.8,1.1,1.2,1.9,0.9c0.4-0.2,0.8-0.5,0.9-0.9
	h1.6v1.1c-0.8,0.3-1.2,1.1-0.9,1.9c0.2,0.4,0.5,0.8,0.9,0.9v1.7c-0.6,0.2-1,0.8-1,1.4c0,0.3,0.1,0.5,0.2,0.7L13,19.4
	c-0.2-0.1-0.4-0.1-0.6-0.1c-0.8,0-1.5,0.7-1.5,1.5c0,0.6,0.4,1.2,1,1.4v1.7c-0.8,0.3-1.2,1.1-0.9,1.9c0.2,0.4,0.5,0.8,0.9,0.9v1.7
	c-0.8,0.3-1.2,1.2-0.9,1.9c0.3,0.8,1.2,1.2,1.9,0.9s1.2-1.2,0.9-1.9c-0.2-0.4-0.5-0.8-0.9-0.9v-1.7c0.8-0.3,1.2-1.1,0.9-1.9
	c-0.2-0.4-0.5-0.8-0.9-0.9v-1.7c0.6-0.2,1-0.8,1-1.4c0-0.3-0.1-0.5-0.2-0.7l1.7-1.9c0.4,0.1,0.8,0.1,1.1,0l1.7,1.9
	c-0.1,0.2-0.2,0.5-0.2,0.7c0,0.6,0.4,1.2,1,1.4v1.7c-0.8,0.3-1.2,1.1-0.9,1.9c0.2,0.4,0.5,0.8,0.9,0.9v1.7c-0.8,0.3-1.2,1.2-0.9,1.9
	c0.3,0.8,1.2,1.2,1.9,0.9c0.8-0.3,1.2-1.2,0.9-1.9c-0.2-0.4-0.5-0.8-0.9-0.9v-1.7c0.8-0.3,1.2-1.1,0.9-1.9c-0.2-0.4-0.5-0.8-0.9-0.9
	v-1.7c0.8-0.3,1.2-1.1,1-1.9c-0.3-0.8-1.1-1.2-1.9-1c0,0-0.1,0-0.1,0l-1.7-1.9c0.1-0.2,0.2-0.5,0.2-0.7c0-0.6-0.4-1.2-1-1.4v-1.7
	c0.8-0.3,1.2-1.1,0.9-1.9c-0.2-0.4-0.5-0.8-0.9-0.9V9.6h1.6c0.3,0.8,1.1,1.2,1.9,0.9c0.4-0.2,0.8-0.5,0.9-0.9h2.7
	c0.3,0.8,1.1,1.2,1.9,0.9c0.4-0.2,0.8-0.5,0.9-0.9h1.7c0.3,0.8,1.2,1.2,1.9,0.9c0.8-0.3,1.2-1.2,0.9-1.9C30.9,8,30.4,7.6,29.7,7.6
	 M2.3,9.6C2,9.6,1.8,9.4,1.8,9.1c0-0.3,0.2-0.5,0.5-0.5s0.5,0.2,0.5,0.5l0,0C2.8,9.4,2.5,9.6,2.3,9.6C2.3,9.6,2.3,9.6,2.3,9.6
	 M6.8,9.6c-0.3,0-0.5-0.2-0.5-0.5s0.2-0.5,0.5-0.5s0.5,0.2,0.5,0.5C7.3,9.4,7.1,9.6,6.8,9.6 M12.4,9.6c-0.3,0-0.5-0.2-0.5-0.5
	c0-0.3,0.2-0.5,0.5-0.5c0.3,0,0.5,0.2,0.5,0.5c0,0,0,0,0,0C12.9,9.4,12.7,9.6,12.4,9.6 M12.4,30.4c-0.3,0-0.5-0.2-0.5-0.5
	c0-0.3,0.2-0.5,0.5-0.5c0.3,0,0.5,0.2,0.5,0.5c0,0,0,0,0,0C12.9,30.2,12.7,30.4,12.4,30.4 M12.4,25.9c-0.3,0-0.5-0.2-0.5-0.5
	c0-0.3,0.2-0.5,0.5-0.5c0.3,0,0.5,0.2,0.5,0.5c0,0,0,0,0,0C12.9,25.6,12.7,25.9,12.4,25.9 M12.4,21.3c-0.3,0-0.5-0.2-0.5-0.5
	c0-0.3,0.2-0.5,0.5-0.5c0.3,0,0.5,0.2,0.5,0.5c0,0,0,0,0,0C12.9,21.1,12.7,21.3,12.4,21.3 M15.5,16.7c0-0.3,0.2-0.5,0.5-0.5
	s0.5,0.2,0.5,0.5s-0.2,0.5-0.5,0.5h0C15.7,17.2,15.5,17,15.5,16.7 M19.5,30.4c-0.3,0-0.5-0.2-0.5-0.5c0-0.3,0.2-0.5,0.5-0.5
	c0.3,0,0.5,0.2,0.5,0.5l0,0C20.1,30.2,19.8,30.4,19.5,30.4 M19.5,25.9c-0.3,0-0.5-0.2-0.5-0.5s0.2-0.5,0.5-0.5
	c0.3,0,0.5,0.2,0.5,0.5l0,0C20.1,25.6,19.8,25.9,19.5,25.9 M20.1,20.8c0,0.3-0.2,0.5-0.5,0.5S19,21.1,19,20.8s0.2-0.5,0.5-0.5l0,0
	C19.8,20.3,20.1,20.5,20.1,20.8 M16,12.7c-0.3,0-0.5-0.2-0.5-0.5s0.2-0.5,0.5-0.5c0.3,0,0.5,0.2,0.5,0.5v0
	C16.5,12.4,16.3,12.7,16,12.7 M19.5,9.6c-0.3,0-0.5-0.2-0.5-0.5s0.2-0.5,0.5-0.5c0.3,0,0.5,0.2,0.5,0.5v0
	C20.1,9.4,19.8,9.6,19.5,9.6 M25.1,9.6c-0.3,0-0.5-0.2-0.5-0.5c0-0.3,0.2-0.5,0.5-0.5c0.3,0,0.5,0.2,0.5,0.5v0
	C25.6,9.4,25.4,9.6,25.1,9.6 M29.7,9.6c-0.3,0-0.5-0.2-0.5-0.5c0-0.3,0.2-0.5,0.5-0.5c0.3,0,0.5,0.2,0.5,0.5v0
	C30.2,9.4,30,9.6,29.7,9.6"/>
<path class="st3" d="M13.5,4.6c0.1,0,0.2-0.1,0.3-0.2C13.9,4.3,14,4.2,14,4.1c0-0.1-0.1-0.2-0.1-0.3l-0.1-0.1c0,0-0.1,0-0.1-0.1
	c0,0-0.1,0-0.1,0c0,0-0.1,0-0.1,0c-0.1,0-0.3,0-0.4,0.1C13,3.7,13,3.8,13,3.9c-0.1,0.2,0,0.5,0.1,0.6c0.1,0,0.1,0.1,0.2,0.1
	C13.4,4.6,13.4,4.6,13.5,4.6"/>
<path class="st3" d="M4.4,18.1c-0.2,0.2-0.2,0.5,0,0.7c1.7,1.5,1.8,4.1,0.3,5.7c-0.1,0.1-0.2,0.2-0.3,0.3c-0.2,0.2-0.2,0.5-0.1,0.7
	c0.2,0.2,0.5,0.2,0.7,0.1c0,0,0,0,0,0c2.1-1.9,2.3-5.1,0.4-7.2c-0.1-0.1-0.2-0.3-0.4-0.4C4.9,17.8,4.6,17.9,4.4,18.1"/>
<path class="st3" d="M5.8,16.6c-0.2,0.2-0.2,0.5,0,0.7c2.5,2.3,2.7,6.1,0.5,8.6C6.1,26,6,26.2,5.8,26.3c-0.2,0.2-0.3,0.5-0.1,0.7
	s0.5,0.3,0.7,0.1c0,0,0,0,0,0C9.4,24.5,9.7,20,7,17c-0.2-0.2-0.3-0.4-0.5-0.5C6.3,16.3,6,16.3,5.8,16.6C5.8,16.6,5.8,16.6,5.8,16.6"
	/>
<path class="st3" d="M3.1,24c0.2,0.2,0.5,0.2,0.7,0c0,0,0,0,0,0C5,22.9,5.1,21,4,19.8c-0.1-0.1-0.1-0.2-0.2-0.2
	c-0.2-0.2-0.5-0.2-0.7,0s-0.2,0.5,0,0.7l0,0c0.8,0.7,0.9,2,0.2,2.9c0,0.1-0.1,0.1-0.2,0.2C2.9,23.5,2.9,23.8,3.1,24
	C3.1,24,3.1,24,3.1,24"/>
<path class="st3" d="M26.8,18c-2.1,1.9-2.3,5.1-0.4,7.2c0.1,0.1,0.2,0.3,0.4,0.4c0.2,0.2,0.5,0.2,0.7,0c0.2-0.2,0.2-0.5,0-0.7
	c0,0,0,0,0,0c-1.7-1.5-1.8-4.1-0.3-5.7c0.1-0.1,0.2-0.2,0.3-0.3c0.2-0.2,0.2-0.5,0-0.7C27.3,17.9,27,17.8,26.8,18"/>
<path class="st3" d="M25.5,16.5c-2.9,2.6-3.2,7.1-0.5,10c0.2,0.2,0.3,0.4,0.5,0.5c0.2,0.2,0.5,0.2,0.7-0.1c0.2-0.2,0.2-0.5,0-0.7
	c-2.5-2.3-2.7-6.1-0.5-8.6c0.1-0.2,0.3-0.3,0.5-0.5c0.2-0.2,0.2-0.5,0-0.7C26,16.4,25.7,16.3,25.5,16.5"/>
<path class="st3" d="M28.9,19.6c-0.2-0.2-0.5-0.2-0.7,0c-1.3,1.1-1.4,3.1-0.2,4.3c0.1,0.1,0.2,0.2,0.2,0.2c0.2,0.2,0.5,0.2,0.7,0
	c0.2-0.2,0.2-0.5,0-0.7l0,0c-0.8-0.7-0.9-2-0.2-2.9c0-0.1,0.1-0.1,0.2-0.2C29.1,20.1,29.1,19.8,28.9,19.6
	C28.9,19.6,28.9,19.6,28.9,19.6"/>
</svg>
