<?xml version="1.0" encoding="utf-8"?>
<!-- Generator: Adobe Illustrator 23.0.0, SVG Export Plug-In . SVG Version: 6.00 Build 0)  -->
<svg version="1.1" id="Layer_1" xmlns="http://www.w3.org/2000/svg" xmlns:xlink="http://www.w3.org/1999/xlink" x="0px" y="0px"
	 width="32px" height="32px" viewBox="0 0 32 32" style="enable-background:new 0 0 32 32;" xml:space="preserve">
<style type="text/css">
	.st0{fill:#E3E7F2;}
	.st1{fill:#A8C0E4;}
	.st2{fill:#D4E1F3;}
	.st3{fill:#89A9D9;}
	.st4{fill:#FFFFFF;}
	.st5{fill:#5B84C3;}
</style>
<title>coi</title>
<path class="st0" d="M23.2,18.4v7.1H9v-7.1c0-3.6,2.7-6.7,6.3-7.1c0.3,0,0.5,0,0.8,0C20,11.3,23.2,14.5,23.2,18.4
	C23.2,18.4,23.2,18.4,23.2,18.4"/>
<path class="st0" d="M21.7,18.4v7.1H9v-7.1c0-3.6,2.7-6.7,6.3-7.1C19,11.7,21.7,14.8,21.7,18.4"/>
<polygon class="st1" points="25.3,28.5 7,28.5 9,25.5 23.2,25.5 "/>
<polygon class="st2" points="23.7,28.5 7,28.5 9,25.5 21.7,25.5 "/>
<path class="st0" d="M17.1,22.4c0,0.6-0.5,1-1,1c-0.6,0-1-0.5-1-1c0-0.6,0.5-1,1-1C16.7,21.4,17.1,21.9,17.1,22.4
	C17.1,22.4,17.1,22.4,17.1,22.4"/>
<path class="st0" d="M16.5,13.8h-0.8c-0.6,0-1,0.5-1,1c0,0,0,0.1,0,0.1l0.3,3.5c0,0.5,0.5,0.9,1,0.9h0.2c0.5,0,1-0.4,1-0.9l0.3-3.5
	C17.6,14.4,17.2,13.9,16.5,13.8C16.6,13.8,16.6,13.8,16.5,13.8"/>
<path class="st3" d="M6,28.5h20.3c0.3,0,0.5,0.2,0.5,0.5v1c0,0.3-0.2,0.5-0.5,0.5H6c-0.3,0-0.5-0.2-0.5-0.5v-1
	C5.5,28.8,5.7,28.5,6,28.5"/>
<path class="st1" d="M6,28.5h18.8c0.3,0,0.5,0.2,0.5,0.5v1c0,0.3-0.2,0.5-0.5,0.5H6c-0.3,0-0.5-0.2-0.5-0.5v-1
	C5.5,28.8,5.7,28.5,6,28.5"/>
<path class="st4" d="M15.4,11.3C11.7,11.7,9,14.8,9,18.4v7.1l-2,3H6c-0.3,0-0.5,0.2-0.5,0.5v1c0,0.3,0.2,0.5,0.5,0.5h1.5
	c-0.3,0-0.5-0.2-0.5-0.5v-1c0-0.3,0.2-0.5,0.5-0.5h1l2-3v-7.1c0-3.6,2.7-6.7,6.3-7.1c-0.3,0-0.5,0-0.8,0
	C15.9,11.3,15.6,11.3,15.4,11.3"/>
<path class="st5" d="M25.3,29H7c-0.3,0-0.5-0.2-0.5-0.5c0-0.1,0-0.2,0.1-0.3l2-3C8.7,25.1,8.8,25,9,25h14.2c0.2,0,0.3,0.1,0.4,0.2
	l2,3c0.1,0.2,0.1,0.4,0,0.5C25.6,28.9,25.4,29,25.3,29 M7.9,28h16.4L23,26H9.3L7.9,28z"/>
<path class="st5" d="M21.2,20.9c-0.3,0-0.5-0.2-0.5-0.5v-1.5c0-1-0.3-2-0.9-2.7c-0.2-0.2-0.1-0.5,0.1-0.7c0.2-0.2,0.5-0.1,0.7,0.1
	l0,0c0.7,1,1.1,2.1,1.1,3.3v1.5C21.7,20.7,21.5,20.9,21.2,20.9C21.2,20.9,21.2,20.9,21.2,20.9"/>
<path class="st5" d="M16.1,3.2c-0.3,0-0.5-0.2-0.5-0.5V1.1c0-0.3,0.2-0.5,0.5-0.5c0.3,0,0.5,0.2,0.5,0.5v1.5
	C16.6,2.9,16.4,3.2,16.1,3.2"/>
<path class="st5" d="M20.2,3.7c-0.3,0-0.5-0.2-0.5-0.5c0-0.1,0-0.1,0-0.2l0.5-1.5c0.1-0.3,0.4-0.4,0.6-0.3c0.3,0.1,0.4,0.4,0.3,0.6
	l-0.5,1.5C20.6,3.5,20.4,3.7,20.2,3.7"/>
<path class="st5" d="M23.7,4.7c-0.3,0-0.5-0.2-0.5-0.5c0-0.1,0.1-0.3,0.1-0.4l0.5-0.5c0.2-0.2,0.5-0.2,0.7,0c0.2,0.2,0.2,0.5,0,0.7
	c0,0,0,0,0,0l-0.5,0.5C24,4.6,23.9,4.7,23.7,4.7"/>
<path class="st5" d="M8.5,4.7c-0.1,0-0.3-0.1-0.4-0.1L7.6,4c-0.2-0.2-0.2-0.5,0-0.7c0.2-0.2,0.5-0.2,0.7,0l0.5,0.5
	c0.2,0.2,0.2,0.5,0,0.7C8.8,4.6,8.6,4.7,8.5,4.7"/>
<path class="st5" d="M12.1,3.7c-0.2,0-0.4-0.1-0.5-0.3l-0.5-1.5c-0.1-0.3,0-0.6,0.3-0.6c0.3-0.1,0.6,0,0.6,0.3c0,0,0,0,0,0L12.5,3
	c0.1,0.2,0,0.3-0.1,0.5C12.4,3.6,12.2,3.7,12.1,3.7"/>
<path class="st5" d="M16.1,24c-0.8,0-1.5-0.7-1.5-1.5c0-0.8,0.7-1.5,1.5-1.5c0.8,0,1.5,0.7,1.5,1.5C17.6,23.3,17,24,16.1,24L16.1,24
	 M16.1,21.9c-0.3,0-0.5,0.2-0.5,0.5s0.2,0.5,0.5,0.5s0.5-0.2,0.5-0.5l0,0C16.6,22.2,16.4,21.9,16.1,21.9"/>
<path class="st5" d="M16.2,19.9H16c-0.8,0-1.4-0.6-1.5-1.4L14.2,15c-0.1-0.8,0.5-1.6,1.4-1.7c0,0,0.1,0,0.1,0h0.8
	c0.8,0,1.5,0.7,1.5,1.5c0,0,0,0.1,0,0.1l-0.3,3.5C17.6,19.3,17,19.9,16.2,19.9 M15.7,14.3c-0.3,0-0.5,0.2-0.5,0.5c0,0,0,0,0,0
	l0.3,3.5c0,0.3,0.2,0.5,0.5,0.5h0.2c0.3,0,0.5-0.2,0.5-0.5l0.3-3.5c0-0.1,0-0.3-0.1-0.4c-0.1-0.1-0.2-0.2-0.4-0.2L15.7,14.3
	L15.7,14.3z"/>
<path class="st5" d="M21.2,24c-0.3,0-0.5-0.2-0.5-0.5v-1c0-0.3,0.2-0.5,0.5-0.5c0.3,0,0.5,0.2,0.5,0.5v1C21.7,23.7,21.5,24,21.2,24"
	/>
<path class="st4" d="M16.1,11.8c-3.6,0-6.6,3-6.6,6.6h-1c0-4.2,3.4-7.6,7.6-7.6L16.1,11.8L16.1,11.8z"/>
<path class="st5" d="M13.6,11.7c0.1,0.3,0.4,0.4,0.6,0.3c0.6-0.2,1.2-0.3,1.9-0.3v-1c-0.7,0-1.4,0.1-2.1,0.3
	C13.7,11.2,13.6,11.4,13.6,11.7C13.6,11.7,13.6,11.7,13.6,11.7"/>
<path class="st5" d="M8.5,18.4h1c0-1.4,0.5-2.8,1.3-3.9c0.1-0.1,0.2-0.3,0.3-0.4c0.2-0.2,0.2-0.5,0-0.7c-0.2-0.2-0.5-0.2-0.7,0
	c0,0,0,0,0,0c-0.1,0.1-0.2,0.3-0.3,0.4C9,15.1,8.5,16.7,8.5,18.4"/>
<path class="st5" d="M12.6,12.8c0.1-0.1,0.2-0.2,0.2-0.3l0-0.1c0,0,0-0.1,0-0.1c0,0,0-0.1,0-0.1c0,0,0-0.1,0-0.1
	c-0.1-0.1-0.2-0.2-0.3-0.2c-0.1,0-0.1,0-0.2,0c-0.2,0-0.4,0.2-0.4,0.4c0,0.1,0,0.1,0,0.2c0,0.1,0,0.1,0.1,0.2
	c0.1,0.1,0.2,0.2,0.3,0.2C12.3,12.9,12.4,12.9,12.6,12.8"/>
<path class="st5" d="M23.2,26c-0.3,0-0.5-0.2-0.5-0.5v-7.1c0-3.6-3-6.6-6.6-6.6c-0.3,0-0.5-0.2-0.5-0.5s0.2-0.5,0.5-0.5
	c4.2,0,7.6,3.4,7.6,7.6v7.1C23.7,25.8,23.5,26,23.2,26C23.2,26,23.2,26,23.2,26"/>
<path class="st5" d="M9,26c-0.3,0-0.5-0.2-0.5-0.5v-7.1c0-0.3,0.2-0.5,0.5-0.5s0.5,0.2,0.5,0.5l0,0v7.1C9.5,25.8,9.3,26,9,26"/>
<path class="st5" d="M24.2,12.8c-0.2,0-0.3-0.1-0.4-0.2c-3.2-4.3-9.2-5.1-13.5-1.9c-0.7,0.6-1.4,1.2-1.9,1.9
	c-0.2,0.2-0.5,0.3-0.7,0.1c-0.2-0.2-0.3-0.5-0.1-0.7c3.5-4.7,10.2-5.7,14.9-2.1c0.8,0.6,1.5,1.3,2.1,2.1c0.2,0.2,0.1,0.5-0.1,0.7
	C24.4,12.8,24.3,12.8,24.2,12.8L24.2,12.8z"/>
<path class="st5" d="M22.2,7.2c-0.1,0-0.2,0-0.2-0.1c-3.7-1.9-8-1.9-11.7,0c-0.2,0.1-0.6,0-0.7-0.2c-0.1-0.2,0-0.6,0.2-0.7
	c4-2.1,8.7-2.1,12.7,0c0.2,0.1,0.3,0.4,0.2,0.7C22.6,7.1,22.4,7.2,22.2,7.2"/>
<path class="st5" d="M26.3,31.1H6c-0.6,0-1-0.5-1-1c0,0,0,0,0,0v-1c0-0.6,0.5-1,1-1c0,0,0,0,0,0h20.3c0.6,0,1,0.5,1,1c0,0,0,0,0,0v1
	C27.3,30.6,26.8,31.1,26.3,31.1 M6,30.1h20.3v-1H6V30.1z"/>
</svg>
