<?xml version="1.0" encoding="utf-8"?>
<!-- Generator: Adobe Illustrator 23.0.0, SVG Export Plug-In . SVG Version: 6.00 Build 0)  -->
<svg version="1.1" id="Layer_1" xmlns="http://www.w3.org/2000/svg" xmlns:xlink="http://www.w3.org/1999/xlink" x="0px" y="0px"
	 width="32px" height="32px" viewBox="0 0 32 32" style="enable-background:new 0 0 32 32;" xml:space="preserve">
<style type="text/css">
	.st0{fill:#A7BFE3;}
	.st1{fill:#E2E5F0;}
	.st2{fill:#D3DFF2;}
	.st3{fill:#FFFFFF;}
	.st4{fill:#5B84C3;}
</style>
<title>cuatu</title>
<path class="st0" d="M29.8,23.2v5.2c0,1.4-1.2,2.6-2.6,2.6h0h-3.6c-1.4,0-2.6-1.2-2.6-2.6l0,0v-5.2c0-0.3,0.2-0.5,0.5-0.5
	c0,0,0,0,0,0h7.7C29.5,22.7,29.7,22.9,29.8,23.2C29.8,23.2,29.8,23.2,29.8,23.2"/>
<path class="st1" d="M28.2,23.2v5.2c0,1.4-1.2,2.6-2.6,2.6h0h-2.1c-1.4,0-2.6-1.2-2.6-2.6l0,0v-5.2c0-0.3,0.2-0.5,0.5-0.5
	c0,0,0,0,0,0h6.2C28,22.7,28.2,22.9,28.2,23.2C28.2,23.2,28.2,23.2,28.2,23.2"/>
<path class="st0" d="M5,1.1h10.3c1.1,0,2.1,0.9,2.1,2.1c0,0,0,0,0,0v25.8c0,1.1-0.9,2.1-2.1,2.1c0,0,0,0,0,0H5
	c-1.1,0-2.1-0.9-2.1-2.1c0,0,0,0,0,0V3.1C2.9,2,3.9,1.1,5,1.1C5,1.1,5,1.1,5,1.1"/>
<path class="st1" d="M5,1.1h8.8c1.1,0,2.1,0.9,2.1,2.1c0,0,0,0,0,0v25.8c0,1.1-0.9,2.1-2.1,2.1c0,0,0,0,0,0H5
	c-1.1,0-2.1-0.9-2.1-2.1c0,0,0,0,0,0V3.1C2.9,2,3.9,1.1,5,1.1C5,1.1,5,1.1,5,1.1"/>
<path class="st0" d="M13.4,10.3c-0.9,1.8-3,2.6-4.8,1.7C6.8,11.2,6,9,6.9,7.2s3-2.6,4.8-1.7c0.8,0.4,1.4,1,1.7,1.7"/>
<path class="st0" d="M26.7,8.8c0,0.9-0.7,1.5-1.5,1.5c0,0,0,0,0,0h-15c-0.9,0-1.5-0.7-1.5-1.5s0.7-1.5,1.5-1.5h15
	C26,7.2,26.7,7.9,26.7,8.8"/>
<path class="st2" d="M25.1,8.8c0,0.9-0.7,1.5-1.5,1.5c0,0,0,0,0,0H10.2c-0.9,0-1.5-0.7-1.5-1.5s0.7-1.5,1.5-1.5h13.4
	C24.4,7.2,25.1,7.9,25.1,8.8"/>
<path class="st0" d="M10.2,19.6c0.6,0,1,0.5,1,1c0,0.6-0.5,1-1,1s-1-0.5-1-1l0,0C9.1,20.1,9.6,19.6,10.2,19.6"/>
<path class="st3" d="M23,22.7h-1.5c-0.3,0-0.5,0.2-0.5,0.5c0,0,0,0,0,0v5.2c0,1.4,1.2,2.6,2.6,2.6h0h1.5c-1.4,0-2.6-1.2-2.6-2.6l0,0
	v-5.2C22.5,22.9,22.8,22.7,23,22.7C23,22.7,23,22.7,23,22.7"/>
<path class="st3" d="M5,31h1.5c-1.1,0-2.1-0.9-2.1-2.1c0,0,0,0,0,0V3.1c0-1.1,0.9-2.1,2.1-2.1c0,0,0,0,0,0H5C3.9,1.1,2.9,2,2.9,3.1
	c0,0,0,0,0,0v25.8C2.9,30,3.9,31,5,31"/>
<polygon class="st3" points="3.5,3.1 3.5,9.8 3.5,28.9 2.4,28.9 2.4,9.8 2.4,3.1 "/>
<path class="st4" d="M2.4,28.9c0,1.4,1.2,2.6,2.6,2.6h10.3c1.4,0,2.6-1.2,2.6-2.6v-18h7.2c1.1,0,2.1-0.9,2.1-2.1s-0.9-2.1-2.1-2.1
	h-7.2V3.1c0-1.4-1.2-2.6-2.6-2.6H5c-1.4,0-2.6,1.2-2.6,2.6v2.1c0,0.3,0.2,0.5,0.5,0.5c0.3,0,0.5-0.2,0.5-0.5V3.1
	c0-0.9,0.7-1.5,1.5-1.5c0,0,0,0,0,0h10.3c0.9,0,1.5,0.7,1.5,1.5c0,0,0,0,0,0v3.6h-3.1c-0.7-1.3-2.1-2.1-3.6-2.1C7.9,4.7,6,6.5,6,8.8
	s1.8,4.1,4.1,4.1c1.5,0,2.8-0.8,3.6-2.1h3.1v18c0,0.9-0.7,1.5-1.5,1.5c0,0,0,0,0,0H5c-0.9,0-1.5-0.7-1.5-1.5c0,0,0,0,0,0V9.3
	c0-0.3-0.2-0.5-0.5-0.5C2.7,8.8,2.4,9,2.4,9.3L2.4,28.9z M26.1,8.8c0,0.6-0.5,1-1,1c0,0,0,0,0,0h-15c-0.6,0-1-0.5-1-1s0.5-1,1-1h15
	C25.7,7.8,26.1,8.2,26.1,8.8C26.1,8.8,26.1,8.8,26.1,8.8 M10.2,11.9c-1.7,0-3.1-1.4-3.1-3.1c0-1.7,1.4-3.1,3.1-3.1
	c0.9,0,1.7,0.4,2.3,1h-2.3C9,6.7,8.1,7.7,8.1,8.8s0.9,2.1,2.1,2.1h2.3C11.9,11.5,11,11.9,10.2,11.9"/>
<path class="st4" d="M2.9,7.8c0.3,0,0.5-0.2,0.5-0.5c0-0.1-0.1-0.3-0.2-0.4L3.2,6.8c0,0-0.1,0-0.1,0c0,0-0.1,0-0.1,0
	c0,0-0.1,0-0.1,0c-0.1,0-0.3,0.1-0.4,0.2c-0.2,0.2-0.2,0.5,0,0.7c0,0,0.1,0.1,0.2,0.1C2.8,7.7,2.9,7.8,2.9,7.8"/>
<path class="st4" d="M29.8,22.2h-0.5v-3.7c0-2.1-1.7-3.9-3.9-3.9c-2.1,0-3.9,1.7-3.9,3.9c0,0,0,0,0,0v3.7H21c-0.3,0-0.5,0.2-0.5,0.5
	c0,0,0,0,0,0v5.7c0,1.7,1.4,3.1,3.1,3.1h3.6c1.7,0,3.1-1.4,3.1-3.1v-5.7C30.3,22.4,30,22.2,29.8,22.2C29.8,22.2,29.8,22.2,29.8,22.2
	 M22.5,18.5c0-1.6,1.3-2.8,2.8-2.8c1.6,0,2.8,1.3,2.8,2.8v3.7h-5.7V18.5z M29.2,28.4c0,1.1-0.9,2.1-2.1,2.1c0,0,0,0,0,0h-3.6
	c-1.1,0-2.1-0.9-2.1-2.1c0,0,0,0,0,0v-5.2h7.7L29.2,28.4z"/>
<path class="st4" d="M27.1,24.8h-3.6c-0.3,0-0.5,0.2-0.5,0.5c0,0.3,0.2,0.5,0.5,0.5c0,0,0,0,0,0h3.6c0.3,0,0.5-0.2,0.5-0.5
	C27.7,25,27.4,24.8,27.1,24.8C27.1,24.8,27.1,24.8,27.1,24.8"/>
<path class="st4" d="M27.1,27.4h-3.6c-0.3,0-0.5,0.2-0.5,0.5c0,0.3,0.2,0.5,0.5,0.5c0,0,0,0,0,0h3.6c0.3,0,0.5-0.2,0.5-0.5
	C27.7,27.6,27.4,27.4,27.1,27.4C27.1,27.4,27.1,27.4,27.1,27.4"/>
<path class="st4" d="M10.2,24.3c0.3,0,0.5-0.2,0.5-0.5c0,0,0,0,0,0v-1.6c0.8-0.3,1.2-1.2,0.9-2c-0.3-0.8-1.2-1.2-2-0.9
	c-0.8,0.3-1.2,1.2-0.9,2c0.2,0.4,0.5,0.8,0.9,0.9v1.6C9.6,24,9.9,24.3,10.2,24.3C10.2,24.3,10.2,24.3,10.2,24.3 M10.2,20.1
	c0.3,0,0.5,0.2,0.5,0.5s-0.2,0.5-0.5,0.5c-0.3,0-0.5-0.2-0.5-0.5l0,0C9.6,20.4,9.9,20.1,10.2,20.1C10.2,20.1,10.2,20.1,10.2,20.1"/>
</svg>
