<?xml version="1.0" encoding="utf-8"?>
<!-- Generator: Adobe Illustrator 23.0.0, SVG Export Plug-In . SVG Version: 6.00 Build 0)  -->
<svg version="1.1" id="Layer_1" xmlns="http://www.w3.org/2000/svg" xmlns:xlink="http://www.w3.org/1999/xlink" x="0px" y="0px"
	 width="32px" height="32px" viewBox="0 0 32 32" style="enable-background:new 0 0 32 32;" xml:space="preserve">
<style type="text/css">
	.st0{fill:#E8ECF7;}
	.st1{fill:#CCD8EF;}
	.st2{fill:#A8C0E4;}
	.st3{fill:#FFFFFF;}
	.st4{fill:#5B84C3;}
</style>
<title>daudocthetu</title>
<path class="st0" d="M12.9,1.5v28.9H4.5c-1.1,0-2-0.9-2-2c0,0,0,0,0,0V3.5c0-1.1,0.9-2,2-2c0,0,0,0,0,0H12.9z"/>
<path class="st1" d="M20.4,3.5v24.9c0,1.1-0.9,2-2,2c0,0,0,0,0,0h-1.5V1.5h1.5C19.5,1.5,20.4,2.4,20.4,3.5
	C20.4,3.5,20.4,3.5,20.4,3.5"/>
<path class="st0" d="M18.9,3.5v24.9c0,1.1-0.9,2-2,2c0,0,0,0,0,0c0,0,0,0.8,0-28.9C18,1.5,18.9,2.4,18.9,3.5
	C18.9,3.5,18.9,3.5,18.9,3.5"/>
<rect x="12.9" y="1.5" class="st2" width="4" height="28.9"/>
<path class="st3" d="M6,1.5H4.5c-1.1,0-2,0.9-2,2c0,0,0,0,0,0v24.9c0,1.1,0.9,2,2,2c0,0,0,0,0,0H6c-1.1,0-2-0.9-2-2c0,0,0,0,0,0V3.5
	C4,2.4,4.9,1.5,6,1.5C6,1.5,6,1.5,6,1.5"/>
<rect x="2" y="3.5" class="st3" width="1" height="4"/>
<path class="st4" d="M2.5,6C2.2,6,2,5.8,2,5.5S2.2,5,2.5,5C2.7,5,3,5.3,3,5.5C3,5.8,2.7,6,2.5,6C2.5,6,2.5,6,2.5,6"/>
<path class="st4" d="M4.5,31h14c1.4,0,2.5-1.1,2.5-2.5c0,0,0,0,0,0V3.5c0-1.4-1.1-2.5-2.5-2.5c0,0,0,0,0,0h-14C3.1,1.1,2,2.2,2,3.5
	c0,0,0,0,0,0C2,3.8,2.2,4,2.5,4S3,3.8,3,3.5C3,2.7,3.6,2,4.5,2h8V30h-8C3.6,30,3,29.3,3,28.5V7.5C3,7.3,2.7,7,2.5,7S2,7.3,2,7.5
	v20.9C2,29.8,3.1,31,4.5,31 M19.9,3.5v24.9c0,0.8-0.7,1.5-1.5,1.5h-1V2h1C19.2,2,19.9,2.7,19.9,3.5C19.9,3.5,19.9,3.5,19.9,3.5
	 M13.4,2h3V30h-3V2z"/>
<path class="st4" d="M27,21.8c-0.2,0.2-0.2,0.5,0,0.7c0.2,0.2,0.5,0.2,0.7,0c0,0,0,0,0,0c3.5-3.6,3.5-9.3,0-12.9
	c-0.2-0.2-0.5-0.2-0.7,0s-0.2,0.5,0,0.7C30.2,13.5,30.2,18.6,27,21.8C27,21.8,27,21.8,27,21.8"/>
<path class="st4" d="M25.2,11.4c-0.2,0.2-0.2,0.5,0,0.7c0,0,0,0,0,0c2.2,2.2,2.2,5.8,0,8c-0.2,0.2-0.2,0.5,0,0.7
	c0.2,0.2,0.5,0.2,0.7,0c2.6-2.6,2.6-6.8,0-9.4C25.8,11.2,25.4,11.2,25.2,11.4"/>
<path class="st4" d="M23.5,19c0.2,0.2,0.5,0.2,0.7,0c1.6-1.6,1.6-4.3,0-5.9c-0.2-0.2-0.5-0.2-0.7,0c-0.2,0.2-0.2,0.5,0,0.7
	c0,0,0,0,0,0c1.2,1.2,1.2,3.3,0,4.5C23.3,18.5,23.3,18.8,23.5,19"/>
</svg>
