<?xml version="1.0" encoding="utf-8"?>
<!-- Generator: Adobe Illustrator 23.0.0, SVG Export Plug-In . SVG Version: 6.00 Build 0)  -->
<svg version="1.1" id="Layer_1" xmlns="http://www.w3.org/2000/svg" xmlns:xlink="http://www.w3.org/1999/xlink" x="0px" y="0px"
	 width="32px" height="32px" viewBox="0 0 32 32" style="enable-background:new 0 0 32 32;" xml:space="preserve">
<style type="text/css">
	.st0{fill:#5B84C3;}
</style>
<title>DC</title>
<path class="st0" d="M1.4,28.5c0.7-1.2,1.4-2.5,2.2-3.7c2.3-4.1,4.6-8.1,6.9-12.2c1.8-3.1,3.5-6.2,5.3-9.3C15.9,3,15.9,2.9,16,2.7
	h0.2c0.5,0.9,1,1.8,1.5,2.7c3,5.2,5.9,10.3,8.9,15.5c1.5,2.6,2.9,5.1,4.4,7.7c-9.7,0-19.5,0-29.2,0C1.6,28.6,1.5,28.5,1.4,28.5z
	 M4.2,27h24c-4-7-8-13.9-12.1-21C12.1,13.1,8.2,20,4.2,27z"/>
<path class="st0" d="M17,19.6h-1.7v-7H17V19.6z"/>
<path class="st0" d="M17.9,23.5c0,0.9-0.7,1.7-1.7,1.7c0,0,0,0-0.1,0c-1,0-1.7-0.8-1.8-1.7c0,0,0,0,0,0c0-1,0.8-1.7,1.8-1.7
	C17.2,21.7,17.9,22.5,17.9,23.5C17.9,23.5,17.9,23.5,17.9,23.5z"/>
</svg>
