<?xml version="1.0" encoding="utf-8"?>
<!-- Generator: Adobe Illustrator 23.0.0, SVG Export Plug-In . SVG Version: 6.00 Build 0)  -->
<svg version="1.1" id="Layer_1" xmlns="http://www.w3.org/2000/svg" xmlns:xlink="http://www.w3.org/1999/xlink" x="0px" y="0px"
	 width="32px" height="32px" viewBox="0 0 32 32" style="enable-background:new 0 0 32 32;" xml:space="preserve">
<style type="text/css">
	.st0{fill:#E3E7F2;}
	.st1{fill:#88AAD9;}
	.st2{fill:#FFFFFF;}
	.st3{fill:#5B84C3;}
</style>
<title>dienluoi</title>
<polyline class="st0" points="12.1,11.9 6.1,11.9 12.3,9.1 "/>
<polyline class="st0" points="11.6,20.8 5.6,20.8 11.8,18 "/>
<polyline class="st0" points="19.8,9.1 26,11.9 20,11.9 "/>
<polyline class="st0" points="20.4,18 26.5,20.8 20.5,20.8 "/>
<path class="st1" d="M2.7,27.3h26.8c0.5,0,1,0.4,1,1c0,0,0,0,0,0v1c0,0.5-0.4,1-1,1c0,0,0,0,0,0H2.7c-0.5,0-1-0.4-1-1c0,0,0,0,0,0
	v-1C1.7,27.7,2.1,27.3,2.7,27.3C2.7,27.3,2.7,27.3,2.7,27.3"/>
<path class="st0" d="M2.7,27.3H28c0.5,0,1,0.4,1,1c0,0,0,0,0,0v1c0,0.5-0.4,1-1,1c0,0,0,0,0,0H2.7c-0.5,0-1-0.4-1-1c0,0,0,0,0,0v-1
	C1.7,27.7,2.1,27.3,2.7,27.3C2.7,27.3,2.7,27.3,2.7,27.3"/>
<polygon class="st0" points="16.1,23.1 7.6,27.3 11.6,20.8 "/>
<polygon class="st0" points="16.1,16.1 11.6,20.8 12.1,11.9 "/>
<polygon class="st0" points="20.5,20.8 16.1,16.1 20,11.9 "/>
<polygon class="st0" points="18.6,13.4 16.1,16.1 12.1,11.9 18.5,11.9 "/>
<polygon class="st0" points="16.1,8.2 12.1,11.9 12.6,5 "/>
<polygon class="st0" points="20,11.9 16.1,8.2 19.5,5 "/>
<path class="st0" d="M18,5h-5.5l2.2-3.1c0.1-0.2,0.3-0.3,0.5-0.4c0.2,0.1,0.4,0.2,0.5,0.4L18,5z"/>
<polygon class="st0" points="20.5,20.8 16.1,23.1 11.6,20.8 "/>
<polygon class="st0" points="24.5,27.3 16.1,23.1 20.5,20.8 "/>
<polygon class="st0" points="19,20.8 11.6,20.8 16.1,16.1 18.9,19.2 "/>
<polygon class="st0" points="18.5,11.9 12.1,11.9 16.1,8.2 18.4,10.4 "/>
<polygon class="st0" points="18.1,6.3 16.1,8.2 12.6,5 18,5 "/>
<path class="st1" d="M19.5,5l-1.4,1.3L18,5l-2.2-3.1c-0.1-0.2-0.3-0.3-0.5-0.4c0,0,0.1,0,0.1,0c0,0,0.1,0,0.1,0h1
	c0.3,0,0.6,0.2,0.8,0.4L19.5,5z"/>
<polygon class="st1" points="20,11.9 18.6,13.4 18.5,11.9 18.4,10.4 "/>
<polygon class="st1" points="19.5,5 20,11.9 18.4,10.4 18.1,6.3 "/>
<polygon class="st1" points="20.5,20.8 19,20.8 18.9,19.2 "/>
<polygon class="st1" points="20,11.9 20.5,20.8 18.9,19.2 18.6,13.4 "/>
<polygon class="st1" points="24.5,27.3 22.3,26.2 19,20.8 20.5,20.8 "/>
<path class="st2" d="M4.2,30.3H2.7c-0.5,0-1-0.4-1-1v-1c0-0.5,0.4-1,1-1h1.5c-0.5,0-1,0.4-1,1v1C3.2,29.8,3.6,30.3,4.2,30.3"/>
<path class="st2" d="M16.5,1.5h-1c0,0-0.1,0-0.1,0c0,0-0.1,0-0.1,0c-0.2,0.1-0.4,0.2-0.5,0.4L12.6,5l-0.3,4.1l-6.2,2.8h1.5l6.2-2.8
	L14.1,5l2.2-3.1c0.1-0.2,0.3-0.3,0.5-0.4C16.7,1.5,16.6,1.5,16.5,1.5 M11.6,20.8l-4,6.4l2.1-1.1l3.3-5.4H11.6z M12.1,11.9L11.8,18
	l-6.1,2.8h1.5l6.1-2.8l0.3-6.1H12.1z"/>
<path class="st3" d="M29.5,26.8h-4.7l-3.4-5.5H26v1.5c0,0.3,0.2,0.5,0.5,0.5s0.5-0.2,0.5-0.5v-2c0,0,0,0,0,0c0,0,0-0.1,0-0.1
	c0,0,0,0,0-0.1c0,0-0.1-0.1-0.1-0.1c0,0,0,0,0,0c0,0-0.1-0.1-0.1-0.1l-5.8-2.7l-0.3-5.3h4.9v1.5c0,0.3,0.2,0.5,0.5,0.5
	c0.3,0,0.5-0.2,0.5-0.5v-2c0,0,0,0,0,0c0,0,0-0.1,0-0.1c0-0.1-0.1-0.1-0.1-0.2c0,0,0,0,0,0c0,0-0.1-0.1-0.1-0.1l0,0l0,0l-5.9-2.7
	L20,4.9c0,0,0,0,0,0c0,0,0,0,0-0.1c0,0,0,0,0-0.1c0,0,0,0,0-0.1c0,0,0,0,0,0l-2.2-3.1C17.5,1.2,17,1,16.5,1h-1
	c-0.5,0-0.9,0.2-1.2,0.6l-2.2,3.1c0,0,0,0,0,0c0,0,0,0,0,0.1c0,0,0,0,0,0.1c0,0,0,0,0,0.1c0,0,0,0,0,0l-0.3,3.8l-5.9,2.7
	c-0.1,0-0.1,0.1-0.1,0.1l0,0c-0.1,0.1-0.1,0.1-0.1,0.2c0,0,0,0.1,0,0.1c0,0,0,0,0,0v2c0,0.3,0.2,0.5,0.5,0.5c0.3,0,0.5-0.2,0.5-0.5
	v-1.5h4.9l-0.3,5.3l-5.8,2.7c-0.1,0-0.1,0.1-0.1,0.1c0,0,0,0,0,0c-0.1,0-0.1,0.1-0.1,0.2c0,0,0,0.1,0,0.1c0,0,0,0,0,0v2
	c0,0.3,0.2,0.5,0.5,0.5s0.5-0.2,0.5-0.5v-1.5h4.6l-3.4,5.5H2.7c-0.8,0-1.5,0.7-1.5,1.5v1c0,0.8,0.7,1.5,1.5,1.5h26.8
	c0.8,0,1.5-0.7,1.5-1.5v-1C30.9,27.5,30.3,26.8,29.5,26.8 M19.9,18L19.9,18l0.1,1.5l-3.2-3.4l2.9-3L19.9,18z M19.4,20.3h-6.6
	l3.3-3.5L19.4,20.3z M18.9,12.4l-2.8,3l-2.8-3L18.9,12.4z M13.4,11.4l2.7-2.5l2.7,2.5H13.4z M16.8,8.2L19.1,6l0.3,4.6L16.8,8.2z
	 M16.1,7.5l-2.2-2.1h4.4L16.1,7.5z M13,6l2.3,2.2l-2.7,2.5L13,6z M12.3,18L12.3,18l0.3-4.9l2.9,3l-3.2,3.4L12.3,18z M18.4,21.3
	l-2.4,1.2l-2.4-1.2H18.4z M20.3,21.5l2.8,4.6l-6-3L20.3,21.5z M24.2,20.3H21l-0.1-1.5L24.2,20.3z M23.7,11.4h-3.2l-0.1-1.5
	L23.7,11.4z M15.2,2.2C15.3,2.1,15.4,2,15.6,2h1c0.2,0,0.3,0.1,0.4,0.2l1.6,2.3h-5L15.2,2.2z M11.7,9.9l-0.1,1.5H8.4L11.7,9.9z
	 M11.2,18.8l-0.1,1.5H7.9L11.2,18.8z M11.8,21.5l3.2,1.6l-6,3L11.8,21.5z M16.1,23.6l6.3,3.2H9.7L16.1,23.6z M29.9,29.3
	c0,0.3-0.2,0.5-0.5,0.5H2.7c-0.3,0-0.5-0.2-0.5-0.5v-1c0-0.3,0.2-0.5,0.5-0.5h26.8c0.3,0,0.5,0.2,0.5,0.5V29.3z"/>
</svg>
