<?xml version="1.0" encoding="utf-8"?>
<!-- Generator: Adobe Illustrator 23.0.0, SVG Export Plug-In . SVG Version: 6.00 Build 0)  -->
<svg version="1.1" id="Layer_1" xmlns="http://www.w3.org/2000/svg" xmlns:xlink="http://www.w3.org/1999/xlink" x="0px" y="0px"
	 width="32px" height="32px" viewBox="0 0 32 32" style="enable-background:new 0 0 32 32;" xml:space="preserve">
<style type="text/css">
	.st0{fill:#A8C0E4;}
	.st1{fill:#88AAD9;}
	.st2{fill:#E3E7F2;}
	.st3{fill:#FFFFFF;}
	.st4{fill:#7F8D8D;}
	.st5{fill:#5B84C3;}
</style>
<title>dieuhoa</title>
<path class="st0" d="M4,23h3v2c0,0.6-0.4,1-1,1c0,0,0,0,0,0H5c-0.6,0-1-0.4-1-1c0,0,0,0,0,0L4,23L4,23z"/>
<path class="st0" d="M25,23h3v2c0,0.6-0.4,1-1,1c0,0,0,0,0,0h-1c-0.6,0-1-0.4-1-1c0,0,0,0,0,0L25,23L25,23z"/>
<path class="st1" d="M3.5,6h25c1.1,0,2,0.9,2,2v14c0,1.1-0.9,2-2,2c0,0,0,0,0,0h-25c-1.1,0-2-0.9-2-2V8C1.5,6.9,2.4,6,3.5,6"/>
<path class="st2" d="M29,8v14c0,1.1-0.8,2-1.9,2H3.8c-1.1,0-1.9-0.9-1.9-2V8c0-1.1,0.8-2,1.9-2h23.3C28.2,6,29,6.9,29,8"/>
<path class="st1" d="M18.5,6v18H5.2c-1-0.1-1.8-1-1.8-2V8C3.4,7,4.2,6.1,5.2,6H18.5z"/>
<path class="st3" d="M16.5,6v18H3.2c-1-0.1-1.8-1-1.8-2V8C1.4,7,2.2,6.1,3.2,6H16.5z"/>
<path class="st2" d="M17,6v18H4.6c-1-0.1-1.7-1-1.6-2V8C2.9,7,3.6,6.1,4.6,6H17z"/>
<path class="st1" d="M16,15c0,0.2,0,0.3,0,0.5c-0.2,2.9-2.6,5.2-5.5,5.5c-0.2,0-0.3,0-0.5,0c-0.2,0-0.3,0-0.5,0
	c-2.9-0.2-5.2-2.6-5.5-5.5c0-0.2,0-0.3,0-0.5c0-0.2,0-0.3,0-0.5C4.2,11.6,6.5,9.3,9.5,9C9.6,9,9.8,9,10,9c0.2,0,0.3,0,0.5,0
	c2.9,0.2,5.2,2.6,5.5,5.5C16,14.7,16,14.8,16,15"/>
<path class="st2" d="M14.5,15c0,0.2,0,0.3,0,0.5c-0.1,1.2-0.5,2.4-1.2,3.4c-0.2,0.3-0.4,0.5-0.6,0.7c-0.8,0.8-1.8,1.3-3,1.4
	c-0.3,0-0.6,0-0.9,0c-1.1-0.1-2.2-0.6-3-1.4c-0.2-0.2-0.4-0.5-0.6-0.7c-0.7-1-1.1-2.2-1.2-3.4c0-0.2,0-0.3,0-0.5s0-0.3,0-0.5
	c0.1-1.2,0.5-2.4,1.2-3.4c0.2-0.3,0.4-0.5,0.6-0.7c0.8-0.8,1.8-1.3,3-1.4c0.3,0,0.6,0,0.9,0c1.1,0.1,2.2,0.6,3,1.4
	c0.2,0.2,0.4,0.5,0.6,0.7c0.7,1,1.1,2.2,1.2,3.4C14.5,14.7,14.5,14.8,14.5,15"/>
<path class="st4" d="M28.5,10h-8C20.2,10,20,9.8,20,9.5C20,9.2,20.2,9,20.5,9h8C28.8,9,29,9.2,29,9.5C29,9.8,28.8,10,28.5,10"/>
<path class="st4" d="M28.5,12h-8c-0.3,0-0.5-0.2-0.5-0.5c0-0.3,0.2-0.5,0.5-0.5h8c0.3,0,0.5,0.2,0.5,0.5S28.8,12,28.5,12
	C28.5,12,28.5,12,28.5,12"/>
<path class="st4" d="M28.5,14h-8c-0.3,0-0.5-0.2-0.5-0.5c0-0.3,0.2-0.5,0.5-0.5h8c0.3,0,0.5,0.2,0.5,0.5C29,13.8,28.8,14,28.5,14"/>
<path class="st4" d="M28.5,16h-8c-0.3,0-0.5-0.2-0.5-0.5c0-0.3,0.2-0.5,0.5-0.5h8c0.3,0,0.5,0.2,0.5,0.5C29,15.8,28.8,16,28.5,16"/>
<path class="st0" d="M21.6,18.3l-1,1.5c-0.1,0.2-0.1,0.5,0.2,0.7c0.1,0,0.1,0.1,0.2,0.1H23c0.3,0,0.5-0.3,0.5-0.5
	c0-0.1,0-0.1-0.1-0.2l-1-1.5c-0.1-0.2-0.4-0.3-0.6-0.2C21.7,18.1,21.6,18.2,21.6,18.3"/>
<path class="st0" d="M27.4,20.3l1-1.5c0.1-0.2,0.1-0.5-0.2-0.7C28.2,18,28.1,18,28,18H26c-0.3,0-0.5,0.3-0.5,0.5
	c0,0.1,0,0.1,0.1,0.2l1,1.5c0.1,0.2,0.4,0.3,0.6,0.2C27.3,20.4,27.3,20.4,27.4,20.3"/>
<path class="st2" d="M4,9.5C3.9,9.5,3.9,9.5,4,9.5c-0.1,0-0.2,0-0.2,0c0,0-0.1,0-0.1,0c0,0-0.1,0-0.1-0.1c-0.2-0.2-0.2-0.5,0-0.7
	C3.8,8.5,4,8.5,4.2,8.6C4.5,8.7,4.5,9,4.4,9.3C4.3,9.4,4.1,9.5,4,9.5"/>
<path class="st2" d="M4,21.5c-0.3,0-0.5-0.2-0.5-0.5c0,0,0,0,0,0c0-0.1,0-0.1,0-0.2c0-0.1,0.1-0.1,0.1-0.2l0.1-0.1c0,0,0.1,0,0.1,0
	c0,0,0.1,0,0.1,0c0.3-0.1,0.5,0.1,0.6,0.4c0.1,0.3-0.1,0.5-0.4,0.6C4,21.5,4,21.5,4,21.5"/>
<path class="st2" d="M16,9.5c-0.1,0-0.3-0.1-0.4-0.1c0,0-0.1-0.1-0.1-0.2c0-0.1,0-0.1,0-0.2c0-0.1,0.1-0.3,0.1-0.4
	c0.1-0.1,0.3-0.2,0.5-0.1c0,0,0.1,0,0.1,0c0,0,0.1,0,0.1,0c0,0,0.1,0,0.1,0.1c0.1,0.1,0.1,0.2,0.1,0.4c0,0.1,0,0.1,0,0.2
	c0,0.1-0.1,0.1-0.1,0.2c0,0-0.1,0-0.1,0.1c0,0-0.1,0-0.1,0C16.1,9.5,16.1,9.5,16,9.5C16,9.5,16,9.5,16,9.5"/>
<path class="st2" d="M16,21.5c-0.1,0-0.3-0.1-0.4-0.1c0,0,0,0-0.1-0.1c0,0,0-0.1,0-0.1c0,0,0-0.1,0-0.1c0,0,0-0.1,0-0.1
	c0-0.1,0.1-0.3,0.1-0.4c0.1-0.1,0.3-0.2,0.5-0.1c0,0,0.1,0,0.1,0c0,0,0.1,0,0.1,0c0,0,0.1,0,0.1,0.1c0.1,0.1,0.1,0.2,0.1,0.4
	c0,0.1-0.1,0.3-0.1,0.4c0,0-0.1,0-0.1,0.1c0,0-0.1,0-0.1,0C16.1,21.5,16.1,21.5,16,21.5C16,21.5,16,21.5,16,21.5"/>
<polygon class="st3" points="2,8 2,14.5 2,22 1,22 1,14.5 1,8 "/>
<path class="st5" d="M28.5,5.5h-25C2.1,5.5,1,6.6,1,8v2c0,0.3,0.2,0.5,0.5,0.5C1.7,10.5,2,10.3,2,10V8c0-0.8,0.7-1.5,1.5-1.5H18v17
	H3.5C2.6,23.5,2,22.9,2,22v-8c0-0.3-0.2-0.5-0.5-0.5S1,13.7,1,14v8c0,1.4,1.1,2.5,2.5,2.5V25c0,0.8,0.7,1.5,1.5,1.5h1
	c0.8,0,1.5-0.7,1.5-1.5v-0.5h17V25c0,0.8,0.7,1.5,1.5,1.5h1c0.8,0,1.5-0.7,1.5-1.5v-0.5c1.4,0,2.5-1.1,2.5-2.5V8
	C31,6.6,29.9,5.5,28.5,5.5 M6.5,25c0,0.3-0.2,0.5-0.5,0.5c0,0,0,0,0,0H5c-0.3,0-0.5-0.2-0.5-0.5c0,0,0,0,0,0v-0.5h2L6.5,25L6.5,25z
	 M27.5,25c0,0.3-0.2,0.5-0.5,0.5c0,0,0,0,0,0h-1c-0.3,0-0.5-0.2-0.5-0.5c0,0,0,0,0,0v-0.5h2L27.5,25L27.5,25z M30,22
	c0,0.8-0.7,1.5-1.5,1.5H19v-17h9.5C29.3,6.5,30,7.2,30,8V22z"/>
<path class="st5" d="M1.5,12.5c0.1,0,0.3-0.1,0.4-0.1c0.2-0.2,0.2-0.5,0-0.7l-0.1-0.1c0,0-0.1,0-0.1,0c0,0-0.1,0-0.1,0
	c0,0-0.1,0-0.1,0c-0.1,0-0.3,0.1-0.4,0.1c-0.2,0.2-0.2,0.5,0,0.7c0,0,0.1,0.1,0.2,0.1C1.3,12.5,1.4,12.5,1.5,12.5"/>
<path class="st5" d="M5.4,19.6L5.4,19.6L5.4,19.6c2.6,2.6,6.7,2.6,9.2,0l0,0l0,0c2.5-2.5,2.5-6.6,0-9.2l0,0l0,0
	c-2.5-2.5-6.6-2.5-9.2,0l0,0l0,0C2.8,13,2.8,17.1,5.4,19.6 M5.7,11.5l3,3H4.5C4.6,13.4,5,12.4,5.7,11.5 M15.5,14.5h-4.3l3-3
	C14.9,12.4,15.4,13.4,15.5,14.5 M14.2,18.5l-3-3h4.3C15.4,16.6,14.9,17.7,14.2,18.5 M9.5,20.5c-1.1-0.1-2.2-0.5-3-1.3l3-3V20.5z
	 M10.5,16.2l3,3c-0.9,0.7-1.9,1.2-3,1.3V16.2z M10.5,13.8V9.5c1.1,0.1,2.2,0.5,3,1.3L10.5,13.8z M9.5,13.8l-3-3
	c0.9-0.7,1.9-1.2,3-1.3L9.5,13.8L9.5,13.8z M8.8,15.5l-3,3c-0.7-0.9-1.2-1.9-1.3-3H8.8z"/>
<path class="st5" d="M28.5,9h-8C20.2,9,20,9.2,20,9.5c0,0.3,0.2,0.5,0.5,0.5h8c0.3,0,0.5-0.2,0.5-0.5S28.8,9,28.5,9
	C28.5,9,28.5,9,28.5,9"/>
<path class="st5" d="M28.5,11h-8c-0.3,0-0.5,0.2-0.5,0.5s0.2,0.5,0.5,0.5h8c0.3,0,0.5-0.2,0.5-0.5C29,11.2,28.8,11,28.5,11
	C28.5,11,28.5,11,28.5,11"/>
<path class="st5" d="M28.5,13h-8c-0.3,0-0.5,0.2-0.5,0.5c0,0.3,0.2,0.5,0.5,0.5h8c0.3,0,0.5-0.2,0.5-0.5C29,13.2,28.8,13,28.5,13"/>
<path class="st5" d="M28.5,15h-8c-0.3,0-0.5,0.2-0.5,0.5c0,0.3,0.2,0.5,0.5,0.5h8c0.3,0,0.5-0.2,0.5-0.5C29,15.2,28.8,15,28.5,15"/>
<path class="st5" d="M23.8,19.5l-1-1.5c-0.2-0.5-0.8-0.6-1.3-0.4c-0.2,0.1-0.3,0.2-0.4,0.4l-1,1.5c0,0,0,0,0,0.1
	c-0.2,0.3-0.2,0.7,0,1c0.2,0.3,0.5,0.5,0.8,0.5H23c0.3,0,0.6-0.2,0.8-0.5C24,20.3,24,19.9,23.8,19.5L23.8,19.5 M21,20L21,20L21,20
	l1-1.4l1,1.4H21z"/>
<path class="st5" d="M28,17.5H26c-0.3,0-0.6,0.2-0.8,0.5c-0.2,0.3-0.2,0.7,0,1c0,0,0,0,0,0.1l1,1.5c0.2,0.5,0.8,0.6,1.3,0.4
	c0.2-0.1,0.3-0.2,0.4-0.4l1-1.5c0,0,0,0,0-0.1c0.2-0.3,0.2-0.7,0-1C28.7,17.7,28.4,17.5,28,17.5 M28,18.5L28,18.5L27,20l-1-1.4
	L28,18.5L28,18.5z"/>
<path class="st5" d="M3.8,9.5C3.8,9.5,3.8,9.5,3.8,9.5c0.1,0,0.2,0,0.2,0c0.3,0,0.5-0.2,0.5-0.5S4.2,8.5,4,8.5S3.5,8.7,3.5,9
	c0,0.1,0.1,0.3,0.1,0.4C3.6,9.4,3.7,9.4,3.8,9.5C3.7,9.4,3.7,9.5,3.8,9.5"/>
<path class="st5" d="M3.6,21.4c0.1,0.1,0.2,0.1,0.4,0.1c0.3,0,0.5-0.2,0.5-0.5c0-0.3-0.2-0.5-0.5-0.5c0,0-0.1,0-0.1,0
	c0,0-0.1,0-0.1,0c0,0-0.1,0-0.1,0l-0.1,0.1c0,0-0.1,0.1-0.1,0.2c0,0.1,0,0.1,0,0.2C3.5,21.2,3.5,21.3,3.6,21.4"/>
<path class="st5" d="M16,9.5C16,9.5,16,9.5,16,9.5c0.1,0,0.2,0,0.2,0c0,0,0.1,0,0.1,0c0,0,0.1,0,0.1-0.1c0,0,0.1-0.1,0.1-0.2
	c0-0.1,0-0.1,0-0.2c0-0.1-0.1-0.3-0.1-0.4c0,0-0.1,0-0.1-0.1c0,0-0.1,0-0.1,0c0,0-0.1,0-0.1,0c-0.2,0-0.3,0-0.5,0.1
	c-0.1,0.1-0.1,0.2-0.1,0.4c0,0.1,0,0.1,0,0.2c0,0.1,0.1,0.1,0.1,0.2C15.7,9.5,15.8,9.5,16,9.5"/>
<path class="st5" d="M16.2,20.6C16.1,20.6,16.1,20.5,16.2,20.6c-0.3-0.1-0.4,0-0.5,0.1c-0.1,0.1-0.1,0.2-0.1,0.4c0,0,0,0.1,0,0.1
	c0,0,0,0.1,0,0.1c0,0,0,0.1,0,0.1c0,0,0,0.1,0.1,0.1c0.1,0.1,0.2,0.1,0.4,0.1c0,0,0.1,0,0.1,0c0,0,0.1,0,0.1,0c0,0,0.1,0,0.1,0
	c0,0,0.1,0,0.1-0.1c0.1-0.1,0.1-0.2,0.1-0.4c0-0.1-0.1-0.3-0.1-0.4C16.3,20.7,16.3,20.6,16.2,20.6C16.2,20.6,16.2,20.6,16.2,20.6"/>
</svg>
