<?xml version="1.0" encoding="utf-8"?>
<!-- Generator: Adobe Illustrator 23.0.0, SVG Export Plug-In . SVG Version: 6.00 Build 0)  -->
<svg version="1.1" id="Layer_1" xmlns="http://www.w3.org/2000/svg" xmlns:xlink="http://www.w3.org/1999/xlink" x="0px" y="0px"
	 width="32px" height="32px" viewBox="0 0 32 32" style="enable-background:new 0 0 32 32;" xml:space="preserve">
<style type="text/css">
	.st0{fill:#A7BFE3;}
	.st1{fill:#FFFFFF;}
	.st2{fill:#E2E5F0;}
	.st3{clip-path:url(#SVGID_2_);}
	.st4{fill:url(#SVGID_3_);}
	.st5{fill:#86A8D7;}
	.st6{clip-path:url(#SVGID_5_);}
	.st7{fill:url(#SVGID_6_);}
	.st8{fill:none;}
	.st9{fill:#5B84C3;}
</style>
<title>doam</title>
<path class="st0" d="M17,1.4c7.5,0,13.5,6.5,13.5,14.5s-6,14.5-13.5,14.5S3.5,23.9,3.5,15.9S9.6,1.4,17,1.4"/>
<path class="st1" d="M15,1.4c7.5,0,13.5,6.5,13.5,14.5s-6,14.5-13.5,14.5S1.5,23.9,1.5,15.9S7.6,1.4,15,1.4"/>
<path class="st2" d="M16.5,1.7c7.2,0,13,6.5,13,14.5s-5.8,14.5-13,14.5s-13-6.5-13-14.5S9.4,1.7,16.5,1.7"/>
<g>
	<defs>
		<path id="SVGID_1_" d="M18.5,8.7c-0.7,1.2-1.4,2.4-2,3.6l2.5,5.3c1.5,0,2.7-1.2,2.8-2.6c0-1.7-2.1-5.2-2.8-6.3
			C18.9,8.5,18.8,8.5,18.5,8.7C18.6,8.6,18.6,8.6,18.5,8.7"/>
	</defs>
	<clipPath id="SVGID_2_">
		<use xlink:href="#SVGID_1_"  style="overflow:visible;"/>
	</clipPath>
	<g class="st3">
		
			<linearGradient id="SVGID_3_" gradientUnits="userSpaceOnUse" x1="-2284.7368" y1="1565.2938" x2="-2284.4976" y2="1565.2938" gradientTransform="matrix(22.0539 22.0519 12.8852 -37.7433 30234.8809 109472.6484)">
			<stop  offset="0" style="stop-color:#D3DFF2"/>
			<stop  offset="0.1717" style="stop-color:#D3DFF2"/>
			<stop  offset="0.2" style="stop-color:#D3DFF2"/>
			<stop  offset="0.2001" style="stop-color:#D9E3F4"/>
			<stop  offset="0.2007" style="stop-color:#EAE8F1"/>
			<stop  offset="0.2014" style="stop-color:#F4F0F2"/>
			<stop  offset="0.2023" style="stop-color:#FEF4F3"/>
			<stop  offset="0.205" style="stop-color:#FEF4F4"/>
			<stop  offset="0.2522" style="stop-color:#FEF4F4"/>
			<stop  offset="0.26" style="stop-color:#FEF4F4"/>
			<stop  offset="0.26" style="stop-color:#D3DFF2"/>
			<stop  offset="0.3974" style="stop-color:#D3DFF2"/>
			<stop  offset="0.42" style="stop-color:#D3DFF2"/>
			<stop  offset="0.4201" style="stop-color:#D9E3F4"/>
			<stop  offset="0.4207" style="stop-color:#EAE8F1"/>
			<stop  offset="0.4214" style="stop-color:#F4F0F2"/>
			<stop  offset="0.4223" style="stop-color:#FEF4F3"/>
			<stop  offset="0.425" style="stop-color:#FEF4F4"/>
			<stop  offset="0.4894" style="stop-color:#FEF4F4"/>
			<stop  offset="0.5" style="stop-color:#FEF4F4"/>
			<stop  offset="0.5" style="stop-color:#F7F1F3"/>
			<stop  offset="0.5001" style="stop-color:#E7E9F1"/>
			<stop  offset="0.5003" style="stop-color:#DCE4F4"/>
			<stop  offset="0.5005" style="stop-color:#D5E1F1"/>
			<stop  offset="0.501" style="stop-color:#D3DFF2"/>
			<stop  offset="0.7062" style="stop-color:#D3DFF2"/>
			<stop  offset="0.74" style="stop-color:#D3DFF2"/>
			<stop  offset="0.741" style="stop-color:#FEF4F4"/>
			<stop  offset="0.8346" style="stop-color:#FEF4F4"/>
			<stop  offset="0.85" style="stop-color:#FEF4F4"/>
			<stop  offset="0.851" style="stop-color:#D3DFF2"/>
			<stop  offset="1" style="stop-color:#D3DFF2"/>
		</linearGradient>
		<polygon class="st4" points="17.9,4.6 24.1,10.8 20.5,21.5 14.2,15.3 		"/>
	</g>
</g>
<path class="st5" d="M19.4,19.3c-0.2,2.3-2.2,4.1-4.5,3.9c-0.3,0-0.6,0-0.9-0.1c-2-0.2-3.6-1.9-3.7-3.9c0-2.1,2.4-6.4,3.7-8.5
	c0.2-0.3,0.4-0.6,0.5-0.8c0.1-0.2,0.4-0.2,0.6-0.1c0.1,0,0.1,0.1,0.1,0.1C16.2,11.7,19.4,16.9,19.4,19.3"/>
<g>
	<defs>
		<path id="SVGID_4_" d="M19.3,19.4c-0.2,2.3-2.2,4.1-4.5,3.9c-0.3,0-0.6,0-0.9-0.1c-2-0.2-3.6-1.9-3.7-3.9c0-2.1,2.4-6.4,3.7-8.5
			c0.2-0.3,0.4-0.6,0.5-0.8c0.1-0.2,0.4-0.2,0.6-0.1C15,9.9,15,10,15.1,10C16.1,11.7,19.3,16.9,19.3,19.4"/>
	</defs>
	<clipPath id="SVGID_5_">
		<use xlink:href="#SVGID_4_"  style="overflow:visible;"/>
	</clipPath>
	<g class="st6">
		
			<linearGradient id="SVGID_6_" gradientUnits="userSpaceOnUse" x1="-2296.7185" y1="1565.6991" x2="-2296.4792" y2="1565.6991" gradientTransform="matrix(30.7596 30.2454 17.9716 -51.7671 42518.6055 150530.3438)">
			<stop  offset="0" style="stop-color:#D3DFF2"/>
			<stop  offset="0.1717" style="stop-color:#D3DFF2"/>
			<stop  offset="0.2" style="stop-color:#D3DFF2"/>
			<stop  offset="0.2001" style="stop-color:#D9E3F4"/>
			<stop  offset="0.2007" style="stop-color:#EAE8F1"/>
			<stop  offset="0.2014" style="stop-color:#F4F0F2"/>
			<stop  offset="0.2023" style="stop-color:#FEF4F3"/>
			<stop  offset="0.205" style="stop-color:#FEF4F4"/>
			<stop  offset="0.2522" style="stop-color:#FEF4F4"/>
			<stop  offset="0.26" style="stop-color:#FEF4F4"/>
			<stop  offset="0.26" style="stop-color:#D3DFF2"/>
			<stop  offset="0.3974" style="stop-color:#D3DFF2"/>
			<stop  offset="0.42" style="stop-color:#D3DFF2"/>
			<stop  offset="0.4201" style="stop-color:#D9E3F4"/>
			<stop  offset="0.4207" style="stop-color:#EAE8F1"/>
			<stop  offset="0.4214" style="stop-color:#F4F0F2"/>
			<stop  offset="0.4223" style="stop-color:#FEF4F3"/>
			<stop  offset="0.425" style="stop-color:#FEF4F4"/>
			<stop  offset="0.4894" style="stop-color:#FEF4F4"/>
			<stop  offset="0.5" style="stop-color:#FEF4F4"/>
			<stop  offset="0.5" style="stop-color:#F7F1F3"/>
			<stop  offset="0.5001" style="stop-color:#E7E9F1"/>
			<stop  offset="0.5003" style="stop-color:#DCE4F4"/>
			<stop  offset="0.5005" style="stop-color:#D5E1F1"/>
			<stop  offset="0.501" style="stop-color:#D3DFF2"/>
			<stop  offset="0.7062" style="stop-color:#D3DFF2"/>
			<stop  offset="0.74" style="stop-color:#D3DFF2"/>
			<stop  offset="0.741" style="stop-color:#FEF4F4"/>
			<stop  offset="0.8346" style="stop-color:#FEF4F4"/>
			<stop  offset="0.85" style="stop-color:#FEF4F4"/>
			<stop  offset="0.851" style="stop-color:#D3DFF2"/>
			<stop  offset="1" style="stop-color:#D3DFF2"/>
		</linearGradient>
		<polygon class="st7" points="12.4,5.4 21.1,14 16,28.6 7.3,20.1 		"/>
	</g>
</g>
<path class="st8" d="M10.3,19.3c0.1,2,1.7,3.7,3.7,3.9c2-0.2,3.6-1.9,3.7-3.9c0-2.1-2.4-6.4-3.7-8.5C12.6,13,10.3,17.2,10.3,19.3"/>
<path class="st9" d="M16,0.9C8.6,0.9,2.2,6.4,1.2,13.8c0,0.3,0.2,0.5,0.4,0.6s0.5-0.2,0.6-0.4C3.2,6.3,10.3,1,18,2s13,8.1,11.9,15.8
	c-1.1,7.7-8.1,13-15.8,11.9C7.9,28.9,3,24,2.2,17.8c0-0.3-0.3-0.5-0.6-0.4S1.1,17.7,1.2,18c1.1,8.2,8.7,13.9,16.9,12.8
	c8.2-1.1,13.9-8.7,12.8-16.9C29.9,6.4,23.5,0.9,16,0.9"/>
<path class="st9" d="M1.5,15.4c0.3,0,0.5,0.2,0.5,0.5s-0.2,0.5-0.5,0.5S1,16.2,1,15.9C1,15.6,1.3,15.4,1.5,15.4
	C1.5,15.4,1.5,15.4,1.5,15.4"/>
<path class="st9" d="M22.3,14.9c0-1.8-2-5.2-2.9-6.5c-0.2-0.4-0.7-0.5-1.1-0.3c-0.1,0.1-0.2,0.2-0.3,0.3c-0.4,0.6-1,1.7-1.6,2.8
	c-0.3-0.6-0.7-1.1-0.9-1.5c-0.3-0.4-0.8-0.6-1.2-0.3c-0.1,0.1-0.2,0.2-0.3,0.3c-1.3,2-4.3,7.1-4.3,9.6c0.2,2.6,2.4,4.6,5,4.4
	c2.6,0.2,4.9-1.8,5-4.4c0-0.5-0.1-0.9-0.2-1.4C21.1,17.7,22.2,16.4,22.3,14.9 M14.8,22.8c-2.1,0.2-3.9-1.4-4-3.4c0-1.8,2.1-5.8,4-9
	c2,3.2,4,7.1,4,9C18.7,21.4,16.9,22.9,14.8,22.8 M19.4,17c-0.6-1.6-1.4-3.2-2.3-4.8c0.5-1.1,1.2-2.3,1.7-3c1.2,1.7,2.1,3.7,2.5,5.7
	C21.2,16,20.4,16.9,19.4,17"/>
<path class="st9" d="M13.1,19.6C13,19.4,13,19.1,13,18.9c0-0.3,0.1-0.7,0.2-1c0.1-0.3-0.1-0.5-0.3-0.6c-0.3-0.1-0.5,0.1-0.6,0.3
	C12,18.1,12,18.5,12,18.9c0,0.4,0.1,0.8,0.3,1.1c0.2,0.3,0.5,0.6,0.8,0.9c0.2,0.2,0.5,0.1,0.7-0.1c0.2-0.2,0.1-0.5-0.1-0.7
	C13.4,20,13.3,19.8,13.1,19.6"/>
</svg>
