<?xml version="1.0" encoding="utf-8"?>
<!-- Generator: Adobe Illustrator 23.0.0, SVG Export Plug-In . SVG Version: 6.00 Build 0)  -->
<svg version="1.1" id="Layer_1" xmlns="http://www.w3.org/2000/svg" xmlns:xlink="http://www.w3.org/1999/xlink" x="0px" y="0px"
	 width="32px" height="32px" viewBox="0 0 32 32" style="enable-background:new 0 0 32 32;" xml:space="preserve">
<style type="text/css">
	.st0{fill:#CCD7EE;}
	.st1{fill:#E7EBF6;}
	.st2{fill:#86A8D7;}
	.st3{fill:#A7BFE3;}
	.st4{fill:#F4F5F5;}
	.st5{fill:#2D3039;}
	.st6{fill:#FFFFFF;}
	.st7{fill:#5B84C3;}
</style>
<title>dongacquy</title>
<rect x="2.3" y="11.1" class="st0" width="27.5" height="17"/>
<rect x="2.3" y="11.1" class="st1" width="25.9" height="17"/>
<path class="st1" d="M6.4,3.1c0.6,0,1,0.4,1,1c0,0,0,0,0,0v1.5h-2V4.1C5.4,3.6,5.9,3.1,6.4,3.1"/>
<path class="st1" d="M25.7,3.1c0.6,0,1,0.4,1,1c0,0,0,0,0,0v1.5h-2V4.1C24.7,3.6,25.2,3.1,25.7,3.1C25.7,3.1,25.7,3.1,25.7,3.1"/>
<path class="st0" d="M21.7,4.1v3.5h-1.5V4.1c0-0.7-0.3-1.3-0.7-1.8c-0.5-0.5-1.1-0.7-1.8-0.7h1.5c0.7,0,1.3,0.3,1.8,0.7
	C21.4,2.8,21.7,3.5,21.7,4.1"/>
<path class="st1" d="M20.1,4.1v3.5h-0.5v-3c0-0.6-0.5-1-1-1h-5.1c-0.6,0-1,0.4-1,1v3h-2V4.1c0-1.4,1.2-2.5,2.5-2.5h4.6
	c0.7,0,1.3,0.3,1.8,0.7C19.9,2.8,20.1,3.5,20.1,4.1"/>
<path class="st2" d="M29.8,7.1v2.5H2.3V7.1c0-0.3,0.2-0.5,0.5-0.5c0,0,0,0,0,0h26.4C29.6,6.6,29.8,6.9,29.8,7.1
	C29.8,7.1,29.8,7.1,29.8,7.1"/>
<path class="st3" d="M28.3,7.1v2.5H2.3V7.1c0-0.3,0.2-0.5,0.5-0.5c0,0,0,0,0,0h24.9C28,6.6,28.3,6.9,28.3,7.1
	C28.3,7.1,28.3,7.1,28.3,7.1"/>
<path class="st2" d="M7.9,5.6v4H4.9v-4c0-0.3,0.2-0.5,0.5-0.5h2C7.7,5.1,7.9,5.4,7.9,5.6"/>
<path class="st3" d="M6.4,5.6v4H4.9v-4c0-0.3,0.2-0.5,0.5-0.5h0.5C6.2,5.1,6.4,5.4,6.4,5.6"/>
<path class="st2" d="M27.3,5.6v4h-3.1v-4c0-0.3,0.2-0.5,0.5-0.5h2C27,5.1,27.2,5.4,27.3,5.6C27.3,5.6,27.3,5.6,27.3,5.6"/>
<path class="st3" d="M25.7,5.6v4h-1.5v-4c0-0.3,0.2-0.5,0.5-0.5h0.5C25.5,5.1,25.7,5.4,25.7,5.6"/>
<path class="st0" d="M2.3,8.6h27.5c0.6,0,1,0.4,1,1c0,0,0,0,0,0v1.5c0,0.6-0.5,1-1,1H2.3c-0.6,0-1-0.4-1-1c0,0,0,0,0,0V9.6
	C1.3,9.1,1.8,8.6,2.3,8.6"/>
<path class="st0" d="M2.3,27.1h27.5c0.6,0,1,0.4,1,1c0,0,0,0,0,0v1.5c0,0.6-0.5,1-1,1H2.3c-0.6,0-1-0.4-1-1c0,0,0,0,0,0v-1.5
	C1.3,27.5,1.8,27.1,2.3,27.1"/>
<path class="st1" d="M2.3,8.6h25.9c0.6,0,1,0.4,1,1c0,0,0,0,0,0v1.5c0,0.6-0.5,1-1,1H2.3c-0.6,0-1-0.4-1-1c0,0,0,0,0,0V9.6
	C1.3,9.1,1.8,8.6,2.3,8.6"/>
<path class="st1" d="M2.3,27.1h25.9c0.6,0,1,0.4,1,1c0,0,0,0,0,0v1.5c0,0.6-0.5,1-1,1H2.3c-0.6,0-1-0.4-1-1c0,0,0,0,0,0v-1.5
	C1.3,27.5,1.8,27.1,2.3,27.1"/>
<path class="st1" d="M10,16.6v1c0,0.3-0.2,0.5-0.5,0.5c0,0,0,0,0,0h-1v1c0,0.3-0.2,0.5-0.5,0.5h-1c-0.1,0-0.2,0-0.3-0.1
	c-0.2-0.1-0.3-0.3-0.3-0.4v-1h-1c-0.3,0-0.5-0.2-0.5-0.5v-1c0-0.3,0.2-0.5,0.5-0.5h1v-1c0-0.2,0.1-0.3,0.3-0.4
	c0.1,0,0.2-0.1,0.3-0.1h1c0.3,0,0.5,0.2,0.5,0.5v1h1C9.7,16.1,10,16.3,10,16.6C10,16.6,10,16.6,10,16.6"/>
<path class="st1" d="M22.7,16.1h4.1c0.3,0,0.5,0.2,0.5,0.5v1c0,0.3-0.2,0.5-0.5,0.5c0,0,0,0,0,0h-4.1c-0.3,0-0.5-0.2-0.5-0.5v-1
	C22.2,16.3,22.4,16.1,22.7,16.1"/>
<path class="st0" d="M18.9,19.4l-4.4,5.2l1.5-4.5h-2.4c-0.2,0-0.3-0.1-0.4-0.2c-0.1-0.1-0.1-0.3-0.1-0.4l1.2-4
	c0.1-0.2,0.3-0.4,0.5-0.4h2c0.2,0,0.3,0.1,0.4,0.2c0.1,0.1,0.1,0.3,0.1,0.4L16.7,18c0,0.2,0,0.3,0.1,0.4c0.1,0.1,0.2,0.2,0.4,0.2
	h1.3c0.2,0,0.4,0.1,0.5,0.3C19.1,19.1,19.1,19.3,18.9,19.4"/>
<path class="st4" d="M8.4,16.6v1c0,0.3-0.2,0.5-0.5,0.5c0,0,0,0,0,0v1h-1c0,0.2-0.1,0.3-0.3,0.4c-0.2-0.1-0.3-0.3-0.3-0.4v-1h-1
	c-0.3,0-0.5-0.2-0.5-0.5v-1c0-0.3,0.2-0.5,0.5-0.5h1v-1c0-0.2,0.1-0.3,0.3-0.4c0.2,0.1,0.3,0.3,0.3,0.4h1v1c0.1,0,0.3,0.1,0.4,0.1
	C8.4,16.3,8.4,16.5,8.4,16.6"/>
<path class="st4" d="M22.7,16.1h2.5c0.3,0,0.5,0.2,0.5,0.5v1c0,0.3-0.2,0.5-0.5,0.5c0,0,0,0,0,0h-2.5c-0.3,0-0.5-0.2-0.5-0.5v-1
	C22.2,16.3,22.4,16.1,22.7,16.1"/>
<path class="st1" d="M17.4,19.4l-1.8,2.2l0.5-1.5h-2.4c-0.2,0-0.3-0.1-0.4-0.2c-0.1-0.1-0.1-0.3-0.1-0.4l1.2-4
	c0.1-0.2,0.3-0.4,0.5-0.4h0.5c0.2,0,0.3,0.1,0.4,0.2c0.1,0.1,0.1,0.3,0.1,0.4L15.2,18c0,0.2,0,0.3,0.1,0.4c0.1,0.1,0.2,0.2,0.4,0.2
	H17c0.2,0,0.4,0.1,0.5,0.3C17.6,19.1,17.5,19.3,17.4,19.4"/>
<path class="st5" d="M5.4,25.6h-1c-0.3,0-0.5-0.2-0.5-0.5c0-0.3,0.2-0.5,0.5-0.5c0,0,0,0,0,0h1c0.3,0,0.5,0.2,0.5,0.5
	C5.9,25.4,5.7,25.6,5.4,25.6C5.4,25.6,5.4,25.6,5.4,25.6"/>
<path class="st5" d="M11,25.6H7.4c-0.3,0-0.5-0.2-0.5-0.5c0-0.3,0.2-0.5,0.5-0.5c0,0,0,0,0,0H11c0.3,0,0.5,0.2,0.5,0.5
	C11.5,25.4,11.3,25.6,11,25.6C11,25.6,11,25.6,11,25.6"/>
<path class="st6" d="M10.5,4.1v2.5H12V4.1c0-1.4,1.2-2.5,2.5-2.5H13C11.6,1.6,10.5,2.7,10.5,4.1"/>
<path class="st6" d="M4.9,5.6v1h1.5v-1c0-0.3,0.2-0.5,0.5-0.5v-1c0-0.2,0.1-0.5,0.3-0.7C6.9,3.2,6.4,3.1,6.1,3.2
	C5.7,3.3,5.4,3.7,5.4,4.1v1C5.1,5.1,4.9,5.4,4.9,5.6"/>
<path class="st6" d="M2.3,30.6h1.5c-0.6,0-1-0.4-1-1v-2.5H2.3c-0.6,0-1,0.4-1,1v1.5C1.3,30.1,1.8,30.6,2.3,30.6"/>
<rect x="2.3" y="12.1" class="st6" width="1.5" height="15"/>
<path class="st6" d="M2.9,11.1V9.6c0-0.6,0.5-1,1-1V7.1c0-0.3,0.2-0.5,0.5-0.5c0,0,0,0,0,0H2.9c-0.3,0-0.5,0.2-0.5,0.5v1.5
	c-0.6,0-1,0.4-1,1v1.5c0,0.6,0.5,1,1,1h0.5L2.9,11.1L2.9,11.1z"/>
<path class="st6" d="M14.2,24.3l4.2-5l0.1-0.1l0-0.1h-1.4c-0.5,0-0.9-0.3-1-0.8c0-0.1,0-0.2,0-0.3c0-0.1,0-0.1,0-0.2l0-0.1l0.1-0.3
	l0.4-1.3l0.1-0.3l0.1-0.2c0,0,0,0,0,0c0,0,0,0,0,0h-2c-0.1,0,0,0,0,0l-0.4,1.3l-0.8,2.6c0,0.2,0,0.1,0,0.1c0,0,0,0,0,0h3
	c0,0,0.1,0,0.1,0l-0.4,1.3l-0.4,1.3L15,24.7l-1-0.3l1.3-3.8h-1.7l-0.1,0c-0.1,0-0.2,0-0.3-0.1c-0.3-0.1-0.6-0.4-0.6-0.8
	c0-0.1,0-0.2,0-0.3c0-0.1,0-0.1,0-0.2l0.1-0.2l0.6-2l0.3-1l0.2-0.5l0.1-0.3c0.1-0.3,0.4-0.6,0.7-0.7c0.1,0,0.2,0,0.2,0h2
	c0.6,0,1,0.5,1,1c0,0.1,0,0.2,0,0.3l0,0.1l-0.1,0.2l-0.2,0.5l-0.3,1L17.2,18l0,0.1v0c0,0,0,0,0,0h1.3c0.3,0,0.7,0.2,0.9,0.5
	c0.2,0.3,0.2,0.7,0.1,1c0,0.1-0.1,0.1-0.1,0.2l-0.1,0.1l-0.1,0.1l0,0l0,0L19,20.1l-0.5,0.6l-3.6,4.2L14.2,24.3z"/>
<path class="st6" d="M2.3,11.6h27c0.3,0,0.7,0,1,0v15.9c0,0,0,0.1,0,0.1H2.3v-1h26.9v-14H2.3V11.6z"/>
<polygon class="st6" points="2.9,12.1 2.9,18.6 2.9,27.1 1.8,27.1 1.8,18.6 1.8,12.1 "/>
<path class="st7" d="M12.7,19.8C12.7,19.8,12.7,19.8,12.7,19.8c0,0.1,0,0.2,0.1,0.2c0,0,0,0,0,0.1c0,0,0,0.1,0.1,0.1c0,0,0,0,0,0
	l0,0c0,0,0.1,0.1,0.1,0.1l0,0c0,0,0,0,0.1,0c0,0,0.1,0.1,0.1,0.1c0,0,0.1,0,0.1,0c0,0,0.1,0,0.1,0c0,0,0,0,0.1,0c0.1,0,0.1,0,0.2,0
	h1.7l-0.8,2.3l-0.5,1.5c-0.1,0.2,0,0.5,0.2,0.6c0.2,0.1,0.5,0.1,0.6-0.1l1.3-1.5l3.1-3.6l0,0l0,0c0,0,0.1-0.1,0.1-0.1c0,0,0,0,0-0.1
	c0,0,0,0,0-0.1c0-0.1,0-0.1,0.1-0.2c0,0,0,0,0-0.1c0-0.1,0-0.1,0-0.2c0,0,0,0,0,0v0c0-0.1,0-0.2-0.1-0.2c0,0,0,0,0,0l0,0
	c0-0.1-0.1-0.1-0.1-0.2c0,0,0,0-0.1,0c0,0-0.1-0.1-0.1-0.1c0,0,0,0,0,0c-0.1,0-0.1-0.1-0.2-0.1l0,0c-0.1,0-0.1,0-0.2,0h0l0,0h-1.3
	l0,0l0.7-2.2l0,0c0-0.1,0-0.1,0-0.2c0,0,0-0.1,0-0.1l0,0c0,0,0-0.1,0-0.1c0,0,0,0,0,0c0-0.1,0-0.1-0.1-0.2c0,0,0,0,0-0.1
	c0,0,0-0.1-0.1-0.1c0,0,0,0,0,0c0,0,0,0,0,0c0,0-0.1-0.1-0.1-0.1c0,0,0,0-0.1-0.1c0,0-0.1-0.1-0.1-0.1c0,0,0,0-0.1,0
	c0,0-0.1,0-0.1,0c0,0,0,0-0.1,0l0,0c-0.1,0-0.1,0-0.2,0h-2c-0.1,0-0.2,0-0.3,0c0,0,0,0-0.1,0c-0.1,0-0.2,0.1-0.2,0.1c0,0,0,0,0,0
	c-0.1,0.1-0.1,0.1-0.2,0.2c0,0,0,0,0,0C14,15.1,14,15.2,14,15.3l0,0l-1.2,3.9c0,0,0,0.1,0,0.1v0c0,0.1,0,0.1,0,0.2c0,0,0,0,0,0.1
	C12.7,19.6,12.7,19.7,12.7,19.8 M15.6,15.6h1.3l-0.7,2.2v0c0,0,0,0.1,0,0.1c0,0,0,0,0,0.1c0,0,0,0.1,0,0.1c0,0.1,0,0.1,0,0.2
	c0,0,0,0,0,0c0,0.1,0,0.1,0.1,0.2l0,0c0,0.1,0.1,0.1,0.1,0.2c0,0,0,0,0,0c0,0,0,0,0,0c0,0.1,0.1,0.1,0.1,0.1c0,0,0,0,0.1,0
	c0,0,0.1,0.1,0.1,0.1c0,0,0,0,0.1,0c0,0,0.1,0,0.2,0.1l0,0c0.1,0,0.1,0,0.2,0h1.4l0,0.1l-0.1,0.1l-0.3,0.4l-1.3,1.5l-0.9,1l0,0
	l0.2-0.4l0.5-1.5l0.2-0.6c0,0,0,0-0.1,0h-3l0,0c0,0,0-0.1,0-0.1l1.2-3.9c0,0,0,0,0,0L15.6,15.6L15.6,15.6z"/>
<path class="st7" d="M2.3,16.6c0.1,0,0.3-0.1,0.4-0.1c0.2-0.2,0.2-0.5,0-0.7c0,0,0,0,0,0l-0.1-0.1c0,0-0.1,0-0.1,0c0,0-0.1,0-0.1,0
	c0,0-0.1,0-0.1,0c-0.1,0-0.3,0.1-0.4,0.1c0,0-0.1,0.1-0.1,0.2c-0.1,0.2,0,0.4,0.1,0.5c0,0,0.1,0.1,0.2,0.1
	C2.2,16.6,2.3,16.6,2.3,16.6"/>
<path class="st7" d="M30.3,8.2V7.1c0-0.6-0.5-1-1-1h-1.5V5.6c0-0.4-0.2-0.7-0.5-0.9V4.1c0-0.8-0.7-1.5-1.6-1.5
	c-0.8,0-1.5,0.7-1.5,1.5v0.6c-0.3,0.2-0.5,0.5-0.5,0.9v0.5h-1.5v-2c0-1.7-1.4-3-3.1-3H13c-1.7,0-3,1.3-3.1,3v2H8.4V5.6
	c0-0.4-0.2-0.7-0.5-0.9V4.1c0-0.8-0.7-1.5-1.6-1.5c-0.8,0-1.5,0.7-1.5,1.5v0.6C4.6,5,4.4,5.3,4.4,5.6v0.5H2.9c-0.6,0-1,0.4-1,1
	c0,0,0,0,0,0v1.1c-0.6,0.2-1,0.8-1,1.4v1.5c0,0.6,0.4,1.2,1,1.4v1.6c0,0.3,0.2,0.5,0.5,0.5c0.3,0,0.5-0.2,0.5-0.5v-1.5h26.4v14H2.9
	v-8.5c0-0.3-0.2-0.5-0.5-0.5c-0.3,0-0.5,0.2-0.5,0.5v8.6c-0.6,0.2-1,0.8-1,1.4v1.5c0,0.8,0.7,1.5,1.5,1.5c0,0,0,0,0,0h27.5
	c0.8,0,1.5-0.7,1.5-1.5c0,0,0,0,0,0v-1.5c0-0.6-0.4-1.2-1-1.4V12.5c0.6-0.2,1-0.8,1-1.4V9.6C31.3,9,30.9,8.4,30.3,8.2 M29.3,8.1
	h-1.5v-1h1.5V8.1z M24.7,5.6h2v2.5h-2V5.6z M25.2,4.1c0-0.3,0.2-0.5,0.5-0.5c0.3,0,0.5,0.2,0.5,0.5v0.5h-1V4.1z M11,4.1
	c0-1.1,0.9-2,2-2c0,0,0,0,0,0h6.1c1.1,0,2,0.9,2,2v2h-1V4.6c0-0.8-0.7-1.5-1.5-1.5c0,0,0,0,0,0h-5.1c-0.8,0-1.5,0.7-1.5,1.5
	c0,0,0,0,0,0v1.5h-1L11,4.1z M19.1,6.1H13V4.6c0-0.3,0.2-0.5,0.5-0.5c0,0,0,0,0,0h5.1c0.3,0,0.5,0.2,0.5,0.5L19.1,6.1L19.1,6.1z
	 M10.5,7.1h13.2v1H8.4v-1L10.5,7.1z M5.4,5.6h2v2.5h-2V5.6z M5.9,4.1c0-0.3,0.2-0.5,0.5-0.5c0.3,0,0.5,0.2,0.5,0.5v0.5h-1L5.9,4.1z
	 M2.9,7.1h1.5v1H2.9V7.1z M30.3,29.6c0,0.3-0.2,0.5-0.5,0.5H2.3c-0.3,0-0.5-0.2-0.5-0.5v-1.5c0-0.3,0.2-0.5,0.5-0.5c0,0,0,0,0,0
	h27.5c0.3,0,0.5,0.2,0.5,0.5L30.3,29.6z M30.3,11.1c0,0.3-0.2,0.5-0.5,0.5c-0.2,0-0.3,0-0.5,0h-27c-0.3,0-0.5-0.2-0.5-0.5V9.6
	c0-0.3,0.2-0.5,0.5-0.5h27.5c0.3,0,0.5,0.2,0.5,0.5L30.3,11.1z"/>
<path class="st7" d="M7.9,14.1h-1c-0.6,0-1,0.4-1,1c0,0,0,0,0,0v0.5H5.4c-0.6,0-1,0.4-1,1c0,0,0,0,0,0v1c0,0.6,0.5,1,1,1h0.5v0.5
	c0,0.6,0.5,1,1,1c0,0,0,0,0,0h1c0.6,0,1-0.4,1-1c0,0,0,0,0,0v-0.5h0.5c0.6,0,1-0.4,1-1c0,0,0,0,0,0v-1c0-0.6-0.5-1-1-1c0,0,0,0,0,0
	H9v-0.5C8.9,14.6,8.5,14.1,7.9,14.1C7.9,14.1,7.9,14.1,7.9,14.1 M9.5,16.6v1h-1c-0.3,0-0.5,0.2-0.5,0.5v1h-1v-1
	c0-0.3-0.2-0.5-0.5-0.5c0,0,0,0,0,0h-1v-1h1c0.3,0,0.5-0.2,0.5-0.5v-1h1v1c0,0.3,0.2,0.5,0.5,0.5c0,0,0,0,0,0L9.5,16.6L9.5,16.6z"/>
<path class="st7" d="M26.7,18.6c0.6,0,1-0.4,1-1c0,0,0,0,0,0v-1c0-0.6-0.5-1-1-1h-4.1c-0.6,0-1,0.4-1,1c0,0,0,0,0,0v1
	c0,0.6,0.5,1,1,1c0,0,0,0,0,0H26.7z M22.7,16.6h4.1v1h-4.1V16.6z"/>
<path class="st7" d="M3.9,25.1c0,0.3,0.2,0.5,0.5,0.5c0,0,0,0,0,0h1c0.3,0,0.5-0.2,0.5-0.5c0-0.3-0.2-0.5-0.5-0.5c0,0,0,0,0,0h-1
	C4.1,24.6,3.9,24.8,3.9,25.1C3.9,25.1,3.9,25.1,3.9,25.1"/>
<path class="st7" d="M6.9,25.1c0,0.3,0.2,0.5,0.5,0.5c0,0,0,0,0,0H11c0.3,0,0.5-0.2,0.5-0.5c0-0.3-0.2-0.5-0.5-0.5c0,0,0,0,0,0H7.4
	C7.1,24.6,6.9,24.8,6.9,25.1C6.9,25.1,6.9,25.1,6.9,25.1"/>
</svg>
