<?xml version="1.0" encoding="utf-8"?>
<!-- Generator: Adobe Illustrator 23.0.0, SVG Export Plug-In . SVG Version: 6.00 Build 0)  -->
<svg version="1.1" id="Layer_1" xmlns="http://www.w3.org/2000/svg" xmlns:xlink="http://www.w3.org/1999/xlink" x="0px" y="0px"
	 width="32px" height="32px" viewBox="0 0 32 32" style="enable-background:new 0 0 32 32;" xml:space="preserve">
<style type="text/css">
	.st0{fill:#A7BFE3;}
	.st1{fill:#E2E5F0;}
	.st2{fill:#FFFFFF;}
	.st3{fill:#5B84C3;}
</style>
<title>khoi</title>
<path class="st0" d="M19.9,3.5v1.3c0,0.9-0.7,1.6-1.6,1.6c0,0,0,0,0,0h-4.7c-0.9,0-1.6-0.7-1.6-1.6c0,0,0,0,0,0V3.5H19.9z"/>
<path class="st0" d="M22.9,24.2c0-1.4-0.4-2.7-1.1-3.9c-0.8-1.2-1.7-2.3-2.7-3.3c-1.2-1.2-2.1-3.3-0.5-4.6c0,0-1-0.3-1-0.3
	c-0.7-0.2-1.4-0.2-2.1-0.1h0c-0.1,0-0.2,0-0.2,0c-2.1,0.6-3.3,2.7-2.8,4.8c0,0.1,0.1,0.2,0.1,0.4c-0.5-0.1-1-0.1-1.5-0.1
	c-0.1,0-0.2,0-0.3,0c-0.6,0.1-1.1,0.4-1.6,0.8C9,18,9,18.2,9.1,18.4c0.1,0.1,0.1,0.1,0.2,0.1c0.3,0.1,0.6,0.2,0.9,0.3
	c0.8,0.2,1.3,0.9,1.3,1.7c-0.1,0.4-0.4,0.8-0.8,1.1c-0.9,1-1.4,2.2-1.4,3.5c0,3,2.7,5.4,6.1,5.7c0.2,0,0.5,0,0.7,0
	c1.9,0,3.7-0.6,5.1-1.9c1.1-1,1.7-2.4,1.8-3.8C22.9,24.8,22.9,24.5,22.9,24.2"/>
<path class="st1" d="M21.4,24.2c0-1.4-0.4-2.7-1.1-3.9c-0.8-1.2-1.7-2.3-2.7-3.3c-1.2-1.2-2.1-3.3-0.5-4.6c0,0-1-0.3-1-0.3
	C15.8,12,15.6,12,15.4,12h0c-0.1,0-0.2,0-0.2,0c-2.1,0.6-3.3,2.7-2.8,4.8c0,0.1,0.1,0.2,0.1,0.4c-0.5-0.1-1-0.1-1.5-0.1
	c0,0,0,0.1,0,0.1c-0.1,0-0.2,0-0.4-0.1c-0.6,0.1-1.1,0.4-1.6,0.8C9,18,9,18.1,9,18.2c0,0.1,0.1,0.2,0.3,0.2c0.3,0.1,0.6,0.2,0.9,0.3
	c0.8,0.2,1.3,0.9,1.3,1.7c-0.1,0.4-0.4,0.8-0.8,1.1c-0.9,1-1.4,2.2-1.4,3.5c0,3,2.7,5.4,6.1,5.7c1.6-0.1,3.1-0.8,4.3-1.8
	c1.1-1,1.7-2.4,1.8-3.8C21.4,24.8,21.4,24.5,21.4,24.2"/>
<path class="st0" d="M20.9,2v1.5c0,0.3-0.2,0.5-0.5,0.5c0,0,0,0,0,0h-9C11.2,4,11,3.7,11,3.5V2H20.9z"/>
<path class="st1" d="M18.4,3.5v1.3c0,0.9-0.7,1.6-1.6,1.6c0,0,0,0,0,0h-3.2c-0.9,0-1.6-0.7-1.6-1.6c0,0,0,0,0,0V4h-0.5
	C11.2,4,11,3.7,11,3.5H18.4z"/>
<path class="st1" d="M19.4,2v1.5c0,0.3-0.2,0.5-0.5,0.5c0,0,0,0,0,0h-7.5C11.2,4,11,3.7,11,3.5V2H19.4z"/>
<path class="st1" d="M18.6,30.4c-0.8,0.3-1.6,0.4-2.5,0.4c-0.3,0-0.6,0-0.8,0v0c-1.6-0.7-3.2-1.9-3.3-3.5c0-0.8,0.4-1.6,1.1-2.1
	c0.5-0.4,1.1-0.7,1.6-1.1c0.5-0.4,0.8-0.9,1-1.4c0.1-0.6,0.1-1.3,0.1-2c0,0,0.2,0.2,0.3,0.2c0.8,0.5,1.4,1.3,1.7,2.3
	c0,0.2,0.1,0.3,0.1,0.5l0,0c0,0.9-0.4,1.8-1,2.5c0,0,0.4,0.2,0.5,0.2c0.5,0.1,1.1,0.1,1.6-0.2c0.2-0.1,0.3-0.2,0.4-0.4
	c0.1-0.2,0.2-0.3,0.2-0.5c0,0,0.2,0.2,0.2,0.3c0.1,0.1,0.2,0.3,0.2,0.4c0.1,0.2,0.2,0.5,0.3,0.7C20.7,28.2,19.9,29.7,18.6,30.4"/>
<path class="st2" d="M16.7,12c0.1,0,0.1,0,0.2,0c-0.5-0.1-1-0.1-1.5,0h0c-0.1,0-0.2,0-0.2,0c-2.1,0.6-3.3,2.7-2.8,4.8
	c0,0.1,0.1,0.2,0.1,0.3c0.5,0,1,0,1.5,0.1c-0.8-2,0.3-4.3,2.3-5C16.4,12.1,16.6,12.1,16.7,12"/>
<path class="st2" d="M9.1,17.9C9,18,9,18.1,9,18.2c0,0.1,0.1,0.2,0.3,0.2c0.3,0.1,0.6,0.2,0.9,0.3c0.8,0.2,1.3,0.9,1.3,1.7
	c-0.1,0.4-0.4,0.8-0.8,1.1c-0.9,1-1.4,2.2-1.4,3.5c0,2.9,2.6,5.4,6,5.7v0c0,0,0,0,0.1,0h0c0.2,0,0.5,0,0.7,0c0.2,0,0.5,0,0.7,0
	c0,0,0,0,0.1,0c0,0,0,0-0.1,0v0c-3.4-0.3-6-2.8-6-5.7c0-1.3,0.5-2.6,1.4-3.5c0.4-0.3,0.6-0.7,0.8-1.1c0-0.8-0.5-1.5-1.3-1.7
	c-0.3-0.1-0.6-0.2-0.9-0.3c-0.1,0-0.2-0.1-0.3-0.2c0-0.1,0-0.3,0.1-0.3c0.4-0.4,1-0.7,1.6-0.8c-0.4-0.1-0.8-0.1-1.2,0
	c-0.1,0-0.2,0-0.3,0C10.1,17.2,9.5,17.5,9.1,17.9"/>
<path class="st2" d="M11,2v1.5C11,3.7,11.2,4,11.5,4H12v0.9c0,0.9,0.7,1.6,1.6,1.6c0,0,0,0,0,0h1.5c-0.9,0-1.6-0.7-1.6-1.6
	c0,0,0,0,0,0V4H13c-0.3,0-0.5-0.2-0.5-0.5V2H11z"/>
<path class="st3" d="M8.8,17.5c-0.2,0.2-0.3,0.5-0.2,0.8c0.1,0.3,0.3,0.5,0.6,0.6c0.4,0.1,0.8,0.2,0.8,0.2c0.5,0.2,1.1,0.7,1,1.2
	c-0.1,0.3-0.3,0.6-0.6,0.8l0,0c-0.4,0.4-0.7,0.9-1,1.4c-0.4,0.8-0.6,1.6-0.6,2.5c0,3.4,3.3,6.2,7.4,6.2c0.9,0,1.7-0.1,2.6-0.4
	c0,0,0,0,0.1,0c1-0.3,2-0.9,2.8-1.6c1.2-1.1,1.9-2.6,1.9-4.2c0-0.3,0-0.7,0-1c0-1.4-0.4-2.9-1.1-4.1c-0.8-1.2-1.7-2.4-2.8-3.4
	c-0.7-0.7-1.2-1.6-1.2-2.6c0-0.5,0.3-1,0.6-1.3c0.2-0.2,0.2-0.5,0.1-0.7C18.9,12,18.8,12,18.6,12c-0.1,0-0.3-0.1-0.6-0.2
	c-0.2-0.1-0.4-0.1-0.4-0.1c-0.8-0.2-1.7-0.3-2.6-0.1c-1.1,0.2-2,0.9-2.6,1.8c-0.6,1-0.8,2.1-0.6,3.2C10.8,16.4,9.6,16.8,8.8,17.5
	 M15.4,30.3c-0.7-0.3-2.9-1.4-2.9-3c0-0.7,0.4-1.3,0.9-1.7c0.2-0.2,0.5-0.4,0.8-0.5c0.3-0.2,0.6-0.4,0.9-0.6c0.6-0.4,1-1,1.2-1.7
	c0.1-0.4,0.1-0.7,0.1-1.1c0.5,0.4,0.8,1,1,1.6c0,0.1,0.1,0.3,0.1,0.5c0,0.8-0.3,1.5-0.9,2.2c-0.1,0.1-0.1,0.3-0.1,0.5
	c0,0.1,0.1,0.3,0.8,0.5c0.2,0.1,0.5,0.1,0.7,0.1c0.5,0,0.9-0.1,1.3-0.3c0.2-0.1,0.3-0.2,0.4-0.3c0.1,0.2,0.1,0.4,0.2,0.5
	c0.2,1.3-0.4,2.5-1.5,3.1c-0.7,0.2-1.5,0.4-2.3,0.4C15.9,30.3,15.7,30.3,15.4,30.3 M12.4,17.7c0.3,0.1,0.5-0.1,0.6-0.4
	c0-0.1,0-0.2,0-0.2c-0.3-1.1-0.2-2.2,0.3-3.2c0.4-0.7,1.1-1.2,2-1.4c0.7-0.1,1.4-0.1,2.1,0.1c0,0,0.1,0,0.3,0.1
	c-0.3,0.4-0.4,0.9-0.4,1.4c0,1.3,0.6,2.5,1.5,3.4c1,0.9,1.9,2,2.7,3.1c0.6,1.1,1,2.4,1,3.7c0,0.3,0,0.6,0,0.9c0,1.3-0.6,2.6-1.6,3.5
	c0,0,0,0-0.1,0c0.3-0.7,0.3-1.4,0.1-2.1c-0.1-0.3-0.2-0.6-0.3-0.8c-0.1-0.2-0.2-0.3-0.3-0.5c0,0-0.1-0.1-0.1-0.1
	c0,0-0.1-0.1-0.1-0.1c-0.2-0.2-0.5-0.3-0.7-0.1c-0.1,0.1-0.1,0.1-0.2,0.2c0,0.1-0.1,0.1-0.1,0.2c0,0.1,0,0.1-0.1,0.2
	c-0.1,0.1-0.2,0.2-0.3,0.2c-0.3,0.2-0.7,0.2-1.1,0.2c0.5-0.7,0.7-1.5,0.7-2.3c0-0.2-0.1-0.4-0.1-0.6c-0.3-1.1-1-2-1.9-2.6
	c0,0,0,0-0.1,0c0,0-0.1,0-0.1,0c-0.1-0.1-0.2-0.2-0.4-0.2c-0.3,0-0.5,0.2-0.5,0.5c0,0,0,0,0,0c0,0.2,0,0.4,0,0.6
	c0,0.4,0,0.9-0.1,1.3c-0.1,0.5-0.4,0.9-0.8,1.2c-0.2,0.2-0.5,0.4-0.8,0.5c-0.3,0.2-0.6,0.4-0.9,0.6c-0.8,0.6-1.2,1.5-1.3,2.5
	c0,0.7,0.3,1.4,0.8,2c-1.5-0.9-2.5-2.5-2.6-4.2c0-0.7,0.2-1.4,0.5-2c0.2-0.4,0.5-0.8,0.8-1.1l0,0c0.4-0.3,0.7-0.8,0.8-1.3
	c0.1-1-0.6-2-1.6-2.3c-0.1,0-0.4-0.1-0.7-0.2C10.5,17.5,11.5,17.4,12.4,17.7"/>
<path class="st3" d="M30.4,1.5H1.5C1.2,1.5,1,1.7,1,2s0.2,0.5,0.5,0.5l0,0h9v1c0,0.5,0.4,1,1,1V5c0,1.1,0.9,2,2,2c0,0,0,0,0,0h2v0.5
	c-0.3,0-0.5,0.2-0.5,0.5c0,0.3,0.2,0.5,0.5,0.5h1c0.3,0,0.5-0.2,0.5-0.5c0-0.3-0.2-0.5-0.5-0.5V6.9h2c1.1,0,2-0.9,2-2c0,0,0,0,0,0
	V4.5c0.5,0,1-0.4,1-1v-1h9c0.3,0,0.5-0.2,0.5-0.5C30.9,1.7,30.7,1.5,30.4,1.5 M19.4,5c0,0.5-0.4,1-1,1h-5c-0.5,0-1-0.4-1-1V4.5h7
	L19.4,5z M20.4,3.5h-9v-1h9V3.5z"/>
</svg>
