<?xml version="1.0" encoding="utf-8"?>
<!-- Generator: Adobe Illustrator 23.0.0, SVG Export Plug-In . SVG Version: 6.00 Build 0)  -->
<svg version="1.1" id="Layer_1" xmlns="http://www.w3.org/2000/svg" xmlns:xlink="http://www.w3.org/1999/xlink" x="0px" y="0px"
	 width="32px" height="32px" viewBox="0 0 32 32" style="enable-background:new 0 0 32 32;" xml:space="preserve">
<style type="text/css">
	.st0{fill:#A8C0E4;}
	.st1{fill:#E3E7F2;}
	.st2{fill:#7F8D8D;}
	.st3{fill:#FFFFFF;}
	.st4{fill:#5B84C3;}
</style>
<title>mayphat</title>
<path class="st0" d="M30.6,28.1h-4v-2h0.5c0.3,0,0.5-0.2,0.5-0.5V7.9h2l1-5h-3.5c-2.2,0-4,1.8-4,4c0,0,0,0,0,0v3h-6V8.4
	c0-1.7-1.4-3-3-3h-1V4.9h-6v0.5H1.4v2h1.5v2.5h-1c-0.3,0-0.5,0.2-0.5,0.5v15.1c0,0.3,0.2,0.5,0.5,0.5h0.5v2h-1
	c-0.3,0-0.5,0.2-0.5,0.5c0,0.3,0.2,0.5,0.5,0.5c0,0,0,0,0,0h29.2c0.3,0,0.5-0.2,0.5-0.5C31.1,28.3,30.9,28.1,30.6,28.1 M13,9.9H3.9
	V7.4h3v0.5h6V9.9z"/>
<path class="st1" d="M29.1,28.1h-4v-2h0.5c0.3,0,0.5-0.2,0.5-0.5V7.9h2l1-5h-2c-2.2,0-4,1.8-4,4v3h-7.6V8.4c0-1.7-1.4-3-3-3h-1V4.9
	h-6v0.5h-4v2h4v0.5H13v2H1.9c-0.3,0-0.5,0.2-0.5,0.5v15.1c0,0.3,0.2,0.5,0.5,0.5h0.5v2h-1c-0.3,0-0.5,0.2-0.5,0.5
	c0,0.3,0.2,0.5,0.5,0.5c0,0,0,0,0,0h27.7c0.3,0,0.5-0.2,0.5-0.5C29.6,28.3,29.4,28.1,29.1,28.1"/>
<rect x="2.4" y="26.1" class="st1" width="24.2" height="2.5"/>
<path class="st0" d="M5.4,12.9h9.1c0.3,0,0.5,0.2,0.5,0.5c0,0,0,0,0,0v9.1c0,0.3-0.2,0.5-0.5,0.5c0,0,0,0,0,0H5.4
	c-0.3,0-0.5-0.2-0.5-0.5c0,0,0,0,0,0v-9.1C4.9,13.2,5.1,12.9,5.4,12.9C5.4,12.9,5.4,12.9,5.4,12.9"/>
<path class="st0" d="M4.9,14v2h-1c-0.3,0-0.5-0.2-0.5-0.5v-1c0-0.3,0.2-0.5,0.5-0.5H4.9z"/>
<path class="st0" d="M4.9,20v2h-1c-0.3,0-0.5-0.2-0.5-0.5v-1c0-0.3,0.2-0.5,0.5-0.5H4.9z"/>
<path class="st2" d="M8.9,20h-2c-0.3,0-0.5-0.2-0.5-0.5c0-0.3,0.2-0.5,0.5-0.5h2c0.3,0,0.5,0.2,0.5,0.5C9.4,19.8,9.2,20,8.9,20"/>
<path class="st2" d="M8.9,21.5h-2c-0.3,0-0.5-0.2-0.5-0.5c0-0.3,0.2-0.5,0.5-0.5c0,0,0,0,0,0h2c0.3,0,0.5,0.2,0.5,0.5
	C9.4,21.3,9.2,21.5,8.9,21.5C8.9,21.5,8.9,21.5,8.9,21.5"/>
<path class="st2" d="M13,19c-0.3,0-0.5-0.2-0.5-0.5c0,0,0,0,0,0v-1c0-0.3,0.2-0.5,0.5-0.5c0.3,0,0.5,0.2,0.5,0.5v1
	C13.5,18.8,13.3,19,13,19C13,19,13,19,13,19"/>
<path class="st0" d="M17.5,11.9h7.6c0.3,0,0.5,0.2,0.5,0.5c0,0,0,0,0,0v4c0,0.3-0.2,0.5-0.5,0.5c0,0,0,0,0,0h-7.6
	c-0.3,0-0.5-0.2-0.5-0.5c0,0,0,0,0,0v-4C17,12.2,17.2,11.9,17.5,11.9C17.5,11.9,17.5,11.9,17.5,11.9"/>
<path class="st0" d="M17.5,19h7.6c0.3,0,0.5,0.2,0.5,0.5c0,0,0,0,0,0v4c0,0.3-0.2,0.5-0.5,0.5c0,0,0,0,0,0h-7.6
	c-0.3,0-0.5-0.2-0.5-0.5c0,0,0,0,0,0v-4C17,19.2,17.2,19,17.5,19"/>
<path class="st1" d="M13.5,13.5v9.1c0,0.3-0.2,0.5-0.4,0.5H5.3c-0.3,0-0.4-0.2-0.4-0.5v-9.1c0-0.3,0.2-0.5,0.4-0.5H13
	C13.3,13,13.5,13.2,13.5,13.5"/>
<path class="st1" d="M24.1,12.4v4c0,0.3-0.2,0.5-0.4,0.5h-6.2c-0.3,0-0.4-0.3-0.4-0.5v-4c0-0.3,0.2-0.5,0.4-0.5h6.2
	C23.9,12,24.1,12.2,24.1,12.4"/>
<path class="st1" d="M24.1,19.5v4c0,0.3-0.2,0.5-0.4,0.5h-6.2c-0.3,0-0.4-0.3-0.4-0.5v-4c0-0.3,0.2-0.5,0.4-0.5h6.2
	C23.9,19,24.1,19.2,24.1,19.5"/>
<rect x="1.4" y="5.4" class="st1" width="5.5" height="2"/>
<rect x="6.9" y="4.9" class="st0" width="6" height="3"/>
<path class="st0" d="M17,8.4v1.5h-4V5.4h1C15.7,5.4,17,6.7,17,8.4"/>
<path class="st1" d="M15.5,8.4v1.5H13V5.4C14.4,5.7,15.5,6.9,15.5,8.4"/>
<path class="st2" d="M3.4,10.4c-0.3,0-0.5-0.2-0.5-0.5c0,0,0,0,0,0V7.4c0-0.3,0.2-0.5,0.5-0.5c0.3,0,0.5,0.2,0.5,0.5c0,0,0,0,0,0
	v2.5C3.9,10.2,3.7,10.4,3.4,10.4"/>
<path class="st0" d="M27.6,2.9v5h-4.5v-1c0-1.8,1.2-3.4,3-3.9c0.3-0.1,0.7-0.1,1-0.1L27.6,2.9z"/>
<rect x="6.9" y="4.9" class="st1" width="4.5" height="3"/>
<path class="st1" d="M26.1,3v4.9h-3v-1C23.1,5.1,24.3,3.5,26.1,3"/>
<polygon class="st0" points="30.6,2.9 29.6,7.9 27.6,7.9 27.6,2.9 "/>
<rect x="23.1" y="7.9" class="st1" width="4.5" height="2"/>
<path class="st3" d="M27.1,2.9c-0.2,0-0.3,0-0.5,0c0,0-0.1,0-0.1,0c-0.1,0-0.2,0-0.3,0.1c0,0-0.1,0-0.1,0c0,0-0.1,0-0.1,0l-0.1,0
	c-0.1,0-0.2,0.1-0.3,0.1c0,0-0.1,0-0.1,0c-0.1,0-0.2,0.1-0.3,0.2c0,0,0,0,0,0c-0.1,0.1-0.2,0.1-0.3,0.2c0,0-0.1,0-0.1,0.1
	c-0.1,0-0.1,0.1-0.2,0.2c0,0-0.1,0.1-0.1,0.1L24.3,4c0,0-0.1,0.1-0.1,0.1c-0.1,0.1-0.1,0.1-0.2,0.2c0,0-0.1,0.1-0.1,0.1
	c-0.1,0.1-0.1,0.1-0.2,0.2c0,0,0,0.1-0.1,0.1c-0.1,0.1-0.1,0.2-0.2,0.3c0,0,0,0.1,0,0.1c0,0.1-0.1,0.2-0.1,0.2l0,0.1
	c0,0.1-0.1,0.1-0.1,0.2c0,0,0,0.1,0,0.1c0,0.1,0,0.2-0.1,0.2c0,0,0,0.1,0,0.1c0,0.1,0,0.2,0,0.3l0,0.1c0,0.1,0,0.3,0,0.4v3h1.5v-3
	c0-0.1,0-0.3,0-0.4l0-0.1c0-0.1,0-0.2,0-0.3c0,0,0-0.1,0-0.1c0-0.1,0-0.2,0.1-0.2c0,0,0-0.1,0-0.1c0-0.1,0.1-0.2,0.1-0.2
	c0,0,0-0.1,0-0.1C24.9,5.2,25,5.1,25,5c0,0,0-0.1,0-0.1c0.1-0.1,0.1-0.2,0.2-0.3c0,0,0-0.1,0.1-0.1c0.1-0.1,0.1-0.1,0.2-0.2
	c0,0,0.1-0.1,0.1-0.1c0.1-0.1,0.1-0.1,0.2-0.2c0,0,0.1-0.1,0.1-0.1L26,3.8c0,0,0.1-0.1,0.1-0.1c0.1-0.1,0.1-0.1,0.2-0.2
	c0,0,0.1,0,0.1-0.1c0.1-0.1,0.2-0.1,0.3-0.2c0,0,0,0,0,0c0.1-0.1,0.2-0.1,0.3-0.2c0,0,0.1,0,0.1,0c0.1,0,0.2-0.1,0.3-0.1l0.1,0
	c0,0,0.1,0,0.1,0c0,0,0.1,0,0.1,0c0.1,0,0.2,0,0.3-0.1c0,0,0.1,0,0.1,0c0.2,0,0.3,0,0.5,0L27.1,2.9z M1.4,7.4h1.5v-2H1.4V7.4z
	 M2.9,28.1h1v-2H3.4c-0.3,0-0.5-0.2-0.5-0.5V10.4c0-0.3,0.2-0.5,0.5-0.5h0.5V7.4h-1v2.5h-1c-0.3,0-0.5,0.2-0.5,0.5v15.1
	c0,0.3,0.2,0.5,0.5,0.5h0.5v2L2.9,28.1L2.9,28.1z"/>
<polygon class="st3" points="1.9,10.4 1.9,17 1.9,25.5 0.9,25.5 0.9,17 0.9,10.4 "/>
<path class="st4" d="M1.4,15c0.1,0,0.3-0.1,0.4-0.1c0.2-0.2,0.2-0.5,0-0.7L1.7,14c0,0-0.1,0-0.1,0c0,0-0.1,0-0.1,0c0,0-0.1,0-0.1,0
	C1.2,14,1.1,14,1,14.1c-0.2,0.2-0.2,0.5,0,0.7c0,0,0.1,0.1,0.2,0.1C1.2,15,1.3,15,1.4,15"/>
<path class="st4" d="M3.9,19.5c-0.6,0-1,0.5-1,1v1c0,0.6,0.5,1,1,1h0.5c0,0.6,0.5,1,1,1h9.1c0.6,0,1-0.5,1-1v-9.1c0-0.6-0.5-1-1-1
	H5.4c-0.6,0-1,0.5-1,1H3.9c-0.6,0-1,0.5-1,1v1c0,0.6,0.5,1,1,1h0.5v3H3.9z M3.9,20.5h0.5v1H3.9V20.5z M5.4,13.5h9.1v9.1H5.4V13.5z
	 M3.9,14.5h0.5v1H3.9L3.9,14.5z"/>
<path class="st4" d="M6.9,20h2c0.3,0,0.5-0.2,0.5-0.5c0-0.3-0.2-0.5-0.5-0.5h-2c-0.3,0-0.5,0.2-0.5,0.5C6.4,19.8,6.6,20,6.9,20"/>
<path class="st4" d="M6.9,21.5h2c0.3,0,0.5-0.2,0.5-0.5c0-0.3-0.2-0.5-0.5-0.5c0,0,0,0,0,0h-2c-0.3,0-0.5,0.2-0.5,0.5
	C6.4,21.3,6.6,21.5,6.9,21.5C6.9,21.5,6.9,21.5,6.9,21.5"/>
<path class="st4" d="M13,19c0.3,0,0.5-0.2,0.5-0.5c0,0,0,0,0,0v-1c0-0.3-0.2-0.5-0.5-0.5c-0.3,0-0.5,0.2-0.5,0.5v1
	C12.5,18.8,12.7,19,13,19C13,19,13,19,13,19"/>
<path class="st4" d="M17.5,17.5h7.6c0.6,0,1-0.5,1-1v-4c0-0.6-0.5-1-1-1h-7.6c-0.6,0-1,0.5-1,1v4C16.5,17,17,17.5,17.5,17.5
	 M17.5,12.4h7.6v4h-7.6L17.5,12.4L17.5,12.4z"/>
<path class="st4" d="M16.5,23.5c0,0.6,0.5,1,1,1h7.6c0.6,0,1-0.5,1-1v-4c0-0.6-0.5-1-1-1h-7.6c-0.6,0-1,0.5-1,1V23.5z M17.5,19.5
	h7.6v4h-7.6L17.5,19.5L17.5,19.5z"/>
<path class="st4" d="M22,20.5h-1.5c-0.3,0-0.5,0.2-0.5,0.5c0,0.3,0.2,0.5,0.5,0.5c0,0,0,0,0,0H22c0.3,0,0.5-0.2,0.5-0.5
	C22.5,20.7,22.3,20.5,22,20.5C22,20.5,22,20.5,22,20.5"/>
<path class="st4" d="M30.6,28.1h-3.5v-1.5c0.6,0,1-0.5,1-1V8.4h1.5c0.2,0,0.4-0.2,0.5-0.4l1-5c0.1-0.3-0.1-0.5-0.4-0.6
	c0,0-0.1,0-0.1,0h-3.5c-2.5,0-4.5,2-4.5,4.5v2.5h-5v-1c0-1.9-1.6-3.5-3.5-3.5h-0.5c0-0.3-0.2-0.5-0.5-0.5c0,0,0,0,0,0h-6
	c-0.3,0-0.5,0.2-0.5,0.5c0,0,0,0,0,0h-5c-0.3,0-0.5,0.2-0.5,0.5c0,0,0,0,0,0v2c0,0.3,0.2,0.5,0.5,0.5c0,0,0,0,0,0h1.5v1.5h-1
	c-0.6,0-1,0.5-1,1v2c0,0.3,0.2,0.5,0.5,0.5s0.5-0.2,0.5-0.5v-2h25.2v15.1H1.9v-9.1c0-0.3-0.2-0.5-0.5-0.5s-0.5,0.2-0.5,0.5v9.1
	c0,0.6,0.5,1,1,1v1.5H1.4c-0.3,0-0.5,0.2-0.5,0.5c0,0.3,0.2,0.5,0.5,0.5c0,0,0,0,0,0h29.2c0.3,0,0.5-0.2,0.5-0.5
	C31.1,28.3,30.9,28.1,30.6,28.1 M29.2,7.4h-1.1v-4H30L29.2,7.4z M23.6,6.9c0-1.9,1.6-3.5,3.5-3.5v4h-3.5V6.9z M12.5,7.4h-5v-2h5
	L12.5,7.4z M1.9,5.9h4.5v1H1.9V5.9z M3.9,7.9h2.5c0,0.3,0.2,0.5,0.5,0.5c0,0,0,0,0,0h5.5v1H3.9V7.9z M13.5,9.4V5.9H14
	c1.4,0,2.5,1.1,2.5,2.5v1H13.5z M23.6,8.4h3.5v1h-3.5V8.4z M2.9,26.6h23.2v1.5H2.9V26.6z"/>
</svg>
