<?xml version="1.0" encoding="utf-8"?>
<!-- Generator: Adobe Illustrator 23.0.0, SVG Export Plug-In . SVG Version: 6.00 Build 0)  -->
<svg version="1.1" id="Layer_1" xmlns="http://www.w3.org/2000/svg" xmlns:xlink="http://www.w3.org/1999/xlink" x="0px" y="0px"
	 width="32px" height="32px" viewBox="0 0 32 32" style="enable-background:new 0 0 32 32;" xml:space="preserve">
<style type="text/css">
	.st0{fill:#E2E5F0;}
	.st1{fill:#5B84C3;}
</style>
<title>MDC</title>
<path class="st0" d="M3.4,29.2l-0.5-0.5c-0.6-0.6-0.6-1.6,0-2.2c0,0,0,0,0,0l1.8-1.8c0.6-0.6,1.6-0.6,2.2,0c0,0,0,0,0,0l0.5,0.5
	c0.6,0.6,0.6,1.6,0,2.2c0,0,0,0,0,0l-1.8,1.8C5,29.8,4,29.8,3.4,29.2C3.4,29.2,3.4,29.2,3.4,29.2z"/>
<path class="st1" d="M4.5,30c-0.5,0-1-0.2-1.3-0.6l-0.5-0.5c-0.7-0.7-0.7-2,0-2.7c0,0,0,0,0,0l1.8-1.8c0.7-0.7,2-0.7,2.7,0l0.5,0.5
	c0.7,0.7,0.7,2,0,2.7c0,0,0,0,0,0l-1.8,1.8C5.5,29.8,5,30,4.5,30z M5.8,24.5c-0.3,0-0.6,0.1-0.9,0.4l-1.8,1.8
	c-0.5,0.5-0.5,1.3,0,1.7l0.5,0.5c0.5,0.5,1.3,0.5,1.7,0l1.8-1.8c0.5-0.5,0.5-1.3,0-1.7l-0.5-0.5C6.4,24.7,6.1,24.5,5.8,24.5z"/>
<path class="st0" d="M29.3,9.5L29.3,9.5c-0.8-0.8-2-0.8-2.7,0c0,0,0,0,0,0l-4.8,4.8L18.2,11L23.1,6c0.8-0.8,0.8-2,0-2.7c0,0,0,0,0,0
	l0,0c-0.8-0.8-2-0.8-2.7,0c0,0,0,0,0,0l-5,5l-0.8-0.7c-1.1-1.1-2.9-1-4,0.1l-3.3,3.5C4.5,14.3,4.7,19.1,7.7,22l3.2,3
	c3.1,2.9,7.9,2.7,10.7-0.4l3.3-3.5c1.1-1.1,1-2.9-0.1-4l-0.3-0.2l4.7-4.7C30.1,11.5,30.1,10.3,29.3,9.5C29.3,9.5,29.3,9.5,29.3,9.5z
	"/>
<path class="st1" d="M16.2,27.4c-2,0-3.9-0.8-5.4-2.1l-3.2-3c-3.2-3-3.4-8-0.4-11.2l3.3-3.5c1.2-1.3,3.2-1.3,4.4-0.2l0.5,0.5
	l4.8-4.8c0.9-0.9,2.3-0.9,3.2,0s0.9,2.3,0,3.2l0,0L18.7,11l3.1,2.9l4.6-4.6c0.9-0.9,2.3-0.9,3.2,0c0,0,0,0,0,0l0,0
	c0.9,0.9,0.9,2.3,0,3.2l-4.5,4.5c1.3,1.2,1.3,3.2,0.2,4.4L22,24.9c-1.4,1.5-3.4,2.5-5.5,2.5C16.3,27.4,16.3,27.4,16.2,27.4z
	 M12.7,7.2c-0.7,0-1.3,0.3-1.8,0.8l-3.3,3.5C4.9,14.4,5.1,19,8,21.8l3.2,3c2.9,2.7,7.5,2.6,10.3-0.4l3.3-3.5c0.9-1,0.9-2.5-0.1-3.5
	c0,0,0,0,0,0l-0.5-0.5l5-5c0.6-0.6,0.7-1.6,0.1-2.2c-0.6-0.6-1.6-0.7-2.2-0.1c0,0,0,0-0.1,0.1l-5,5L17.7,11l5.2-5.2
	c0.6-0.6,0.7-1.6,0.1-2.2c-0.6-0.6-1.6-0.7-2.2-0.1c0,0,0,0-0.1,0.1l-5.3,5.3l-1-1C13.9,7.4,13.3,7.2,12.7,7.2z"/>
</svg>
