<?xml version="1.0" encoding="utf-8"?>
<!-- Generator: Adobe Illustrator 23.0.0, SVG Export Plug-In . SVG Version: 6.00 Build 0)  -->
<svg version="1.1" id="Layer_1" xmlns="http://www.w3.org/2000/svg" xmlns:xlink="http://www.w3.org/1999/xlink" x="0px" y="0px"
	 width="32px" height="32px" viewBox="0 0 32 32" style="enable-background:new 0 0 32 32;" xml:space="preserve">
<style type="text/css">
	.st0{fill:#5B84C3;}
</style>
<title>mocua</title>
<path class="st0" d="M30.5,28.4h-4V3.1c0-0.3-0.2-0.5-0.5-0.5L12.5,1c-0.3,0-0.5,0.2-0.6,0.5c0,0,0,0,0,0.1v1H6.1
	c-0.3,0-0.5,0.2-0.5,0.5v25.4h-4c-0.3,0-0.5,0.2-0.5,0.5c0,0.3,0.2,0.5,0.5,0.5h10.4v1c0,0.3,0.2,0.5,0.5,0.5c0,0,0,0,0,0
	c0,0,0,0,0.1,0L26,29.4h4.5c0.3,0,0.5-0.2,0.5-0.5C31,28.7,30.7,28.4,30.5,28.4C30.5,28.4,30.5,28.4,30.5,28.4z M6.6,3.6h5.3v1.3
	H8.4c-0.3,0-0.5,0.2-0.5,0.5v23H6.6V3.6z M8.9,5.9h3v22.5h-3V5.9z M12.9,2.1l12.5,1.4v24.9l-12.5,1.4V2.1z"/>
<path class="st0" d="M15.2,14.5c-0.8,0-1.5,0.7-1.5,1.5s0.7,1.5,1.5,1.5s1.5-0.7,1.5-1.5l0,0C16.7,15.2,16,14.5,15.2,14.5
	 M15.2,16.5c-0.3,0-0.5-0.2-0.5-0.5c0-0.3,0.2-0.5,0.5-0.5c0.3,0,0.5,0.2,0.5,0.5l0,0C15.7,16.3,15.4,16.5,15.2,16.5
	C15.2,16.5,15.2,16.5,15.2,16.5"/>
</svg>
