<?xml version="1.0" encoding="utf-8"?>
<!-- Generator: Adobe Illustrator 23.0.0, SVG Export Plug-In . SVG Version: 6.00 Build 0)  -->
<svg version="1.1" id="Layer_1" xmlns="http://www.w3.org/2000/svg" xmlns:xlink="http://www.w3.org/1999/xlink" x="0px" y="0px"
	 width="32px" height="32px" viewBox="0 0 32 32" style="enable-background:new 0 0 32 32;" xml:space="preserve">
<style type="text/css">
	.st0{fill:#E7EBF6;}
	.st1{fill:#CCD7EE;}
	.st2{fill:#A7BFE3;}
	.st3{fill:#86A8D7;}
	.st4{fill:#FFFFFF;}
	.st5{fill:#5B84C3;}
</style>
<title>ngapnuoc</title>
<path class="st0" d="M29.8,19.8v5.6c-2.3,0-2.3,1.4-4.5,1.4s-2.3-1.4-4.5-1.4c-0.4,0-0.8,0.1-1.3,0.2c-1.1,0.4-1.5,1.2-3.3,1.2
	c-1.7,0-2.2-0.8-3.3-1.2c-0.4-0.1-0.8-0.2-1.3-0.2c-2.3,0-2.3,1.4-4.5,1.4s-2.3-1.4-4.5-1.4v-5.6c2.3,0,2.3,1.4,4.5,1.4
	s2.3-1.4,4.5-1.4c0.4,0,0.9,0.1,1.3,0.2c1.1,0.4,1.5,1.2,3.3,1.2c1.8,0,2.2-0.8,3.3-1.2c0.4-0.1,0.8-0.2,1.3-0.2
	c2.3,0,2.3,1.4,4.5,1.4S27.5,19.8,29.8,19.8"/>
<path class="st1" d="M28.3,20.1v5.4c-2,0-2.2,1.1-3.8,1.4c0.2,0,0.5,0.1,0.7,0.1c2.3,0,2.3-1.4,4.5-1.4v-5.6
	C29.3,19.8,28.8,19.9,28.3,20.1"/>
<path class="st2" d="M21.3,10.9h-1.9V20c-1.1,0.4-1.5,1.2-3.3,1.2c-1.7,0-2.2-0.8-3.3-1.2v-9.1h-1.9c-0.5,0-0.9-0.4-0.9-0.9
	c0-0.2,0.1-0.4,0.2-0.6l5.2-6.6c0.3-0.4,0.9-0.5,1.3-0.2c0.1,0,0.1,0.1,0.2,0.2L22,9.4c0.3,0.4,0.2,1-0.2,1.3
	C21.7,10.8,21.5,10.9,21.3,10.9"/>
<path class="st3" d="M18,20c-1,0.3-1.4,1-2.6,1.2c0.2,0,0.5,0.1,0.7,0.1c1.8,0,2.2-0.8,3.3-1.2v-9.1H18V20z"/>
<path class="st3" d="M22,9.4l-5.2-6.6c-0.3-0.4-0.9-0.5-1.3-0.2c0,0-0.1,0.1-0.1,0.1c0,0,0,0,0,0l5.2,6.6c0.3,0.4,0.2,1-0.2,1.3
	c-0.2,0.1-0.4,0.2-0.6,0.2h1.4c0.5,0,0.9-0.4,0.9-0.9C22.2,9.7,22.2,9.5,22,9.4"/>
<path class="st2" d="M19.4,25.6v3.1c0,0.5-0.4,0.9-0.9,0.9h-4.7c-0.5,0-0.9-0.4-0.9-0.9v-3.1c1.1,0.4,1.5,1.2,3.3,1.2
	C17.9,26.9,18.3,26,19.4,25.6"/>
<path class="st3" d="M18,26.4v2.4c0,0.5-0.4,0.9-0.9,0.9h1.4c0.5,0,0.9-0.4,0.9-0.9v-3.1C18.9,25.8,18.4,26.1,18,26.4"/>
<path class="st4" d="M3.9,25.5v-5.4c-0.4-0.2-0.9-0.3-1.4-0.2v5.6c2.3,0,2.3,1.4,4.5,1.4c0.2,0,0.5,0,0.7-0.1
	C6.1,26.6,5.9,25.5,3.9,25.5"/>
<path class="st4" d="M14.2,28.7v-3.1c-0.4-0.1-0.8-0.2-1.3-0.2c-0.2,0-0.5,0-0.7,0.1c0.2,0,0.4,0.1,0.5,0.1v3.1
	c0,0.5,0.4,0.9,0.9,0.9h1.4C14.7,29.7,14.2,29.3,14.2,28.7"/>
<path class="st4" d="M13,19.8c0.4,0,0.9,0.1,1.3,0.2v-9.1h-1.4v8.9C12.9,19.8,12.9,19.8,13,19.8"/>
<path class="st4" d="M16.5,2.5c-0.1-0.1-0.3-0.1-0.4-0.1c-0.3,0-0.5,0.1-0.7,0.3c-0.1,0.1,0.6-0.8-5.2,6.6c-0.3,0.4-0.2,1,0.2,1.3
	c0.2,0.1,0.4,0.2,0.6,0.2h1.4c-0.5,0-0.9-0.4-0.9-0.9c0-0.2,0.1-0.4,0.2-0.6c5.7-7.3,5.1-6.5,5.2-6.6C16.6,2.5,16.6,2.6,16.5,2.5"/>
<rect x="9.5" y="7.4" transform="matrix(0.6181 -0.7861 0.7861 0.6181 -1.8576 11.9451)" class="st4" width="3.8" height="0.9"/>
<path class="st5" d="M29.8,19.3c-0.9,0-1.8,0.3-2.5,0.8c-1.2,0.8-2.8,0.8-4.1,0c-1.5-1-3.5-1-5,0c-0.6,0.4-1.3,0.7-2,0.6
	c-0.7,0-1.4-0.2-2-0.6c-0.7-0.5-1.6-0.8-2.5-0.8c-0.9,0-1.8,0.3-2.5,0.8c-0.6,0.4-1.3,0.7-2,0.6c-0.7,0-1.4-0.2-2-0.6
	c-0.7-0.5-1.6-0.8-2.5-0.8c-0.3,0-0.5,0.2-0.5,0.5s0.2,0.5,0.5,0.5c0,0,0,0,0,0c0.7,0,1.4,0.2,2,0.6c0.7,0.5,1.6,0.8,2.5,0.8
	c0.9,0,1.8-0.3,2.5-0.8c0.6-0.4,1.3-0.7,2-0.6c0.7,0,1.4,0.2,2,0.6c0.7,0.5,1.6,0.8,2.5,0.8c0.9,0,1.8-0.3,2.5-0.8
	c1.2-0.8,2.8-0.8,4,0c1.5,1,3.5,1,5,0c0.6-0.4,1.3-0.7,2-0.6c0.3,0,0.5-0.2,0.5-0.5C30.2,19.5,30,19.3,29.8,19.3"/>
<path class="st5" d="M29.8,22.2c-0.9,0-1.8,0.3-2.5,0.8c-1.2,0.8-2.8,0.8-4.1,0c-1.5-1-3.5-1-5,0c-0.6,0.4-1.3,0.7-2,0.6
	c-0.7,0-1.4-0.2-2-0.6c-0.7-0.5-1.6-0.8-2.5-0.8c-0.9,0-1.8,0.3-2.5,0.8c-0.6,0.4-1.3,0.7-2,0.6c-0.7,0-1.4-0.2-2-0.6
	c-0.7-0.5-1.6-0.8-2.5-0.8c-0.3,0-0.5,0.2-0.5,0.5c0,0.3,0.2,0.5,0.5,0.5c0,0,0,0,0,0c0.7,0,1.4,0.2,2,0.6c0.7,0.5,1.6,0.8,2.5,0.8
	c0.9,0,1.8-0.3,2.5-0.8c0.6-0.4,1.3-0.7,2-0.6c0.7,0,1.4,0.2,2,0.6c0.7,0.5,1.6,0.8,2.5,0.8c0.9,0,1.8-0.3,2.5-0.8
	c1.2-0.8,2.8-0.8,4,0c1.5,1,3.5,1,5,0c0.6-0.4,1.3-0.7,2-0.6c0.3,0,0.5-0.2,0.5-0.5C30.2,22.4,30,22.2,29.8,22.2"/>
<path class="st5" d="M29.8,25c-0.9,0-1.8,0.3-2.5,0.8c-1.2,0.8-2.8,0.8-4.1,0c-1.5-1-3.5-1-5,0c-0.6,0.4-1.3,0.7-2,0.6
	c-0.7,0-1.4-0.2-2-0.6c-0.7-0.5-1.6-0.8-2.5-0.8c-0.9,0-1.8,0.3-2.5,0.8c-0.6,0.4-1.3,0.7-2,0.6c-0.7,0-1.4-0.2-2-0.6
	C4.3,25.2,3.4,25,2.5,25C2.2,25,2,25.2,2,25.5s0.2,0.5,0.5,0.5c0.7,0,1.4,0.2,2,0.6c0.7,0.5,1.6,0.8,2.5,0.8c0.9,0,1.8-0.3,2.5-0.8
	c0.6-0.4,1.3-0.7,2-0.6c0.7,0,1.4,0.2,2,0.6c0.7,0.5,1.6,0.8,2.5,0.8c0.9,0,1.8-0.3,2.5-0.8c1.2-0.8,2.8-0.8,4,0c1.5,1,3.5,1,5,0
	c0.6-0.4,1.3-0.7,2-0.6c0.3,0,0.5-0.2,0.5-0.5C30.2,25.2,30,25,29.8,25"/>
<path class="st5" d="M11.4,8.3c-0.3,0-0.5-0.2-0.5-0.5c0-0.3,0.2-0.5,0.5-0.5l0,0h0c0.3,0,0.5,0.2,0.5,0.5
	C11.8,8.1,11.6,8.3,11.4,8.3"/>
<path class="st5" d="M21.3,10.4h-1.9c-0.3,0-0.5,0.2-0.5,0.5c0,0,0,0,0,0v7.2c0,0.3,0.2,0.5,0.5,0.5c0.3,0,0.5-0.2,0.5-0.5v-6.7h1.4
	c0.8,0,1.4-0.6,1.4-1.4c0-0.3-0.1-0.6-0.3-0.9l-5.2-6.6c-0.5-0.6-1.4-0.7-2-0.2c-0.1,0.1-0.2,0.2-0.2,0.2l-2.8,3.6
	C12,6.3,12,6.6,12.2,6.8c0.2,0.2,0.5,0.1,0.7-0.1l2.8-3.6c0.2-0.2,0.5-0.2,0.7-0.1c0,0,0,0,0.1,0.1l5.2,6.6c0.2,0.2,0.1,0.5-0.1,0.7
	C21.5,10.4,21.4,10.4,21.3,10.4"/>
<path class="st5" d="M19.4,27.3c-0.3,0-0.5,0.2-0.5,0.5l0,0v1c0,0.3-0.2,0.5-0.5,0.5l0,0h-4.7c-0.3,0-0.5-0.2-0.5-0.5l0,0v-1
	c0-0.3-0.2-0.5-0.5-0.5c-0.3,0-0.5,0.2-0.5,0.5c0,0,0,0,0,0v1c0,0.8,0.6,1.4,1.4,1.4h4.7c0.8,0,1.4-0.6,1.4-1.4c0,0,0,0,0,0v-1
	C19.9,27.5,19.7,27.3,19.4,27.3"/>
<path class="st5" d="M15.7,11.3c0.3,0,0.5-0.2,0.5-0.5c0-0.3-0.2-0.5-0.5-0.5c0,0,0,0,0,0h-2.9c0,0,0,0,0,0h-1.8
	c-0.3,0-0.5-0.2-0.5-0.5c0-0.1,0-0.2,0.1-0.3c0.2-0.2,0.1-0.5-0.1-0.7C10.3,8.8,10,8.9,9.8,9.1c-0.5,0.6-0.4,1.5,0.3,2
	c0.2,0.2,0.6,0.3,0.9,0.3h1.4v6.7c0,0.3,0.2,0.5,0.5,0.5c0.3,0,0.5-0.2,0.5-0.5V17h1c0.3,0,0.5-0.2,0.5-0.5S14.6,16,14.3,16
	c0,0,0,0,0,0h-1v-0.9h2.4c0.3,0,0.5-0.2,0.5-0.5c0-0.3-0.2-0.5-0.5-0.5h-2.4v-0.9h1c0.3,0,0.5-0.2,0.5-0.5c0-0.3-0.2-0.5-0.5-0.5
	c0,0,0,0,0,0h-1v-0.9H15.7z"/>
</svg>
