<?xml version="1.0" encoding="utf-8"?>
<!-- Generator: Adobe Illustrator 23.0.0, SVG Export Plug-In . SVG Version: 6.00 Build 0)  -->
<svg version="1.1" id="Layer_1" xmlns="http://www.w3.org/2000/svg" xmlns:xlink="http://www.w3.org/1999/xlink" x="0px" y="0px"
	 width="32px" height="32px" viewBox="0 0 32 32" style="enable-background:new 0 0 32 32;" xml:space="preserve">
<style type="text/css">
	.st0{fill:#E7EBF6;}
	.st1{fill:#CCD7EE;}
	.st2{fill:#A7BFE3;}
	.st3{fill:#FFFFFF;}
	.st4{fill:#5B84C3;}
</style>
<title>nhietdo</title>
<path class="st0" d="M11.3,1.7h9.8c2.2,0,3.9,1.8,3.9,3.9c0,0,0,0,0,0v20.7c0,2.2-1.8,3.9-3.9,3.9c0,0,0,0,0,0h-9.8
	c-2.2,0-3.9-1.8-3.9-3.9c0,0,0,0,0,0V5.7C7.3,3.5,9.1,1.7,11.3,1.7C11.3,1.7,11.3,1.7,11.3,1.7"/>
<path class="st1" d="M21.1,1.7h-1.5c2.2,0,3.9,1.8,3.9,3.9c0,0,0,0,0,0v20.7c0,2.2-1.8,3.9-3.9,3.9c0,0,0,0,0,0h1.5
	c2.2,0,3.9-1.8,3.9-3.9c0,0,0,0,0,0V5.7C25.1,3.5,23.3,1.7,21.1,1.7C21.1,1.7,21.1,1.7,21.1,1.7"/>
<path class="st0" d="M19.1,25.3c0,1.6-1.3,3-2.9,3c-1.6,0-3-1.3-3-2.9c0-1.3,0.8-2.4,2-2.8c0.6-0.2,1.3-0.2,2,0
	C18.4,23,19.2,24.1,19.1,25.3"/>
<path class="st1" d="M17.2,22.6c-0.6-0.2-1.2-0.2-1.7-0.1c0.1,0,0.2,0,0.2,0.1c1.5,0.5,2.3,2.2,1.8,3.8c-0.3,0.9-1.1,1.6-2,1.9
	c1.6,0.4,3.2-0.5,3.6-2.1C19.4,24.6,18.6,23.1,17.2,22.6"/>
<path class="st0" d="M17.2,18.5v4.1c-0.6-0.2-1.3-0.2-2,0v-4.1H17.2z"/>
<path class="st2" d="M17.2,5.2v13.3h-2V5.2c0-0.5,0.4-1,1-1C16.7,4.2,17.2,4.6,17.2,5.2"/>
<path class="st3" d="M7.3,5.7v20.7c0,2.2,1.8,3.9,3.9,3.9c0,0,0,0,0,0h1.5c-2.2,0-3.9-1.8-3.9-3.9c0,0,0,0,0,0V5.7
	c0-2.2,1.8-3.9,3.9-3.9c0,0,0,0,0,0h-1.5C9.1,1.7,7.3,3.5,7.3,5.7C7.3,5.7,7.3,5.7,7.3,5.7"/>
<rect x="6.9" y="22.4" class="st3" width="1" height="3.9"/>
<path class="st4" d="M7.4,24.8c-0.3,0-0.5-0.2-0.5-0.5c0-0.3,0.2-0.5,0.5-0.5h0c0.3,0,0.5,0.2,0.5,0.5S7.6,24.8,7.4,24.8"/>
<path class="st4" d="M11.3,30.7h9.8c2.4,0,4.4-2,4.4-4.4V5.7c0-2.4-2-4.4-4.4-4.4h-9.8c-2.4,0-4.4,2-4.4,4.4v16.7
	c0,0.3,0.2,0.5,0.5,0.5c0.3,0,0.5-0.2,0.5-0.5V5.7c0-1.9,1.5-3.4,3.4-3.4h9.8c1.9,0,3.4,1.5,3.4,3.4v20.7c0,1.9-1.5,3.4-3.4,3.4
	h-9.8c-1.9,0-3.4-1.5-3.4-3.4c0-0.3-0.2-0.5-0.5-0.5c-0.3,0-0.5,0.2-0.5,0.5C6.9,28.8,8.8,30.7,11.3,30.7"/>
<path class="st4" d="M15.2,23.9c0.3,0,0.5,0.2,0.5,0.5s-0.2,0.5-0.5,0.5s-0.5-0.2-0.5-0.5C14.7,24.1,14.9,23.9,15.2,23.9"/>
<path class="st4" d="M17.7,5.2c0-0.8-0.7-1.5-1.5-1.5c-0.8,0-1.5,0.7-1.5,1.5v17.1c-1.7,0.8-2.5,2.9-1.6,4.6
	c0.8,1.7,2.9,2.5,4.6,1.6c1.7-0.8,2.5-2.9,1.6-4.6c-0.3-0.7-0.9-1.3-1.6-1.6V5.2z M16.2,4.7c0.3,0,0.5,0.2,0.5,0.5V18h-1V5.2
	C15.7,4.9,15.9,4.7,16.2,4.7 M18.7,25.3c0,1.4-1.1,2.5-2.5,2.5c-1.4,0-2.5-1.1-2.5-2.5c0-1.4,1.1-2.5,2.5-2.5
	C17.6,22.9,18.7,24,18.7,25.3 M16.2,21.9c-0.2,0-0.3,0-0.5,0v-3h1v3C16.5,21.9,16.4,21.9,16.2,21.9"/>
<path class="st4" d="M11.8,5.2h1c0.3,0,0.5-0.2,0.5-0.5S13,4.2,12.8,4.2h-1c-0.3,0-0.5,0.2-0.5,0.5S11.5,5.2,11.8,5.2"/>
<path class="st4" d="M11.8,7.6h1c0.3,0,0.5-0.2,0.5-0.5c0-0.3-0.2-0.5-0.5-0.5h-1c-0.3,0-0.5,0.2-0.5,0.5
	C11.3,7.4,11.5,7.6,11.8,7.6C11.8,7.6,11.8,7.6,11.8,7.6"/>
<path class="st4" d="M11.8,10.1h1c0.3,0,0.5-0.2,0.5-0.5c0-0.3-0.2-0.5-0.5-0.5h-1c-0.3,0-0.5,0.2-0.5,0.5
	C11.3,9.9,11.5,10.1,11.8,10.1C11.8,10.1,11.8,10.1,11.8,10.1"/>
<path class="st4" d="M11.8,12.5h1c0.3,0,0.5-0.2,0.5-0.5c0-0.3-0.2-0.5-0.5-0.5c0,0,0,0,0,0h-1c-0.3,0-0.5,0.2-0.5,0.5
	C11.3,12.3,11.5,12.5,11.8,12.5"/>
<path class="st4" d="M11.8,15h1c0.3,0,0.5-0.2,0.5-0.5c0-0.3-0.2-0.5-0.5-0.5c0,0,0,0,0,0h-1c-0.3,0-0.5,0.2-0.5,0.5
	C11.3,14.8,11.5,15,11.8,15C11.8,15,11.8,15,11.8,15"/>
<path class="st4" d="M11.8,17.5h1c0.3,0,0.5-0.2,0.5-0.5c0-0.3-0.2-0.5-0.5-0.5h-1c-0.3,0-0.5,0.2-0.5,0.5
	C11.3,17.2,11.5,17.5,11.8,17.5"/>
<path class="st4" d="M11.8,19.9h1c0.3,0,0.5-0.2,0.5-0.5c0-0.3-0.2-0.5-0.5-0.5h-1c-0.3,0-0.5,0.2-0.5,0.5
	C11.3,19.7,11.5,19.9,11.8,19.9"/>
<path class="st4" d="M11.8,22.4h1c0.3,0,0.5-0.2,0.5-0.5c0-0.3-0.2-0.5-0.5-0.5h-1c-0.3,0-0.5,0.2-0.5,0.5
	C11.3,22.2,11.5,22.4,11.8,22.4C11.8,22.4,11.8,22.4,11.8,22.4"/>
<path class="st4" d="M20.6,4.2c-0.3,0-0.5,0.2-0.5,0.5v0.5h-0.5c-0.3,0-0.5,0.2-0.5,0.5c0,0.3,0.2,0.5,0.5,0.5h0.5v0.5
	c0,0.3,0.2,0.5,0.5,0.5s0.5-0.2,0.5-0.5c0,0,0,0,0,0V6.2h0.5c0.3,0,0.5-0.2,0.5-0.5c0-0.3-0.2-0.5-0.5-0.5l0,0h-0.5V4.7
	C21.1,4.4,20.9,4.2,20.6,4.2"/>
<path class="st4" d="M19.6,22.4h2c0.3,0,0.5-0.2,0.5-0.5c0-0.3-0.2-0.5-0.5-0.5h-2c-0.3,0-0.5,0.2-0.5,0.5
	C19.1,22.2,19.4,22.4,19.6,22.4"/>
</svg>
