<?xml version="1.0" encoding="utf-8"?>
<!-- Generator: Adobe Illustrator 23.0.0, SVG Export Plug-In . SVG Version: 6.00 Build 0)  -->
<svg version="1.1" id="Layer_1" xmlns="http://www.w3.org/2000/svg" xmlns:xlink="http://www.w3.org/1999/xlink" x="0px" y="0px"
	 width="32px" height="32px" viewBox="0 0 32 32" style="enable-background:new 0 0 32 32;" xml:space="preserve">
<style type="text/css">
	.st0{fill:#CCD7EE;}
	.st1{fill:#E7EBF6;}
	.st2{fill:#86A8D7;}
	.st3{fill:#E34D3B;}
	.st4{fill:#A7BFE3;}
	.st5{fill:#FFFFFF;}
	.st6{fill:#5B84C3;}
	.st7{clip-path:url(#SVGID_2_);}
	.st8{fill:url(#SVGID_3_);}
</style>
<title>nhienlieu</title>
<path class="st0" d="M30.4,15.9c0,7.9-6.4,14.3-14.3,14.3c-0.2,0-0.5,0-0.7,0h0C7.5,29.7,1.5,23,1.9,15.2C2.3,7.9,8.1,2.1,15.4,1.7
	h0c0.2,0,0.5,0,0.7,0C24,1.7,30.4,8,30.4,15.9C30.4,15.9,30.4,15.9,30.4,15.9"/>
<path class="st1" d="M28.9,15.9c0,7.6-5.9,13.8-13.5,14.2h0C7.5,29.7,1.5,23,1.9,15.2C2.3,7.9,8.1,2.1,15.4,1.7h0
	C23,2.1,28.9,8.3,28.9,15.9"/>
<path class="st2" d="M17.5,19.3c-0.8,0.8-2,0.8-2.8,0c-0.8-0.8-0.8-2,0-2.8c0.8-0.8,2-0.8,2.8,0c0.4,0.4,0.6,0.9,0.6,1.4
	C18.1,18.4,17.9,18.9,17.5,19.3"/>
<path class="st2" d="M16.5,19.3c-0.2,0.2-0.6,0.4-0.9,0.5c-1.1-0.3-1.7-1.3-1.4-2.4c0.2-0.7,0.7-1.2,1.4-1.4
	c1.1,0.3,1.7,1.3,1.4,2.4C16.9,18.7,16.8,19,16.5,19.3"/>
<path class="st3" d="M25.5,16.4c-0.3,0-0.5-0.2-0.5-0.5c0,0,0,0,0,0c0-0.2,0-0.4,0-0.5c0-0.3,0-0.5-0.1-0.8l0,0c0-0.1,0-0.3-0.1-0.4
	c-0.1-0.4-0.2-0.8-0.3-1.2c0-0.1-0.1-0.2-0.1-0.4c0,0,0,0,0-0.1c-0.1-0.2-0.1-0.3-0.2-0.4C24,12,24,11.8,23.9,11.7
	c-0.8-1.5-2.1-2.7-3.6-3.6c-0.1-0.1-0.3-0.1-0.4-0.2c-0.1-0.1-0.3-0.1-0.4-0.2c0,0,0,0-0.1,0c-0.1-0.1-0.2-0.1-0.3-0.1
	c-0.4-0.1-0.8-0.3-1.2-0.3c-0.2,0-0.3-0.1-0.4-0.1l0,0c-0.3,0-0.5-0.1-0.8-0.1c-0.4,0-0.7,0-1.1,0c-0.3,0-0.5,0-0.8,0.1l0,0
	c-0.1,0-0.3,0-0.4,0.1c-0.4,0.1-0.8,0.2-1.2,0.3c-0.1,0-0.2,0.1-0.4,0.1c0,0,0,0-0.1,0c-0.1,0.1-0.3,0.1-0.4,0.2
	C12.1,8,12,8.1,11.9,8.1c-1.5,0.8-2.7,2.1-3.6,3.6c-0.1,0.1-0.1,0.2-0.2,0.4c-0.1,0.1-0.1,0.3-0.2,0.4c0,0,0,0,0,0.1
	c-0.1,0.1-0.1,0.2-0.1,0.3c-0.1,0.4-0.3,0.8-0.3,1.2c0,0.2-0.1,0.3-0.1,0.4c0,0,0,0,0,0c0,0.3-0.1,0.5-0.1,0.8c0,0.2,0,0.3,0,0.5
	c0,0.3-0.2,0.5-0.5,0.5c-0.3,0-0.5-0.2-0.5-0.5c0-0.2,0-0.4,0-0.6c0-0.3,0.1-0.6,0.1-0.9c0,0,0,0,0,0c0-0.2,0.1-0.3,0.1-0.5
	c0.1-0.5,0.2-0.9,0.4-1.3c0-0.1,0.1-0.3,0.2-0.4c0,0,0,0,0-0.1c0.1-0.1,0.1-0.3,0.2-0.5c0.1-0.1,0.1-0.3,0.2-0.4c0.9-1.7,2.3-3,4-4
	c0.1-0.1,0.3-0.2,0.4-0.2C12,7,12.2,6.9,12.4,6.8l0,0c0.1-0.1,0.3-0.1,0.4-0.2c0.4-0.2,0.9-0.3,1.3-0.4c0.1,0,0.3-0.1,0.5-0.1l0,0
	c0.3,0,0.6-0.1,0.9-0.1c0.4,0,0.8,0,1.2,0c0.3,0,0.6,0.1,0.9,0.1c0,0,0,0,0,0c0.2,0,0.3,0.1,0.5,0.1c0.5,0.1,0.9,0.2,1.3,0.4
	c0.1,0,0.3,0.1,0.4,0.2l0,0C20,6.9,20.2,7,20.4,7.1c0.1,0.1,0.3,0.1,0.4,0.2c1.7,0.9,3,2.3,4,4c0.1,0.1,0.2,0.3,0.2,0.4
	c0.1,0.2,0.2,0.3,0.2,0.5l0,0c0.1,0.1,0.1,0.3,0.2,0.4c0.2,0.4,0.3,0.9,0.4,1.3c0,0.1,0.1,0.3,0.1,0.5c0,0,0,0,0,0
	c0,0.3,0.1,0.6,0.1,0.9c0,0.2,0,0.4,0,0.6C25.9,16.2,25.7,16.4,25.5,16.4C25.5,16.4,25.5,16.4,25.5,16.4"/>
<path class="st4" d="M27.9,15.9c0,0.5,0,1-0.1,1.5c0,0.2-0.2,0.4-0.5,0.4h-1.5c0.2,0,0.5-0.2,0.5-0.4c0.1-0.5,0.1-1,0.1-1.5
	c0-6.2-4.8-11.4-11.1-11.8c6.5-0.4,12.1,4.5,12.5,11.1C27.9,15.4,27.9,15.7,27.9,15.9"/>
<path class="st4" d="M21.7,13.1l-2.1,3.1l0,0c-0.4-0.8-1-1.4-1.8-1.8l0,0l3.1-2.1c0.3-0.2,0.6-0.1,0.8,0.1
	C21.8,12.7,21.8,12.9,21.7,13.1"/>
<path class="st5" d="M15.3,30.2L15.3,30.2c0.3,0,0.5,0,0.7,0c0.2,0,0.5,0,0.7,0h0c-7.9-0.4-13.9-7.1-13.5-15C3.7,8,9.5,2.1,16.8,1.7
	h0c-0.2,0-0.5,0-0.7,0c-0.2,0-0.5,0-0.7,0h0C7.4,2.2,1.4,8.9,1.8,16.7C2.2,24,8,29.8,15.3,30.2"/>
<path class="st5" d="M1.3,16c0-2.2,0.5-4.4,1.5-6.4c0.3-0.6,0.6-1.2,1-1.8C4,7.5,4.2,7.2,4.4,7c0.2-0.3,0.4-0.5,0.7-0.8
	c0.9-1,2-1.9,3.1-2.7c1.2-0.7,2.4-1.3,3.8-1.7c1.3-0.4,2.7-0.6,4.1-0.6v1c-1.3,0-2.6,0.2-3.8,0.5C11,3.1,9.8,3.6,8.7,4.3
	C7.6,5,6.6,5.9,5.8,6.8C5.6,7.1,5.4,7.3,5.2,7.6C5,7.8,4.8,8.1,4.6,8.3C4.2,8.9,3.9,9.4,3.6,10c-0.9,1.9-1.4,3.9-1.4,6L1.3,16
	L1.3,16z"/>
<path class="st6" d="M2,12.4C2,12.4,2,12.4,2,12.4c0.1,0.1,0.1,0.1,0.2,0.1c0,0,0.1,0,0.1,0c0.1,0,0.3,0,0.4,0
	c0.1,0,0.1-0.1,0.1-0.1c0.1-0.2,0.1-0.4,0-0.5c0-0.1-0.1-0.1-0.1-0.1c0,0-0.1-0.1-0.2-0.1c-0.1,0-0.3,0-0.4,0
	c-0.1,0.1-0.2,0.2-0.2,0.3C1.8,12,1.9,12.2,2,12.4L2,12.4z"/>
<path class="st6" d="M16,30.7c8.1,0,14.8-6.6,14.7-14.8c0-8.1-6.6-14.7-14.7-14.7c-1.4,0-2.8,0.2-4.1,0.6c-1.3,0.4-2.6,0.9-3.8,1.7
	C7,4.2,6,5.1,5.1,6.2C4.8,6.4,4.6,6.7,4.4,7C4.2,7.2,4,7.5,3.8,7.8C3.4,8.4,3.1,9,2.8,9.6l-0.2,0.5c-0.1,0.2,0,0.5,0.2,0.6
	c0,0,0,0,0,0c0.2,0.1,0.5,0,0.6-0.3L3.6,10c0.3-0.6,0.6-1.1,0.9-1.7C4.8,8.1,5,7.8,5.2,7.6c0.2-0.3,0.4-0.5,0.6-0.7
	c0.9-1,1.8-1.8,2.9-2.5c1.1-0.7,2.3-1.2,3.5-1.6c1.2-0.3,2.5-0.5,3.8-0.5c7.6,0,13.8,6.2,13.8,13.8S23.6,29.8,16,29.8
	S2.3,23.6,2.3,16c0,0,0,0,0,0l0-0.9l0-0.5l0.1-0.5c0-0.3-0.1-0.5-0.4-0.6c-0.1,0-0.3,0-0.4,0.1c-0.1,0.1-0.2,0.2-0.2,0.3l-0.1,0.5
	l0,0.5l0,1C1.3,24.1,7.9,30.7,16,30.7"/>
<g>
	<defs>
		<path id="SVGID_1_" d="M14.4,4c-5.7,1-9.9,5.9-9.9,11.6c0,0.5,0,1,0.1,1.6c0,0.2,0.2,0.4,0.5,0.4H12c0.2,0,0.5-0.2,0.5-0.4
			c0.2-1.7,1.5-3.1,3.2-3.4c0.2,0,0.5-0.1,0.7-0.1c0.6,0,1.2,0.1,1.7,0.4c0.8,0.4,1.4,1,1.8,1.8l0,0c0.2,0.4,0.3,0.9,0.4,1.3
			c0,0.2,0.2,0.4,0.5,0.4h5.3c0.2,0,0.5-0.2,0.5-0.4c0.1-0.5,0.1-1,0.1-1.5c0-6.2-4.8-11.4-11.1-11.8C15.2,3.9,14.8,3.9,14.4,4"/>
	</defs>
	<clipPath id="SVGID_2_">
		<use xlink:href="#SVGID_1_"  style="overflow:visible;"/>
	</clipPath>
	<g class="st7">
		
			<linearGradient id="SVGID_3_" gradientUnits="userSpaceOnUse" x1="-2311.9639" y1="1555.4332" x2="-2311.7363" y2="1555.4332" gradientTransform="matrix(62.8908 62.8907 -101.2549 39.0623 302907.375 84648.1953)">
			<stop  offset="0" style="stop-color:#D2DEF2"/>
			<stop  offset="0.172" style="stop-color:#D2DEF2"/>
			<stop  offset="0.2" style="stop-color:#D2DEF2"/>
			<stop  offset="0.2" style="stop-color:#D9E1F3"/>
			<stop  offset="0.201" style="stop-color:#EAE8EF"/>
			<stop  offset="0.201" style="stop-color:#F6EEF1"/>
			<stop  offset="0.202" style="stop-color:#FEF3F3"/>
			<stop  offset="0.205" style="stop-color:#FEF3F2"/>
			<stop  offset="0.252" style="stop-color:#FEF3F2"/>
			<stop  offset="0.26" style="stop-color:#FEF3F2"/>
			<stop  offset="0.26" style="stop-color:#D2DEF2"/>
			<stop  offset="0.397" style="stop-color:#D2DEF2"/>
			<stop  offset="0.42" style="stop-color:#D2DEF2"/>
			<stop  offset="0.42" style="stop-color:#D9E1F3"/>
			<stop  offset="0.421" style="stop-color:#EAE8EF"/>
			<stop  offset="0.421" style="stop-color:#F6EEF1"/>
			<stop  offset="0.422" style="stop-color:#FEF3F3"/>
			<stop  offset="0.425" style="stop-color:#FEF3F2"/>
			<stop  offset="0.489" style="stop-color:#FEF3F2"/>
			<stop  offset="0.5" style="stop-color:#FEF3F2"/>
			<stop  offset="0.5" style="stop-color:#F7EFF1"/>
			<stop  offset="0.5" style="stop-color:#E6E5EE"/>
			<stop  offset="0.5" style="stop-color:#DBE2F1"/>
			<stop  offset="0.5" style="stop-color:#D4DFF0"/>
			<stop  offset="0.501" style="stop-color:#D2DEF2"/>
			<stop  offset="0.706" style="stop-color:#D2DEF2"/>
			<stop  offset="0.74" style="stop-color:#D2DEF2"/>
			<stop  offset="0.741" style="stop-color:#FEF3F2"/>
			<stop  offset="0.835" style="stop-color:#FEF3F2"/>
			<stop  offset="0.85" style="stop-color:#FEF3F2"/>
			<stop  offset="0.851" style="stop-color:#D2DEF2"/>
			<stop  offset="1" style="stop-color:#D2DEF2"/>
		</linearGradient>
		<polygon class="st8" points="-5.4,7.7 10.7,23.7 36.6,13.8 20.5,-2.3 		"/>
	</g>
</g>
<path class="st6" d="M28.2,17.6c0.1-0.5,0.1-1.1,0.1-1.6c0-6.8-5.5-12.3-12.3-12.3C9.3,3.7,3.8,9.2,3.7,16c0,0.5,0,1.1,0.1,1.6
	c0.1,0.5,0.5,0.8,1,0.8h6.8c0.5,0,0.9-0.4,1-0.9c0.2-1.9,1.9-3.3,3.8-3.1c1.6,0.2,2.9,1.4,3.1,3.1c0.1,0.5,0.5,0.9,1,0.9h6.8
	C27.7,18.4,28.2,18.1,28.2,17.6 M18.7,14.4l2.5-1.7c0,0,0.1,0,0.1,0c0,0,0,0.1,0,0.1l-1.7,2.4C19.3,15,19,14.7,18.7,14.4 M20.1,16.3
	l1.9-2.8c0.3-0.5,0.2-1.2-0.3-1.5c-0.4-0.3-0.9-0.3-1.2,0l-2.8,1.9c-2.3-0.9-4.8,0.1-5.8,2.4c-0.2,0.4-0.3,0.8-0.3,1.2l-6.8,0
	c-0.1-0.5-0.1-1-0.1-1.5C4.7,9.7,9.8,4.7,16,4.7c6.2,0,11.3,5.1,11.3,11.3c0,0.5,0,1-0.1,1.5h0l-6.8,0
	C20.4,17.1,20.3,16.7,20.1,16.3"/>
<path class="st6" d="M25.8,14.5C25.8,14.5,25.8,14.5,25.8,14.5c0-0.2-0.1-0.4-0.1-0.5c-0.1-0.5-0.2-0.9-0.4-1.3
	c0-0.1-0.1-0.3-0.2-0.4l0,0v0l0,0c-0.1-0.2-0.1-0.3-0.2-0.5s-0.1-0.3-0.2-0.4c-0.4-0.8-1-1.6-1.7-2.3l0,0l0,0
	c-0.7-0.7-1.4-1.2-2.2-1.7c-0.1-0.1-0.3-0.2-0.4-0.2C20.1,7.1,20,7,19.8,6.9l0,0h0l0,0c-0.1-0.1-0.3-0.1-0.4-0.2
	c-0.4-0.2-0.9-0.3-1.3-0.4c-0.2,0-0.3-0.1-0.5-0.1c0,0,0,0,0,0c-0.3,0-0.6-0.1-0.9-0.1c-0.4,0-0.8,0-1.2,0c-0.3,0-0.6,0.1-0.9,0.1
	c0,0,0,0,0,0c-0.2,0-0.3,0-0.5,0.1c-0.5,0.1-0.9,0.2-1.3,0.4c-0.1,0-0.3,0.1-0.4,0.2l0,0h0l0,0C12.1,7,11.9,7,11.8,7.1
	c-0.2,0.1-0.3,0.1-0.4,0.2c-0.8,0.4-1.6,1-2.3,1.7l0,0l0,0c-0.7,0.7-1.2,1.4-1.7,2.2c-0.1,0.1-0.2,0.3-0.2,0.4
	C7.1,11.9,7,12.1,7,12.2l0,0l0,0l0,0l0,0c-0.1,0.1-0.1,0.3-0.2,0.4c-0.2,0.4-0.3,0.9-0.4,1.3c0,0.2-0.1,0.3-0.1,0.5l0,0
	c0,0.3-0.1,0.6-0.1,0.9c0,0.2,0,0.4,0,0.6c0,0.3,0.2,0.5,0.5,0.5c0,0,0,0,0,0h1.5c0.3,0,0.5-0.2,0.5-0.5c0-0.3-0.2-0.5-0.5-0.5h-1v0
	c0-0.3,0-0.5,0.1-0.8c0,0,0,0,0,0c0-0.1,0-0.3,0.1-0.4c0.1-0.4,0.2-0.8,0.3-1.1l0.9,0.4c0.2,0.1,0.3,0,0.5-0.1
	c0.1-0.1,0.2-0.3,0.2-0.5c0-0.2-0.1-0.3-0.3-0.4l-0.9-0.4v0c0.1-0.1,0.1-0.2,0.2-0.4c0.3-0.6,0.7-1.2,1.2-1.7l0.7,0.7
	c0.2,0.2,0.5,0.2,0.7,0s0.2-0.5,0-0.7l-0.7-0.7c0.5-0.5,1.1-0.9,1.7-1.2C12,8.1,12.1,8.1,12.2,8l0.4,0.9c0.1,0.2,0.3,0.3,0.5,0.3
	c0.1,0,0.1,0,0.2,0c0.3-0.1,0.4-0.4,0.3-0.6c0,0,0,0,0,0l-0.4-0.9c0.4-0.1,0.8-0.2,1.2-0.3c0.1,0,0.3-0.1,0.4-0.1c0,0,0,0,0,0
	c0.3,0,0.5-0.1,0.8-0.1h0v1c0,0.3,0.2,0.5,0.5,0.5c0.3,0,0.5-0.2,0.5-0.5c0,0,0,0,0,0v-1h0c0.3,0,0.5,0,0.8,0.1l0,0
	c0.1,0,0.3,0,0.4,0.1c0.4,0.1,0.8,0.2,1.1,0.3l-0.4,0.9c0,0.1,0,0.3,0,0.4c0,0.1,0.1,0.2,0.3,0.3c0.1,0,0.1,0,0.2,0
	c0.2,0,0.4-0.1,0.5-0.3L19.9,8l0,0c0.1,0.1,0.2,0.1,0.4,0.2c0.6,0.3,1.2,0.7,1.7,1.2l-0.7,0.7c-0.2,0.2-0.2,0.5,0,0.7
	c0.2,0.2,0.5,0.2,0.7,0l0.7-0.7c0.5,0.5,0.9,1.1,1.2,1.7c0.1,0.1,0.1,0.2,0.2,0.4l-0.9,0.4c-0.3,0.1-0.4,0.4-0.3,0.6
	s0.4,0.4,0.6,0.3l0,0l0.9-0.4c0.1,0.4,0.2,0.8,0.3,1.2c0,0.1,0.1,0.3,0.1,0.4c0,0,0,0,0,0c0,0.3,0.1,0.5,0.1,0.8v0h-1
	c-0.3,0-0.5,0.2-0.5,0.5c0,0.3,0.2,0.5,0.5,0.5h1.5c0.3,0,0.5-0.2,0.5-0.5c0,0,0,0,0,0c0-0.2,0-0.4,0-0.6
	C25.8,15.1,25.8,14.8,25.8,14.5"/>
<path class="st6" d="M16.5,20.4C16.6,20.4,16.6,20.3,16.5,20.4c0.2-0.1,0.3-0.1,0.5-0.1c0,0,0,0,0,0c0.3-0.1,0.5-0.3,0.8-0.5
	c0,0,0.1-0.1,0.1-0.2c0.1-0.1,0.1-0.1,0.2-0.2c0-0.1,0.1-0.1,0.1-0.2c0-0.1,0.1-0.1,0.1-0.2c0-0.1,0-0.1,0.1-0.2
	c0-0.1,0.1-0.2,0.1-0.3c0-0.1,0-0.1,0-0.2c0-0.1,0-0.2,0-0.3c0-0.1,0-0.2,0-0.3c0-0.1,0-0.1,0-0.2c0-0.1,0-0.2-0.1-0.3
	c0-0.1,0-0.1-0.1-0.2c0-0.1-0.1-0.1-0.1-0.2c0-0.1-0.1-0.1-0.1-0.2c-0.1-0.1-0.1-0.2-0.2-0.2c0,0-0.1-0.1-0.1-0.2
	c-0.2-0.2-0.5-0.4-0.8-0.5c0,0,0,0,0,0c-0.1-0.1-0.3-0.1-0.4-0.1c0,0-0.1,0-0.1,0c-0.3-0.1-0.7-0.1-1,0c0,0-0.1,0-0.1,0
	c-0.1,0-0.3,0.1-0.4,0.1l0,0c-0.3,0.1-0.5,0.3-0.8,0.5c0,0-0.1,0.1-0.1,0.2c-0.1,0.1-0.1,0.1-0.2,0.2c0,0.1-0.1,0.1-0.1,0.2
	c0,0.1-0.1,0.1-0.1,0.2c0,0.1,0,0.1-0.1,0.2c0,0.1-0.1,0.2-0.1,0.3c0,0.1,0,0.1,0,0.2c0,0.1,0,0.2,0,0.3c0,0.1,0,0.2,0,0.3
	c0,0.1,0,0.1,0,0.2c0,0.1,0,0.2,0.1,0.3c0,0.1,0,0.1,0.1,0.2c0,0.1,0.1,0.1,0.1,0.2c0,0.1,0.1,0.1,0.1,0.2c0.1,0.1,0.1,0.2,0.2,0.2
	c0,0,0.1,0.1,0.1,0.2c0.2,0.2,0.5,0.4,0.8,0.5c0,0,0,0,0,0c0.1,0.1,0.3,0.1,0.4,0.1c0,0,0.1,0,0.1,0C15.9,20.4,16.2,20.4,16.5,20.4z
	 M14.9,18.9c0,0-0.1-0.1-0.1-0.1c0,0,0-0.1-0.1-0.1c0,0,0-0.1-0.1-0.1c0,0,0-0.1,0-0.1c0,0,0-0.1,0-0.1c0-0.1,0-0.1,0-0.2
	c0-0.1,0-0.2,0-0.3c0-0.1,0-0.1,0-0.2c0-0.1,0-0.1,0-0.1c0,0,0-0.1,0-0.1c0,0,0-0.1,0.1-0.1c0,0,0-0.1,0.1-0.1c0,0,0.1-0.1,0.1-0.1
	c0.1-0.2,0.3-0.3,0.5-0.4l0,0c0.1,0,0.2-0.1,0.2-0.1c0,0,0,0,0,0c0.2,0,0.4,0,0.6,0c0,0,0,0,0,0c0.1,0,0.2,0,0.2,0.1c0,0,0,0,0,0
	c0.2,0.1,0.4,0.2,0.5,0.4c0,0,0.1,0.1,0.1,0.1c0,0,0,0.1,0.1,0.1c0,0,0,0.1,0.1,0.1c0,0,0,0.1,0,0.1c0,0,0,0.1,0,0.1
	c0,0.1,0,0.1,0,0.2c0,0.1,0,0.2,0,0.3c0,0.1,0,0.1,0,0.2c0,0.1,0,0.1,0,0.1c0,0,0,0.1,0,0.1c0,0,0,0.1-0.1,0.1c0,0,0,0.1-0.1,0.1
	c0,0-0.1,0.1-0.1,0.1c-0.5,0.6-1.4,0.7-2,0.2c0,0,0,0-0.1-0.1C15,19,15,18.9,14.9,18.9z"/>
<path class="st6" d="M12.1,22.4c0.3,0,0.5-0.2,0.5-0.5c0-0.3-0.2-0.5-0.5-0.5c0,0,0,0,0,0h-1c-0.5,0-1,0.4-1,1v3.4
	c0,0.3,0.2,0.5,0.5,0.5c0.3,0,0.5-0.2,0.5-0.5v-1.5h1c0.3,0,0.5-0.2,0.5-0.5c0-0.3-0.2-0.5-0.5-0.5h-1v-1L12.1,22.4L12.1,22.4z"/>
<path class="st6" d="M13.6,21.4c-0.3,0-0.5,0.2-0.5,0.5c0,0,0,0,0,0v3c0,0.8,0.7,1.5,1.5,1.5c0.8,0,1.5-0.7,1.5-1.5v-3
	c0-0.3-0.2-0.5-0.5-0.5c-0.3,0-0.5,0.2-0.5,0.5v3c0,0.3-0.2,0.5-0.5,0.5c-0.3,0-0.5-0.2-0.5-0.5v-3C14.1,21.6,13.9,21.4,13.6,21.4
	C13.6,21.4,13.6,21.4,13.6,21.4"/>
<path class="st6" d="M18.5,22.4c0.3,0,0.5-0.2,0.5-0.5c0-0.3-0.2-0.5-0.5-0.5h-1c-0.5,0-1,0.4-1,1v3c0,0.5,0.4,1,1,1h1
	c0.3,0,0.5-0.2,0.5-0.5c0-0.3-0.2-0.5-0.5-0.5h-1v-1h1c0.3,0,0.5-0.2,0.5-0.5c0-0.3-0.2-0.5-0.5-0.5h-1v-1L18.5,22.4L18.5,22.4z"/>
<path class="st6" d="M20,21.4c-0.3,0-0.5,0.2-0.5,0.5c0,0,0,0,0,0v3.9c0,0.3,0.2,0.5,0.5,0.5c0,0,0,0,0,0h2c0.3,0,0.5-0.2,0.5-0.5
	c0-0.3-0.2-0.5-0.5-0.5h-1.5v-3.4C20.5,21.6,20.2,21.4,20,21.4"/>
</svg>
