<?xml version="1.0" encoding="utf-8"?>
<!-- Generator: Adobe Illustrator 23.0.0, SVG Export Plug-In . SVG Version: 6.00 Build 0)  -->
<svg version="1.1" id="Layer_1" xmlns="http://www.w3.org/2000/svg" xmlns:xlink="http://www.w3.org/1999/xlink" x="0px" y="0px"
	 width="32px" height="32px" viewBox="0 0 32 32" style="enable-background:new 0 0 32 32;" xml:space="preserve">
<style type="text/css">
	.st0{fill:url(#SVGID_1_);}
	.st1{fill:url(#SVGID_2_);}
	.st2{fill:#606161;}
</style>
<g id="on_off.psd_1_">
</g>
<linearGradient id="SVGID_1_" gradientUnits="userSpaceOnUse" x1="26.285" y1="28.285" x2="5.7331" y2="7.7331" gradientTransform="matrix(1 0 0 -1 0 34)">
	<stop  offset="0" style="stop-color:#FFFFFF"/>
	<stop  offset="1" style="stop-color:#D5D8DD"/>
</linearGradient>
<circle class="st0" cx="16" cy="16" r="14.5"/>
<linearGradient id="SVGID_2_" gradientUnits="userSpaceOnUse" x1="7.2492" y1="9.2493" x2="24.769" y2="26.769" gradientTransform="matrix(1 0 0 -1 0 34)">
	<stop  offset="0" style="stop-color:#FFFFFF"/>
	<stop  offset="1" style="stop-color:#D5D8DD"/>
</linearGradient>
<circle class="st1" cx="16" cy="16" r="12.3"/>
<g>
	<path class="st2" d="M22.5,16.2c0-0.3,0-0.8-0.2-1.1c-0.3-1.5-0.9-2.8-2-3.7c-0.3-0.2-0.5-0.3-0.8-0.2c-0.3,0-0.6,0.3-0.8,0.6
		c-0.2,0.3,0,0.6,0.3,0.9c1.2,1.2,1.7,2.6,1.4,4.3c-0.3,2-2.2,3.5-4.2,3.7c-1.4,0.2-2.8-0.5-3.7-1.5c-1.1-1.1-1.4-2.5-1.1-4
		c0.2-0.9,0.6-1.7,1.4-2.5c0.3-0.3,0.5-0.8,0.2-1.1c-0.2-0.5-0.9-0.6-1.4-0.2c-1.9,1.7-2.5,3.7-2,6c0.8,3.4,4.2,5.7,7.7,4.9
		C20.3,21.9,22.5,19.2,22.5,16.2z M15.1,12.1c0,0.8,0,1.5,0,2.3c0,0.5,0.5,0.9,0.9,0.9s0.9-0.5,0.9-0.9c0-1.5,0-2.9,0-4.5
		c0,0,0,0,0-0.2c0-0.5-0.5-0.9-0.9-0.9s-0.9,0.5-0.9,0.9C15.1,10.6,15.1,11.4,15.1,12.1z"/>
	<path class="st2" d="M22.5,16.2c0,3.1-2.2,5.7-5.1,6.3c-3.4,0.8-6.9-1.5-7.7-4.9c-0.5-2.3,0.2-4.5,2-6.2c0.5-0.5,1.2-0.3,1.5,0.2
		c0.2,0.6,0,0.9-0.3,1.2c-0.8,0.6-1.2,1.5-1.4,2.5c-0.3,1.5,0,2.9,1.1,4c0.9,1.1,2.2,1.5,3.7,1.5c2-0.2,3.9-1.7,4.2-3.7
		c0.3-1.7-0.2-3.1-1.4-4.3c-0.3-0.3-0.3-0.6-0.3-0.9c0.2-0.3,0.3-0.6,0.8-0.6c0.3,0,0.6,0,0.8,0.2c1.1,1.1,1.9,2.3,2,3.7
		C22.3,15.5,22.5,15.8,22.5,16.2z"/>
	<path class="st2" d="M15.1,12.1c0-0.8,0-1.5,0-2.3c0-0.5,0.5-0.9,0.9-0.9s0.9,0.3,0.9,0.9c0,0,0,0,0,0.2c0,1.5,0,2.9,0,4.5
		c0,0.6-0.5,0.9-0.9,0.9s-0.9-0.5-0.9-0.9C15.1,13.7,15.1,12.9,15.1,12.1z"/>
</g>
</svg>
