<?xml version="1.0" encoding="utf-8"?>
<!-- Generator: Adobe Illustrator 23.0.0, SVG Export Plug-In . SVG Version: 6.00 Build 0)  -->
<svg version="1.1" id="Layer_1" xmlns="http://www.w3.org/2000/svg" xmlns:xlink="http://www.w3.org/1999/xlink" x="0px" y="0px"
	 width="32px" height="32px" viewBox="0 0 32 32" style="enable-background:new 0 0 32 32;" xml:space="preserve">
<style type="text/css">
	.st0{fill:#6F9BD2;}
	.st1{fill:#9AB9E0;}
	.st2{fill:#81A8D8;}
	.st3{fill:#91B4DD;}
	.st4{fill:#B8C8E2;}
	.st5{fill:#EDEFF8;}
	.st6{fill:#FFFFFF;}
	.st7{fill:#9CB7DC;}
	.st8{fill:#D5DFF0;}
	.st9{fill:#9DB8DD;}
	.st10{fill:#D4E0F0;}
	.st11{fill:#E4EBF5;}
	.st12{fill:#E1E9F5;}
	.st13{fill:#709CD2;}
</style>
<title>quat</title>
<path class="st0" d="M16,30.8h-0.2c-0.1,0-0.2,0-0.3,0h-0.3c-0.5,0-1-0.1-1.5-0.3c-1.1-0.4-2.2-1-3-1.8c-0.9-0.9-1.4-2.1-1.4-3.4
	c0-2.3,0.9-4.5,2.4-6.2c0,0,0,0,0.1-0.1c0.2-0.3,0.2-0.4-0.2-0.4c-0.5-0.1-1.1,0-1.6,0.2c-0.9,0.4-1.7,1-2.3,1.7
	c-0.6,0.5-1.4,0.8-2.2,0.8c-0.1,0-0.2-0.1-0.2,0c0,0.1,0,0.2,0.1,0.2c0.4,0.9,1,1.7,1.6,2.4c0.4,0.5,0.8,0.9,1.3,1.3
	c0.1,0.1,0.2,0.2,0.2,0.3c0.1,0.2,0.1,0.5-0.1,0.7c-0.2,0.2-0.5,0.2-0.8,0.1c-0.2-0.1-0.3-0.3-0.5-0.4c-1.1-1.1-2.1-2.3-2.8-3.7
	c-0.2-0.4-0.4-0.8-0.6-1.3c-0.1-0.2-0.3-0.4-0.5-0.6c-1-0.8-1.7-2.1-1.8-3.4c0-0.1,0-0.2-0.1-0.4V15c0-0.2,0.1-0.5,0.1-0.7
	c0-0.4,0.2-0.8,0.4-1.2c0.1-0.3,0.5-0.4,0.8-0.3c0.1,0,0.1,0.1,0.2,0.1c0.2,0.2,0.2,0.5,0.1,0.8c-0.2,0.5-0.3,0.9-0.4,1.4
	c-0.1,1.1,0.1,2.1,0.6,3.1c0.4,0.9,1.2,1.5,2.1,1.7c0.1,0,0.3,0,0.4,0c0.4,0,0.8-0.1,1.1-0.4c0.7-0.7,1.5-1.3,2.4-1.7
	c0.4-0.2,0.8-0.4,1.3-0.5c0.2-0.1,0.4-0.1,0.6-0.1c0.2,0,0.3-0.1,0.2-0.3c-0.1-0.7-0.1-1.4,0-2.1c0.2-0.7,0.5-1.4,0.9-2
	c0.3-0.3,0.3-0.4-0.1-0.6c-0.7-0.6-1.5-1-2.3-1.4c-0.2-0.1-0.4-0.1-0.6-0.1c-0.9-0.3-1.9-0.5-2.8-0.4c-0.1,0-0.2,0-0.3,0
	c-0.3,0.1-0.6,0.2-0.9,0.4c-0.1,0-0.2,0.1-0.2,0.1c-0.3,0.1-0.6,0-0.8-0.3C4,10.3,4.1,10,4.3,9.8c0.5-0.3,1-0.5,1.6-0.6
	c1.4-0.2,2.8,0,4.1,0.6c1.1,0.4,2.1,1,2.9,1.8c0.3,0.3,0.4,0.2,0.5-0.2c0.1-0.5,0-1-0.3-1.5c-0.4-0.8-0.9-1.6-1.6-2.3
	c-0.6-0.6-0.9-1.5-0.9-2.3c0-0.3,0-0.3-0.2-0.2c-0.9,0.4-1.7,1-2.4,1.6c-0.5,0.4-1,0.9-1.4,1.4c0,0.1-0.1,0.1-0.1,0.1
	C6.3,8.4,6,8.4,5.7,8.2C5.5,8,5.5,7.6,5.7,7.4c0.4-0.5,0.8-1,1.3-1.4C8,5.2,9,4.5,10.1,4c0.4-0.2,0.8-0.4,1.2-0.5
	c0.1,0,0.3-0.1,0.3-0.2c0.9-1.2,2.3-1.9,3.8-2c0,0,0.1,0,0.1,0h0.1c0.1,0,0.2,0,0.3,0h1c0.2,0,0.4,0.1,0.6,0.1c0.5,0,1,0.2,1.4,0.4
	C20.1,2.2,21.2,3,22,4.1c0.5,0.7,0.8,1.5,0.9,2.4c0.1,1.4-0.2,2.8-0.8,4c-0.4,0.9-1,1.8-1.6,2.6c-0.2,0.2-0.2,0.4,0.1,0.4
	c0.5,0.1,1.1,0,1.5-0.2c0.9-0.4,1.7-1,2.3-1.7c0.6-0.6,1.5-0.9,2.3-0.8c0.3,0,0.3,0,0.2-0.2c-0.7-1.4-1.7-2.7-2.9-3.8
	c-0.1-0.1-0.2-0.2-0.3-0.3c-0.2-0.2-0.1-0.6,0.1-0.8c0.2-0.2,0.5-0.2,0.7-0.1c0.1,0.1,0.3,0.2,0.4,0.3c1.4,1.2,2.5,2.8,3.3,4.5
	c0.1,0.3,0.2,0.5,0.3,0.8c0,0.1,0.1,0.2,0.2,0.3c0.9,0.7,1.6,1.7,1.9,2.8c0.1,0.4,0.1,0.7,0.1,1.1V17c0,0.2-0.1,0.4-0.1,0.6
	c-0.2,1.1-0.7,2.2-1.4,3c-0.6,0.9-1.4,1.6-2.4,2c-0.8,0.3-1.7,0.4-2.5,0.3c-2-0.2-3.9-1-5.4-2.4c-0.1-0.1-0.2-0.2-0.3-0.2
	c-0.1,0.1-0.1,0.2-0.2,0.3c-0.1,0.5,0,1,0.2,1.5c0.4,0.8,0.9,1.6,1.6,2.2c0.6,0.6,0.9,1.5,0.9,2.3c0,0.3,0,0.3,0.3,0.2
	c1.4-0.7,2.7-1.7,3.8-2.9c0-0.1,0.1-0.1,0.2-0.2c0.2-0.2,0.6-0.2,0.8,0c0.2,0.2,0.3,0.6,0.1,0.8c0,0,0,0,0,0
	c-0.5,0.7-1.2,1.3-1.8,1.8c-1.1,0.9-2.3,1.6-3.7,2.1c-0.1,0.1-0.3,0.2-0.4,0.3c-0.7,0.9-1.7,1.5-2.8,1.8c-0.3,0.1-0.7,0.1-1.1,0.1
	h-0.2C16.2,30.7,16.1,30.7,16,30.8z"/>
<path class="st1" d="M15.9,1.2c-0.1,0.1-0.2,0.1-0.3,0H15.9z"/>
<path class="st2" d="M15.4,30.8c0.1-0.1,0.2-0.1,0.3,0H15.4z"/>
<path class="st3" d="M16,30.8c0.1-0.1,0.2-0.1,0.3,0H16z"/>
<path class="st4" d="M25.9,21.7c-0.7,0.1-1.3,0.1-2-0.1c-1.5-0.3-3-1-4.2-2c-0.1-0.1-0.2-0.2,0-0.4c1.1-1.2,1.5-2.8,1.1-4.3
	c0-0.2,0-0.3,0.2-0.3c1.2-0.1,2.3-0.6,3.2-1.3c0.3-0.2,0.6-0.5,0.9-0.8c0.4-0.4,1-0.7,1.6-0.6c0.6,0.2,1.1,0.6,1.4,1.2
	c0.6,1,0.9,2.2,0.8,3.3c0,0.9-0.3,1.7-0.7,2.5c-0.4,0.9-0.9,1.6-1.6,2.3C26.4,21.4,26.1,21.6,25.9,21.7z"/>
<path class="st4" d="M5,20c0.1,0,0.1-0.1,0-0.1c-1-0.8-1.6-2-1.8-3.3c-0.2-1.1,0-2.2,0.4-3.2c0.4-1,1-1.9,1.7-2.6
	c0.2-0.2,0.4-0.3,0.6-0.5c0-0.1,0.1-0.1,0.2-0.1c0.6-0.1,1.2-0.1,1.7,0c0.4,0.1,0.8,0.2,1.2,0.3c0.9,0.4,1.8,0.9,2.5,1.6
	c0.2,0.1,0.2,0.3,0.1,0.5c0,0-0.1,0.1-0.1,0.1c-1.1,1-1.6,2.6-1.3,4.1c0,0.2,0.1,0.3-0.1,0.5c-0.4,0.1-0.9,0.3-1.3,0.5
	c-1.1,0.4-2,1-2.9,1.8C6,19.9,5.7,20,5.5,20.1C5.3,20.1,5.2,20.1,5,20z"/>
<path class="st4" d="M19,12.1c-0.3-0.2-0.6-0.4-1-0.6c-0.7-0.3-1.6-0.5-2.4-0.4c-0.1-0.1-0.2-0.2-0.2-0.4c-0.1-0.8-0.5-1.5-0.9-2.2
	c-0.2-0.4-0.5-0.7-0.9-1c-1.1-1-1.2-2.6-0.4-3.7c0.3-0.6,0.8-1,1.4-1.3c0.1,0,0.1,0,0.2-0.1c0.9-0.2,1.9-0.2,2.8,0.1
	c1.1,0.4,2.1,1.2,2.7,2.3c0.3,0.6,0.5,1.2,0.5,1.9c0,1.9-0.5,3.7-1.6,5.2C19.2,11.9,19.2,12,19,12.1z"/>
<path class="st4" d="M13.6,20.3c0.5,0.3,1.1,0.4,1.7,0.6c0.4,0.1,0.7,0,1.1,0c0.1,0.1,0.2,0.2,0.2,0.3c0.2,0.9,0.6,1.8,1.1,2.5
	c0.3,0.4,0.6,0.7,0.9,1c0.8,1,0.9,2.4,0.2,3.5c-0.3,0.6-0.9,1.1-1.5,1.3c-0.9,0.3-1.9,0.3-2.9,0c0-0.1-0.1-0.1-0.2-0.1
	c-0.9-0.3-1.6-0.9-2.2-1.7c-0.7-1-1-2.2-0.8-3.3c0.1-1.2,0.5-2.4,1.1-3.5c0.1-0.2,0.2-0.4,0.4-0.6c0.1-0.1,0.2-0.2,0.3-0.3
	C13.1,20.1,13.4,20.2,13.6,20.3z"/>
<path class="st5" d="M16.7,19.9c-2.1,0.4-4.2-1-4.6-3.1s1-4.2,3.1-4.6c0.1,0,0.1,0,0.2,0c0.4-0.1,0.9-0.1,1.3,0c1.2,0.5,2,1.7,2.2,3
	c0.3,1.3,0,2.6-0.9,3.6C17.8,19.3,17.3,19.6,16.7,19.9z"/>
<path class="st6" d="M12.9,20.1c-0.8,1-1.3,2.2-1.5,3.5c-0.2,0.8-0.2,1.6-0.1,2.5c0.3,1.2,1,2.3,2.1,2.9c0.3,0.2,0.5,0.3,0.8,0.5
	c0,0.1,0,0.1-0.1,0.1c-1.4-0.4-2.6-1.2-3.4-2.4c-0.5-0.9-0.7-2-0.5-3c0.3-1.6,1-3.1,2-4.4c0.2-0.2,0.3-0.3,0.5,0
	c0.1,0.1,0.1,0.1,0.2,0.2C13,20,13,20.1,12.9,20.1z"/>
<path class="st7" d="M19,12.1c0.2-0.4,0.5-0.7,0.6-1c0.8-1.4,1.2-3,1.1-4.6c-0.1-0.9-0.5-1.8-1.1-2.4c-0.6-0.6-1.3-1.1-2-1.5
	c1,0.3,1.8,0.7,2.6,1.4c0.8,0.6,1.3,1.5,1.5,2.5c0.1,0.9,0,1.7-0.3,2.5c-0.3,1.2-0.9,2.3-1.7,3.3C19.5,12.5,19.4,12.5,19,12.1z"/>
<path class="st7" d="M25.9,21.7c0.3-0.2,0.6-0.5,0.9-0.8c1.1-1.1,1.7-2.5,1.9-4c0.2-1.6-0.2-3.1-1.3-4.3c-0.2-0.3-0.5-0.5-0.8-0.6
	c0.9,0.1,1.7,0.5,2.2,1.2c0.7,1,1,2.2,1,3.3c-0.1,1-0.4,2-1,2.9c-0.4,0.8-1.1,1.4-1.8,1.9C26.6,21.5,26.2,21.6,25.9,21.7z"/>
<path class="st6" d="M14.8,2.5C13.7,3,13,4.1,12.9,5.3c-0.1,0.8,0.2,1.5,0.8,2.1c0.7,0.7,1.3,1.6,1.7,2.5c0.2,0.4,0.2,0.8,0.2,1.2
	c-0.3,0-0.5,0.1-0.8,0.1c-0.1,0-0.2,0-0.2-0.1c-0.1-1.5-0.8-2.9-1.9-3.9c-1-0.9-1.1-2.5-0.1-3.5c0.1-0.1,0.3-0.3,0.4-0.4
	C13.5,2.9,14.1,2.6,14.8,2.5C14.8,2.4,14.8,2.4,14.8,2.5z"/>
<path class="st7" d="M17.2,29.5c0.5-0.3,1-0.8,1.4-1.3c0.8-1.1,0.6-2.7-0.4-3.6c-0.8-0.8-1.4-1.8-1.8-2.9c-0.1-0.2-0.1-0.5-0.1-0.7
	c0.2,0,0.5-0.1,0.7-0.1c0.1,0,0.2,0,0.3,0.2c0.1,1.3,0.7,2.6,1.6,3.5c0.2,0.2,0.4,0.4,0.6,0.7c0.4,0.5,0.6,1.2,0.5,1.8
	C19.7,28.3,18.6,29.3,17.2,29.5z"/>
<path class="st8" d="M16.7,19.9c0.5-0.3,1-0.8,1.4-1.3c0.9-1.3,1.1-3,0.4-4.4c-0.4-0.8-0.9-1.5-1.6-1.9c-0.1,0-0.1-0.1-0.2-0.1
	c1.5,0.3,2.7,1.4,3.1,3c0.5,2.1-0.8,4.2-2.9,4.7C16.9,19.8,16.8,19.8,16.7,19.9z"/>
<path class="st7" d="M10.3,17.4c-0.1-0.5-0.2-1.1-0.2-1.7c0-1,0.4-1.9,1-2.6c0.1-0.2,0.2-0.3,0.4-0.4c0.2-0.1,0.2-0.2,0-0.4
	c-0.7-0.7-1.5-1.2-2.3-1.7c0,0,0,0-0.1-0.1c0.9,0.3,1.8,0.7,2.5,1.2c0.2,0.2,0.5,0.4,0.7,0.6c0.1,0.1,0.1,0.2,0,0.3
	c-0.7,0.7-1.1,1.7-1.2,2.6c-0.1,0.6-0.1,1.1,0.1,1.7c0,0.2,0,0.3-0.2,0.3C10.8,17.3,10.5,17.4,10.3,17.4z"/>
<path class="st7" d="M5.5,20.1c0.8-0.8,1.6-1.4,2.6-1.9C8.4,18,8.7,17.9,9,17.9c-0.8,0.5-1.6,1-2.3,1.7C6.4,19.9,6,20.1,5.5,20.1z"
	/>
<path class="st9" d="M12.9,20.1C13,20,13,20,13,19.9l0.6,0.4C13.3,20.3,13.1,20.2,12.9,20.1z"/>
<path class="st10" d="M14.8,2.5L14.8,2.5c0-0.1,0.1-0.1,0.1-0.1C14.9,2.5,14.8,2.5,14.8,2.5z"/>
<path class="st11" d="M6.2,10.3c-0.1,0-0.1,0.1-0.2,0.1l-0.1-0.1C6,10.3,6.1,10.3,6.2,10.3z"/>
<path class="st12" d="M14.1,29.5L14.1,29.5c0.1,0,0.2,0,0.2,0.1C14.3,29.5,14.2,29.5,14.1,29.5z"/>
<path class="st13" d="M3.7,11.7c0,0.3-0.2,0.5-0.5,0.5c-0.3,0-0.5-0.2-0.5-0.4c0,0,0,0,0,0c0-0.3,0.2-0.5,0.5-0.5
	C3.5,11.2,3.7,11.4,3.7,11.7z"/>
<path class="st0" d="M18.4,16c0,1.3-1.1,2.4-2.5,2.4c-1.3,0-2.4-1.1-2.4-2.5c0-1.4,1.1-2.4,2.5-2.4c0,0,0,0,0,0
	C17.4,13.6,18.4,14.7,18.4,16C18.4,16,18.4,16,18.4,16z"/>
<path class="st4" d="M15.8,17.4c-0.8-0.1-1.4-0.8-1.3-1.6c0.1-0.7,0.6-1.2,1.3-1.3c0.2,0,0.3,0.1,0.4,0.2c0.5,0.7,0.5,1.7,0,2.5
	C16.1,17.4,16,17.4,15.8,17.4z"/>
<path class="st7" d="M15.8,17.4c0.8-0.7,0.9-1.9,0.2-2.7c-0.1-0.1-0.1-0.1-0.2-0.2c0.7-0.1,1.4,0.3,1.6,1c0.2,0.8-0.2,1.6-1,1.8
	c-0.1,0-0.3,0.1-0.4,0.1C15.9,17.5,15.9,17.5,15.8,17.4z"/>
</svg>
