<?xml version="1.0" encoding="utf-8"?>
<!-- Generator: Adobe Illustrator 23.0.0, SVG Export Plug-In . SVG Version: 6.00 Build 0)  -->
<svg version="1.1" id="Layer_1" xmlns="http://www.w3.org/2000/svg" xmlns:xlink="http://www.w3.org/1999/xlink" x="0px" y="0px"
	 width="32px" height="32px" viewBox="0 0 32 32" style="enable-background:new 0 0 32 32;" xml:space="preserve">
<style type="text/css">
	.st0{fill:#A8C0E4;}
	.st1{fill:#E3E7F2;}
	.st2{fill:#FFFFFF;}
	.st3{fill:#5B84C3;}
</style>
<title>router</title>
<path class="st0" d="M5.8,7.4c0.5,0,1,0.4,1,1v10.3h-2V8.4C4.8,7.8,5.2,7.4,5.8,7.4"/>
<path class="st0" d="M16,7.4c0.5,0,1,0.4,1,1c0,0,0,0,0,0v10.3h-2V8.4C15.1,7.8,15.5,7.4,16,7.4"/>
<path class="st0" d="M26.3,7.4c0.5,0,1,0.4,1,1c0,0,0,0,0,0v10.3h-2V8.4C25.3,7.8,25.8,7.4,26.3,7.4"/>
<path class="st0" d="M2.9,18.2h26.4c0.5,0,1,0.4,1,1V24c0,0.5-0.4,1-1,1c0,0,0,0,0,0H2.9c-0.5,0-1-0.4-1-1v-4.9
	C1.9,18.6,2.3,18.2,2.9,18.2"/>
<path class="st1" d="M2.9,18.2h24.9c0.5,0,1,0.4,1,1V24c0,0.5-0.4,1-1,1H2.9c-0.5,0-1-0.4-1-1v-4.9C1.9,18.6,2.3,18.2,2.9,18.2"/>
<path class="st1" d="M8.7,20.1h14.7c0.5,0,1,0.4,1,1c0,0,0,0,0,0V25H7.7v-3.9C7.7,20.6,8.2,20.1,8.7,20.1"/>
<path class="st1" d="M4.8,20.1c0.5,0,1,0.4,1,1c0,0.5-0.4,1-1,1c-0.5,0-1-0.4-1-1c0,0,0,0,0,0C3.8,20.6,4.3,20.1,4.8,20.1"/>
<path class="st1" d="M27.3,20.1c0.5,0,1,0.4,1,1c0,0.5-0.4,1-1,1c-0.5,0-1-0.4-1-1C26.3,20.6,26.7,20.1,27.3,20.1
	C27.3,20.1,27.3,20.1,27.3,20.1"/>
<path class="st2" d="M2.9,25h1.5c-0.5,0-1-0.4-1-1v-4.9c0-0.5,0.4-1,1-1H2.9c-0.5,0-1,0.4-1,1V24C1.9,24.6,2.3,25,2.9,25"/>
<polygon class="st2" points="4.3,18.2 4.3,11.8 4.3,7.9 5.3,7.9 5.3,11.8 5.3,18.2 "/>
<path class="st3" d="M4.6,14.7C4.6,14.7,4.7,14.7,4.6,14.7c0.1,0,0.2,0,0.2,0c0.1,0,0.3-0.1,0.3-0.1c0.2-0.2,0.2-0.5,0-0.7
	c-0.2-0.2-0.5-0.2-0.7,0c0,0-0.1,0.1-0.1,0.2c-0.1,0.2,0,0.4,0.1,0.5L4.6,14.7C4.6,14.7,4.6,14.7,4.6,14.7"/>
<path class="st3" d="M10.2,22.1H9.7c-0.3,0-0.5,0.2-0.5,0.5c0,0.3,0.2,0.5,0.5,0.5c0,0,0,0,0,0h0.5c0.3,0,0.5-0.2,0.5-0.5
	C10.7,22.3,10.5,22.1,10.2,22.1"/>
<path class="st3" d="M12.6,22.1h-0.5c-0.3,0-0.5,0.2-0.5,0.5c0,0.3,0.2,0.5,0.5,0.5c0,0,0,0,0,0h0.5c0.3,0,0.5-0.2,0.5-0.5
	C13.1,22.3,12.9,22.1,12.6,22.1"/>
<path class="st3" d="M15.1,22.1h-0.5c-0.3,0-0.5,0.2-0.5,0.5c0,0.3,0.2,0.5,0.5,0.5c0,0,0,0,0,0h0.5c0.3,0,0.5-0.2,0.5-0.5
	C15.6,22.3,15.3,22.1,15.1,22.1C15.1,22.1,15.1,22.1,15.1,22.1"/>
<path class="st3" d="M17.5,22.1H17c-0.3,0-0.5,0.2-0.5,0.5c0,0.3,0.2,0.5,0.5,0.5c0,0,0,0,0,0h0.5c0.3,0,0.5-0.2,0.5-0.5
	C18,22.3,17.8,22.1,17.5,22.1"/>
<path class="st3" d="M22.4,22.1h-2.9c-0.3,0-0.5,0.2-0.5,0.5c0,0.3,0.2,0.5,0.5,0.5c0,0,0,0,0,0h2.9c0.3,0,0.5-0.2,0.5-0.5
	C22.9,22.3,22.7,22.1,22.4,22.1C22.4,22.1,22.4,22.1,22.4,22.1"/>
<path class="st3" d="M4.8,19.6c-0.8,0-1.5,0.7-1.5,1.5c0,0.8,0.7,1.5,1.5,1.5s1.5-0.7,1.5-1.5C6.3,20.3,5.6,19.6,4.8,19.6
	C4.8,19.6,4.8,19.6,4.8,19.6 M4.8,21.6c-0.3,0-0.5-0.2-0.5-0.5c0-0.3,0.2-0.5,0.5-0.5c0.3,0,0.5,0.2,0.5,0.5
	C5.3,21.4,5.1,21.6,4.8,21.6"/>
<path class="st3" d="M27.3,19.6c-0.8,0-1.5,0.7-1.5,1.5c0,0.8,0.7,1.5,1.5,1.5c0.8,0,1.5-0.7,1.5-1.5C28.8,20.3,28.1,19.6,27.3,19.6
	L27.3,19.6 M27.3,21.6c-0.3,0-0.5-0.2-0.5-0.5c0-0.3,0.2-0.5,0.5-0.5c0.3,0,0.5,0.2,0.5,0.5l0,0C27.8,21.4,27.6,21.6,27.3,21.6
	C27.3,21.6,27.3,21.6,27.3,21.6"/>
<path class="st3" d="M17.6,25.6h11.7c0.8,0,1.5-0.7,1.5-1.5v-4.9c0-0.8-0.7-1.5-1.5-1.5h-1.5V8c0-0.8-0.7-1.5-1.5-1.5
	c-0.8,0-1.5,0.7-1.5,1.5v9.8h-7.3V8c0-0.8-0.7-1.5-1.5-1.5c-0.8,0-1.5,0.7-1.5,1.5v9.8H7.3V8c0-0.8-0.7-1.5-1.5-1.5
	C5,6.6,4.4,7.2,4.4,8v4.4c0,0.3,0.2,0.5,0.5,0.5s0.5-0.2,0.5-0.5l0,0V8c0-0.3,0.2-0.5,0.5-0.5c0.3,0,0.5,0.2,0.5,0.5v9.8h-1v-1.5
	c0-0.3-0.2-0.5-0.5-0.5s-0.5,0.2-0.5,0.5v1.5H2.9c-0.8,0-1.5,0.7-1.5,1.5v4.9c0,0.8,0.7,1.5,1.5,1.5h11.7 M25.9,8
	c0-0.3,0.2-0.5,0.5-0.5s0.5,0.2,0.5,0.5v9.8h-1C25.9,17.8,25.9,8,25.9,8z M15.6,8c0-0.3,0.2-0.5,0.5-0.5c0.3,0,0.5,0.2,0.5,0.5
	c0,0,0,0,0,0v9.8h-1V8z M17.1,24.7H8.3v-3.4c0-0.3,0.2-0.5,0.5-0.5h14.7c0.3,0,0.5,0.2,0.5,0.5v3.4H17.1z M29.8,24.2
	c0,0.3-0.2,0.5-0.5,0.5h-4.4v-3.4c0-0.8-0.7-1.5-1.5-1.5H8.8c-0.8,0-1.5,0.7-1.5,1.5v3.4H2.9c-0.3,0-0.5-0.2-0.5-0.5v-4.9
	c0-0.3,0.2-0.5,0.5-0.5h26.4c0.3,0,0.5,0.2,0.5,0.5V24.2z"/>
</svg>
