<?xml version="1.0" encoding="utf-8"?>
<!-- Generator: Adobe Illustrator 23.0.0, SVG Export Plug-In . SVG Version: 6.00 Build 0)  -->
<svg version="1.1" id="Layer_1" xmlns="http://www.w3.org/2000/svg" xmlns:xlink="http://www.w3.org/1999/xlink" x="0px" y="0px"
	 width="32px" height="32px" viewBox="0 0 32 32" style="enable-background:new 0 0 32 32;" xml:space="preserve">
<style type="text/css">
	.st0{fill:url(#SVGID_1_);}
	.st1{fill:#777778;}
	.st2{fill:#C4C3C3;}
	.st3{fill:#AFAEAE;}
	.st4{fill:#DBDBDB;}
	.st5{fill:#CFCFCF;}
	.st6{fill:#969595;}
	.st7{fill:#8E8E8E;}
	.st8{fill:#C5C4C4;}
	.st9{fill:#A4A3A3;}
	.st10{fill:#9E9E9E;}
	.st11{fill:#A0A0A0;}
	.st12{fill:#7C7C7D;}
	.st13{fill:#969696;}
	.st14{fill:#6E6E6E;}
	.st15{fill:#9A9A9A;}
	.st16{fill:#D3D3D3;}
	.st17{fill:#D8D8D8;}
	.st18{fill:#B3B3B4;}
	.st19{fill:#BFBFBF;}
	.st20{fill:#ABABAA;}
	.st21{fill:#848484;}
	.st22{fill:#AFAFAF;}
	.st23{fill:#636363;}
	.st24{fill:#ACACAC;}
	.st25{fill:#B2B2B3;}
	.st26{fill:#D8D8D7;}
	.st27{fill:#C1C1C1;}
	.st28{fill:#D8D9D8;}
	.st29{fill:#A5A4A4;}
	.st30{fill:#BBBBBB;}
	.st31{fill:#D2D2D2;}
	.st32{fill:#B4B4B4;}
	.st33{fill:#C2C2C2;}
	.st34{fill:#A1A0A1;}
	.st35{fill:#808080;}
	.st36{fill:#BDBDBD;}
	.st37{fill:#868686;}
	.st38{fill:#CBCBCB;}
	.st39{fill:#E6E6E6;}
	.st40{fill:#D5D5D5;}
	.st41{fill:#C6C5C5;}
	.st42{fill:#BEBEBF;}
	.st43{fill:#C7C6C6;}
	.st44{fill:#AEAEAF;}
	.st45{fill:#CDCCCC;}
	.st46{fill:#CCCCCC;}
	.st47{fill:#BABABA;}
	.st48{fill:#A7A7A7;}
	.st49{fill:#686868;}
	.st50{fill:#AEAEAE;}
	.st51{fill:#B4B4B5;}
	.st52{fill:#989897;}
	.st53{fill:#E0E0DF;}
	.st54{fill:#CAC9C9;}
	.st55{fill:#828383;}
	.st56{fill:#272828;}
	.st57{fill:#2D2D2D;}
	.st58{fill:#D7D7D7;}
	.st59{fill:#898989;}
	.st60{fill:#787777;}
	.st61{fill:#1E1E1E;}
	.st62{fill:#8B8B8B;}
	.st63{fill:#90908F;}
	.st64{fill:#616161;}
	.st65{fill:#737373;}
	.st66{fill:#343434;}
	.st67{fill:#A5A5A5;}
	.st68{fill:#595A59;}
	.st69{fill:#1D1C1C;}
	.st70{fill:#EBEBEB;}
	.st71{fill:#131414;}
	.st72{fill:#565656;}
	.st73{fill:#707171;}
	.st74{fill:#BEBEBE;}
	.st75{fill:#242424;}
	.st76{fill:#7D7D7D;}
	.st77{fill:#646464;}
	.st78{fill:#C9C8C8;}
	.st79{fill:#6B6B6B;}
	.st80{fill:#888788;}
	.st81{fill:#CFCECE;}
	.st82{fill:#656565;}
	.st83{fill:#696969;}
	.st84{fill:#B5B5B6;}
	.st85{fill:#7A797A;}
	.st86{fill:#666666;}
	.st87{fill:#E4E4E4;}
	.st88{fill:#AAAAAA;}
	.st89{fill:#B2B2B2;}
	.st90{fill:#202121;}
	.st91{fill:#363535;}
	.st92{fill:#5B5B5B;}
	.st93{fill:#646565;}
	.st94{fill:#555555;}
	.st95{fill:#6C6C6C;}
	.st96{fill:#6F6F6F;}
	.st97{fill:#787878;}
	.st98{fill:#6F6F6E;}
	.st99{fill:#747474;}
	.st100{fill:#828283;}
	.st101{fill:#7E7E7E;}
	.st102{fill:#2C2C2C;}
	.st103{fill:#282828;}
	.st104{fill:#272726;}
	.st105{fill:#7E7F7F;}
	.st106{fill:#F3F3F3;}
	.st107{fill:#E8E7E7;}
	.st108{fill:#BABABB;}
	.st109{fill:#B0B0B1;}
	.st110{fill:#ADADAD;}
	.st111{fill:#BFBEBF;}
	.st112{fill:#818282;}
	.st113{fill:#878787;}
	.st114{fill:#7C7C7C;}
	.st115{fill:#626362;}
	.st116{fill:#8A8A8A;}
	.st117{fill:#ECECEC;}
	.st118{fill:#A9A9A9;}
</style>
<g id="switch_icon.psd">
	<g id="off">
		<linearGradient id="SVGID_1_" gradientUnits="userSpaceOnUse" x1="15.7786" y1="31.6176" x2="15.7786" y2="1.8529">
			<stop  offset="0" style="stop-color:#FFFFFF"/>
			<stop  offset="1" style="stop-color:#DADADA"/>
		</linearGradient>
		<path class="st0" d="M21.3,31.6h-11c-1.3,0-2.4-1.1-2.4-2.4v-25c0-1.3,1.1-2.4,2.4-2.4h11c1.3,0,2.4,1.1,2.4,2.4v25
			C23.6,30.6,22.6,31.6,21.3,31.6z"/>
		<g>
			<path class="st1" d="M13.8,27c0,0.5-0.2,0.9-0.5,1.2c-0.4,0.3-0.9,0.5-1.6,0.5s-1.3-0.2-1.6-0.5S9.6,27.5,9.6,27v-2.3
				c0-0.5,0.2-0.9,0.5-1.2c0.3-0.3,0.9-0.5,1.6-0.5s1.3,0.2,1.6,0.5s0.5,0.7,0.5,1.2V27z M10.7,26.9c0,0.6,0.3,0.8,1,0.8
				s1-0.3,1-0.8v-2.1c0-0.6-0.3-0.8-1-0.8s-1,0.3-1,0.8V26.9z"/>
			<path class="st1" d="M14.9,28.6v-5.5h3.4V24H16v1.5h2.2v0.9H16v2.2H14.9z"/>
			<path class="st1" d="M19.2,28.6v-5.5h3.4V24h-2.3v1.5h2.2v0.9h-2.2v2.2H19.2z"/>
		</g>
		<g>
			<path class="st2" d="M16.1,2.7c0.6-0.2,1.1,0,1.6,0.2c0,0.3-0.3,0.3-0.5,0.4c-0.5,0.3-0.6,0.8-0.5,1.3s0.4,0.7,0.8,0.9
				c0.5,0.2,0.9,0.1,1.2-0.3C19,5,19.1,4.9,19.1,4.7c0-0.1,0-0.3,0.2-0.2c0.2,0.4,0.3,0.8,0.3,1.2c-0.1,0.5-0.5,0.6-0.9,0.8
				c-0.9,0.4-1.8,0.1-2.5-0.8c-0.5-0.6-0.5-1.8-0.1-2.5C16.1,3,16.2,2.9,16.1,2.7z"/>
			<path class="st3" d="M16.1,2.7c0.4,0,0.2,0.2,0.1,0.3c-0.5,0.6-0.4,1.3-0.2,2c0.3,1.1,1.7,1.9,2.8,1.3c0.3-0.1,0.6-0.3,0.8-0.6
				c0,0.2,0,0.5-0.1,0.7c-0.1,0.3-0.3,0.5-0.6,0.6c-1.1,0.4-2.3,0.1-3.1-1c-0.6-0.8-0.9-1.8-0.2-2.9c0-0.1,0.1-0.1,0.1-0.2
				C15.8,2.7,16,2.8,16.1,2.7z"/>
			<path class="st4" d="M19.3,4.5c-0.1,0.7-0.6,1.2-1.2,1.2c-0.7,0-1.4-0.5-1.4-1c-0.1-1.1,0.2-1.3,1.1-1.7
				C18.5,3.3,19,3.8,19.3,4.5z"/>
			<path class="st5" d="M19,7.7c0.2,0.1,0.2,0.3,0.2,0.5c-0.1,1.1,0,2.3-0.6,3.3c0,0,0,0.1,0,0.2c0,0.1-0.1,0.1-0.2,0.1
				c-0.3-0.1-0.3-0.4-0.3-0.6c0-0.9,0-1.9,0-2.8c0-0.2,0.2-0.4,0.4-0.5c0.1-0.1,0.2-0.2,0.3-0.2C18.9,7.6,18.9,7.6,19,7.7z"/>
			<path class="st6" d="M19,7.7C18.9,7.7,18.9,7.7,19,7.7c-1.2,0.3-2.1,0.1-3-0.5c-1-0.7-1.5-1.7-1.6-2.9c0-0.3,0.1-0.6,0.2-0.9
				C14.7,3.2,14.9,3,15.2,3v0.1c-0.5,1-0.2,2.6,0.8,3.4c0.9,0.7,1.9,0.9,3,0.5c0.1,0,0.2-0.1,0.3,0C19.2,7.3,19.1,7.5,19,7.7z"/>
			<path class="st7" d="M14.6,3.4c0,0.4-0.1,0.9,0,1.3c0.2,1.6,1.6,2.9,3.2,2.9c0.3,0,0.7,0,1,0c0,0.1-0.1,0.2-0.2,0.2
				C18.2,8,17.8,8.1,17.4,8c-0.9-0.2-1.8-0.6-2.4-1.4c-0.2-0.3-0.4-0.6-0.6-0.9c0,0,0-0.1-0.1-0.1c-0.2-0.6-0.4-1.3-0.1-1.9
				C14.4,3.6,14.5,3.5,14.6,3.4z"/>
			<path class="st8" d="M13.1,12.6c0.4-0.5,0.9-0.7,1.4-1c0.4,0.2,0.3,0.5,0.3,0.8c-0.1,0.2-0.4,0.3-0.5,0.4
				c-0.2,0.1-0.4,0.2-0.4,0.4c0,0.1-0.1,0.2-0.2,0.3c-0.2,0-0.3,0.3-0.5,0.3C13,13.7,13,13.5,13,13.4C13,13.1,13,12.8,13.1,12.6z"/>
			<path class="st9" d="M15.3,3.1L15.3,3.1c0.1-0.2,0.2-0.3,0.4-0.3c0.1,0,0.2,0.1,0.1,0.2c-0.8,1.1-0.4,2.2,0.1,2.8
				c0.8,1.2,2,1.4,3.1,1c0.2-0.1,0.3-0.3,0.4-0.4c0,0.2,0,0.3-0.1,0.5c-0.7,0.7-2.4,0.5-3.3-0.2C15,5.8,14.6,4.2,15.3,3.1z"/>
			<path class="st10" d="M15.3,3.1c0,0.2,0,0.4-0.1,0.5c-0.4,1.2,0.4,2.6,1.5,3.2c0.9,0.5,1.8,0.4,2.7,0c0,0.1,0,0.2-0.1,0.2
				c-1.8,0.8-3.4,0-4.1-1.2c-0.4-0.7-0.4-1.6-0.3-2.4C15,3.3,15.1,3.2,15.3,3.1z"/>
			<path class="st11" d="M11.7,16.8c-0.2-0.7-0.1-1.3,0.1-2c0.3,0,0.6-0.2,0.9,0.2c0,0.4,0,0.8,0.1,1.1c0,0.1,0,0.3,0,0.4
				s0,0.2,0,0.3c0,0.1-0.1,0.2-0.2,0.2c-0.1,0-0.1,0-0.2-0.1c-0.1-0.2-0.3-0.3-0.4-0.5C11.9,16.5,12,16.8,11.7,16.8z"/>
			<path class="st12" d="M13.6,5c0-0.5,0.2-0.8,0.5-1.1C14.2,4,14.2,4,14.2,4.1c-0.2,0.5-0.1,1,0.1,1.5c0.5,1.3,1.4,2.1,2.8,2.5
				c0.2,0.1,0.4,0.1,0.5,0.4c-0.1,0.2-0.3,0.2-0.5,0.1c-0.3-0.1-0.5-0.2-0.8-0.2c-0.9-0.4-1.6-1.1-2.1-1.9c-0.2-0.4-0.2-0.7-0.4-1
				C13.7,5.4,13.7,5.3,13.6,5C13.6,5.1,13.6,5.1,13.6,5z"/>
			<path class="st13" d="M14.7,12.5c0-0.3,0.1-0.6-0.2-0.9c0-0.1-0.1-0.2-0.1-0.3c-0.1-0.8-0.1-1.7,0-2.5c0-0.2-0.1-0.6,0.2-0.7
				c0.2,0,0.3,0.1,0.3,0.2c0,1.2,0,2.5,0,3.7c-0.1,0.3,0,0.6,0,0.8c0,0.1-0.1,0.2-0.2,0.2c-0.1-0.1-0.1-0.2-0.2-0.3
				C14.6,12.6,14.7,12.5,14.7,12.5z"/>
			<path class="st14" d="M13.7,5.2c0.1,0.1,0.1,0.2,0.2,0.3c0.3,1.2,1.1,2,2.2,2.7c0.1,0.1,0.3,0.2,0.5,0.3c0.1,0.1,0.3,0.1,0.3,0.3
				c-0.1,0.1-0.3,0.1-0.4,0.1c-0.8-0.3-1.5-0.8-2-1.5l-0.1-0.1C14.1,7.1,14.1,7,14,7c-0.2-0.2-0.2-0.4-0.4-0.6V6.3
				C13.5,5.9,13.5,5.5,13.7,5.2z"/>
			<path class="st15" d="M15.7,20.7c-0.1,0-0.3-0.1-0.4-0.1c0.2-0.2,0.1-0.4,0.1-0.7c0,0,0.2-0.1,0-0.1c-0.1-0.1-0.1-0.1,0-0.2
				c0.4,0,0.7,0.1,1.1,0.1c0.2,0.1,0.4,0.1,0.5,0.3c0,0.1-0.1,0.2-0.2,0.2c-0.4,0.1-0.1,0.4-0.2,0.5c-0.2,0-0.3,0-0.5,0
				C16,20.8,15.8,20.6,15.7,20.7z"/>
			<path class="st16" d="M20.1,13c0.2,0.1,0.3,0.2,0.4,0.4s0,0.2-0.1,0.3c-0.2,0.1-0.4,0.2-0.6,0.2c-0.3,0-0.4-0.3-0.5-0.4
				c-0.3-0.3-0.6-0.5-0.9-0.8c0-0.1,0-0.2,0-0.3c0.3-0.1,0.4,0.1,0.6,0.2c0.2,0.1,0.4,0.2,0.5,0.4c0.1,0.1,0.2,0.2,0.3,0.2
				c0.1,0,0.1,0,0.1,0C19.9,13.1,20,13,20.1,13z"/>
			<path class="st17" d="M19.5,19.7c-0.2,0.3-0.6,0.4-0.9,0.6c-0.1-0.2-0.3-0.4-0.4-0.6c0.1-0.2,0.2-0.2,0.4-0.3
				c0.3-0.1,0.5-0.4,0.8-0.5h0.1C19.5,19.2,19.5,19.5,19.5,19.7z"/>
			<path class="st18" d="M21.3,16c0,0.2,0.1,0.5-0.1,0.7c-0.1,0-0.2,0.1-0.3,0.1c-0.3,0.1-0.4,0-0.4-0.3c0-0.2-0.1-0.3-0.2-0.5
				c0-0.3-0.2-0.6-0.1-1c0-0.1,0.1-0.2,0.2-0.3c0.1,0,0.1,0,0.1,0.1c0.1,0.1,0.1,0.2,0.1,0.3c0,0.2,0,0.3,0.1,0.5
				c0,0.1,0.1,0.2,0.3,0.2C21.1,15.9,21.2,15.9,21.3,16z"/>
			<path class="st19" d="M12.6,18.8c-0.4-0.2-0.5-0.6-0.6-1c0.2-0.3,0.5-0.2,0.7-0.3c0.2,0.1,0.3,0.3,0.4,0.4c0,0.1,0,0.1,0,0.2
				C13.1,18.4,12.9,18.6,12.6,18.8z"/>
			<path class="st20" d="M20.6,16.6c0.1,0-0.2,0.3,0.2,0.2c0.1,0,0.3-0.2,0.4-0.1c0,0.2,0,0.4-0.1,0.6c-0.2,0.5-0.5,0.3-0.8,0.1
				c-0.1-0.1-0.1-0.1-0.1-0.2c-0.1-0.3,0.1-0.5,0.2-0.7C20.4,16.5,20.5,16.5,20.6,16.6z"/>
			<path class="st21" d="M14.7,8.2c-0.1,0-0.2,0-0.2,0.2c0,0.8,0,1.6,0,2.4c0,0.2,0.1,0.4-0.1,0.5c-0.1-0.2-0.1-0.3-0.2-0.5
				c0-0.8-0.1-1.5,0-2.3c0-0.2,0-0.4,0.2-0.5c0.1,0,0.1,0,0.2,0C14.7,8,14.8,8.1,14.7,8.2z"/>
			<path class="st22" d="M12.8,17.5c-0.2,0.3-0.5,0.2-0.7,0.3c-0.1-0.2-0.2-0.3-0.2-0.5c0.1-0.5,0.1-0.5,0.7-0.4l0.1,0.1
				c0.1,0.1,0.2,0.2,0.2,0.4C12.9,17.5,12.8,17.5,12.8,17.5z"/>
			<path class="st23" d="M14.7,8.1C14.6,8.1,14.6,8.1,14.7,8.1C14.5,8,14.4,8,14.3,7.9c-0.1,0-0.1-0.1-0.2-0.1c0,0-0.1-0.1-0.1-0.2
				c-0.1-0.2-0.2-0.5-0.3-0.7c0-0.2-0.2-0.4-0.1-0.6c0.3,0.1,0.3,0.4,0.5,0.6c0.1,0,0.1,0.1,0.2,0.2l0,0c0.2,0.3,0.5,0.5,0.6,0.8
				C14.8,8,14.7,8,14.7,8.1z"/>
			<path class="st24" d="M12.6,14.9c-0.2-0.3-0.6,0.2-0.8-0.1c0-0.3,0.1-0.5,0.2-0.7c0.1,0,0.2,0,0.3,0c0.4,0,0.5,0.1,0.5,0.5
				C12.8,14.8,12.8,14.9,12.6,14.9z"/>
			<path class="st25" d="M18.9,12.7c-0.2-0.1-0.3-0.2-0.5-0.3c-0.1-0.1-0.1-0.2-0.1-0.4c0-0.1,0.1-0.2,0.2-0.2l0.1-0.1
				c0.3,0,0.4,0.3,0.7,0.4C19.2,12.3,19.2,12.6,18.9,12.7z"/>
			<path class="st26" d="M19.7,13.8c0.3-0.2,0.6-0.1,0.8-0.4c0.2,0.2,0.3,0.5,0.4,0.8c-0.2,0.1-0.4,0.1-0.6,0.2
				c-0.1,0-0.1-0.1-0.2-0.2C20,14.1,19.9,14,19.7,14C19.7,13.9,19.6,13.9,19.7,13.8z"/>
			<path class="st27" d="M18.9,12.7c0.2-0.1,0.2-0.4,0.4-0.6c0.2,0.1,0.4,0.3,0.5,0.5c0,0.3-0.1,0.5-0.4,0.5
				C19.3,12.9,19,12.9,18.9,12.7z"/>
			<path class="st28" d="M12.6,18.8c0-0.3,0.4-0.4,0.4-0.7c0.2,0,0.2,0.1,0.3,0.2s0.1,0.2,0.1,0.3c0.1,0.3-0.2,0.4-0.3,0.6
				C12.8,19.3,12.8,19,12.6,18.8z"/>
			<path class="st18" d="M20.3,17.4c0.3,0,0.6,0.2,0.8-0.1c0,0.4-0.3,0.7-0.4,1c-0.3,0-0.4-0.3-0.6-0.4
				C20.1,17.7,20.1,17.5,20.3,17.4z"/>
			<path class="st29" d="M12.5,16.9c-0.3,0-0.6,0-0.7,0.4c0-0.2-0.1-0.3-0.1-0.5c0.1-0.1,0.1-0.2,0.1-0.3c0-0.1-0.1-0.3,0.2-0.3
				c0.2,0,0.2,0.1,0.2,0.2C12.3,16.6,12.6,16.6,12.5,16.9z"/>
			<path class="st30" d="M12.9,13.4c0.2,0.1,0.1,0.3,0.2,0.4c0.1,0.2,0,0.3-0.2,0.3c-0.1,0-0.2-0.1-0.2-0.1
				c-0.5-0.2-0.5-0.2-0.3-0.7c0-0.1,0.1-0.2,0.2-0.3C12.8,13.1,12.8,13.3,12.9,13.4z"/>
			<path class="st31" d="M20.3,14.4c0.1-0.2,0.4-0.3,0.6-0.2c0.1,0.2,0.1,0.3,0.2,0.5c-0.1,0.2-0.3,0.4-0.6,0.3v-0.1
				C20.3,14.8,20.2,14.6,20.3,14.4z"/>
			<path class="st32" d="M12.4,13.4c0,0.2-0.3,0.6,0.3,0.5c0,0,0.1,0.1,0.2,0.2c0.1,0.2,0,0.4-0.2,0.5c0-0.3-0.1-0.4-0.4-0.3
				c-0.2,0-0.2-0.1-0.3-0.2C12.2,13.9,12.2,13.6,12.4,13.4z"/>
			<path class="st33" d="M20.6,15.8c0-0.2,0-0.4,0-0.6c0.2-0.1,0.4-0.2,0.6-0.2c0,0.3,0.2,0.5,0.1,0.8C21,15.8,20.8,15.8,20.6,15.8z
				"/>
			<path class="st34" d="M15.5,19.9c0,0.2,0.2,0.6-0.2,0.7c-0.2,0-0.4-0.1-0.5-0.2c0-0.3,0.2-0.4,0.4-0.6h0.1
				C15.3,19.8,15.4,19.9,15.5,19.9z"/>
			<path class="st35" d="M14.3,7.9c0.1,0,0.2,0.1,0.3,0.2c-0.3,0-0.2,0.2-0.2,0.4c0,0.7,0,1.4,0,2.1c0,0.1-0.1,0.1-0.1,0.2
				c0-0.2-0.1-0.5-0.1-0.7c0-0.6-0.1-1.1-0.1-1.7C14.1,8.2,14.1,8,14.3,7.9z"/>
			<path class="st36" d="M20.2,17.9c0.3,0,0.3,0.3,0.5,0.4c-0.1,0.1-0.1,0.2-0.2,0.3c-0.3,0.1-0.5,0.1-0.6-0.2c0-0.1,0-0.2,0.1-0.3
				C20,18,20,17.9,20.2,17.9z"/>
			<path class="st37" d="M14.2,4.2c0-0.1,0-0.2,0-0.2c0.1-0.1,0.1-0.1,0.2-0.2c0,0.7,0.1,1.4,0.2,2c-0.2,0.1-0.2-0.1-0.3-0.2
				C14.1,5.1,14.1,4.6,14.2,4.2z"/>
			<path class="st38" d="M18.3,20.4c-0.1,0.1-0.3,0.2-0.5,0.2c-0.4-0.2,0-0.5-0.1-0.8c0.1-0.1,0.2-0.1,0.3-0.1
				C18.2,19.9,18.4,20.1,18.3,20.4z"/>
			<path class="st39" d="M13.1,19.2c0.1-0.1-0.2-0.3,0.1-0.3s0.1-0.2,0.1-0.3c0.1,0,0.2,0,0.2,0.1c0.1,0.1,0.2,0.1,0.3,0.3v0.1
				c-0.1,0.2-0.3,0.4-0.6,0.5C13.2,19.5,13.1,19.4,13.1,19.2z"/>
			<path class="st21" d="M14.3,7.9c-0.1,0.7,0.1,1.5-0.1,2.2C14,9.8,14,9.6,14,9.3s0-0.7,0-1c0-0.2,0-0.4,0.1-0.6
				C14.2,7.8,14.2,7.8,14.3,7.9z"/>
			<path class="st40" d="M19.5,19.7c-0.2-0.2-0.2-0.5-0.1-0.7c0-0.1,0-0.1,0.1-0.1c0.2,0,0.4,0.1,0.5,0.3
				C19.8,19.4,19.7,19.6,19.5,19.7z"/>
			<path class="st30" d="M17.7,19.9c0.3,0.2-0.1,0.5,0.1,0.7c-0.1,0-0.3,0.1-0.4,0.1c-0.1-0.2-0.4-0.4-0.2-0.7
				C17.3,19.9,17.5,19.8,17.7,19.9z"/>
			<path class="st41" d="M13.9,20c-0.2-0.1-0.3-0.1-0.4-0.3c0.1-0.2,0.2-0.5,0.5-0.5c0.2,0,0.3,0.1,0.4,0.2
				C14.3,19.7,14.1,19.9,13.9,20z"/>
			<path class="st5" d="M19.4,13.1c0.2-0.2,0.3-0.3,0.4-0.5c0.1,0.1,0.3,0.2,0.3,0.4c-0.1,0.1-0.1,0.2-0.2,0.3c-0.1,0-0.1,0-0.2,0
				C19.6,13.2,19.5,13.2,19.4,13.1z"/>
			<path class="st13" d="M13.7,7c0.1,0.2,0.3,0.5,0.4,0.7c0,0.2,0.1,0.3,0,0.5c0,0.1-0.1,0.2-0.2,0.1C13.8,7.8,13.7,7.4,13.7,7z"/>
			<path class="st42" d="M12.9,13.4c-0.3,0.1-0.2-0.2-0.3-0.3c0.1-0.2,0.3-0.4,0.5-0.5C13.1,12.9,13.1,13.1,12.9,13.4z"/>
			<path class="st7" d="M13.9,8.3c0.4-0.1,0-0.4,0.2-0.6l0.1,0.1c-0.1,0.5,0.1,1-0.1,1.5C13.9,9.1,14,8.9,14,8.8
				c0.1-0.2,0-0.3-0.1-0.4C13.9,8.3,13.9,8.3,13.9,8.3z"/>
			<path class="st43" d="M19.9,18.4c0.2,0.2,0.4,0.2,0.6,0.2c-0.1,0.2-0.1,0.3-0.3,0.4c-0.2,0-0.4-0.2-0.5-0.3
				C19.6,18.6,19.7,18.5,19.9,18.4C19.8,18.4,19.8,18.4,19.9,18.4z"/>
			<path class="st28" d="M14,19.2c-0.2,0.1-0.2,0.6-0.5,0.5c-0.2,0-0.1-0.1-0.1-0.2c0.1-0.2,0.4-0.3,0.5-0.5c0,0,0,0,0.1,0
				c0,0,0.1,0,0.1,0.1C14,19.1,14,19.1,14,19.2z"/>
			<path class="st36" d="M13.9,20c0.1-0.3,0.3-0.4,0.5-0.6l0,0c0.1,0,0.1,0,0.2,0.1v0.1c-0.1,0.2-0.3,0.3-0.3,0.5c0,0,0,0.1-0.1,0.1
				C14.1,20.2,14,20.1,13.9,20z"/>
			<path class="st16" d="M18.3,20.4c0-0.2-0.2-0.4-0.3-0.6c0-0.1,0.1-0.2,0.2-0.1c0.3,0.1,0.4,0.3,0.4,0.6
				C18.5,20.3,18.4,20.4,18.3,20.4z"/>
			<path class="st44" d="M14.2,20.2v-0.1c0-0.3,0.2-0.4,0.4-0.5c0.1,0,0.2,0.1,0.2,0.2c0,0.3-0.1,0.5-0.5,0.6
				C14.4,20.3,14.3,20.3,14.2,20.2z"/>
			<path class="st45" d="M21.2,15c-0.2,0.1-0.4,0.2-0.6,0.2c-0.1,0-0.1-0.1-0.1-0.2c0.2-0.1,0.4-0.2,0.6-0.3
				C21.1,14.8,21.1,14.9,21.2,15z"/>
			<path class="st46" d="M19.7,18.7c0.3-0.1,0.4,0.2,0.5,0.3c-0.1,0.1-0.1,0.1-0.2,0.2c-0.2-0.1-0.4-0.1-0.5-0.3c0,0,0,0,0-0.1
				C19.5,18.8,19.5,18.7,19.7,18.7z"/>
			<path class="st47" d="M20.6,15.8c0.2-0.2,0.5-0.1,0.7,0c0,0.1,0,0.1,0,0.2C21,16,20.7,16.3,20.6,15.8z"/>
			<path class="st48" d="M14.5,20.3c0.2-0.2,0.4-0.3,0.4-0.6H15c0.1,0,0.1,0.1,0.2,0.1c-0.1,0.2-0.2,0.4-0.4,0.6
				C14.6,20.4,14.6,20.4,14.5,20.3z"/>
			<path class="st49" d="M13.7,5.2c0,0.4,0,0.7-0.1,1.1c-0.2-0.4-0.1-0.8,0.1-1.2C13.6,5.1,13.6,5.1,13.7,5.2z"/>
			<path class="st50" d="M16.8,20.1c0.1,0,0.1-0.1,0.2-0.1h0.1c0,0.2,0.3,0.4,0.2,0.7c-0.1,0-0.2,0-0.3,0c0,0,0,0-0.1,0
				C16.8,20.5,16.8,20.3,16.8,20.1z"/>
			<path class="st51" d="M17.3,20.7c-0.1-0.2-0.2-0.4-0.2-0.7l0,0l0,0C17.1,20.2,17.5,20.4,17.3,20.7L17.3,20.7z"/>
			<path class="st50" d="M16.1,20.7c0.2,0,0.4,0,0.6,0c0.1-0.1,0.2-0.1,0.3,0l0,0c-0.4,0.1-0.8,0.1-1.1,0
				C15.9,20.7,16,20.7,16.1,20.7z"/>
			<path class="st13" d="M13.9,8.4C14,8.5,14.1,8.6,14,8.8C13.9,8.6,13.8,8.5,13.9,8.4z"/>
			<path class="st52" d="M16.1,20.7c-0.1,0-0.1,0-0.2,0c-0.1,0-0.1,0-0.2,0C15.8,20.5,15.9,20.6,16.1,20.7z"/>
			<path class="st53" d="M18.2,4c0.6,0.7,0.2,1.2-0.2,1.2c-0.4,0-0.8-0.4-0.8-0.8s0.4-0.8,0.8-0.7C18.4,3.6,18.8,3.9,18.2,4
				c-0.5-0.1-0.6,0-0.6,0.1c-0.1,0.2-0.1,0.4,0.1,0.6s0.4,0.2,0.6,0l0.1-0.1c0.1-0.4,0-0.6-0.4-0.7C17.8,3.9,17.7,3.9,18.2,4z"/>
			<path class="st54" d="M18.5,11.8c0,0.1-0.1,0.1-0.1,0.2c-0.1,0.1-0.2,0.2-0.2,0.3c0,0.7-0.2,1.4,0,2.1c0.1,0.3-0.1,0.5,0,0.8
				c0,0.1,0,0.1,0,0.2c-0.1,0.2-0.2,0.5-0.4,0.6c-0.3,0.2-0.5,0-0.5-0.3c0-0.9,0-1.8,0-2.7c0-0.1,0-0.3,0.1-0.4
				c0.4-0.3,0.3-0.6,0.3-1c0-1,0-2,0-2.9c0-0.1,0-0.1,0.1-0.2c0.1-0.1,0.3-0.2,0.5-0.1c0,0.9,0,1.8,0,2.7
				C18.3,11.3,18.2,11.6,18.5,11.8z"/>
			<path class="st55" d="M18.3,8.3c-0.1,0-0.2,0.1-0.4,0.1c-0.1,0.1-0.2,0.1-0.3,0c-0.4-0.3-1-0.3-1.5-0.6c-1.3-0.7-2-1.8-2.1-3.2
				c0-0.2,0-0.3,0.2-0.4c0.1,0.4,0,0.9,0.2,1.3c0.1,0.1,0.1,0.3,0.2,0.3l0,0c0.5,1.1,1.3,1.8,2.4,2.1C17.1,8,17.3,8,17.5,8
				c0.4,0.1,0.8-0.1,1.2-0.1C18.5,8,18.4,8.1,18.3,8.3z"/>
			<path class="st37" d="M17.5,8c-0.5,0.2-0.9-0.1-1.3-0.3c-0.7-0.4-1.5-1-1.6-1.9c0.3,0.3,0.5,0.7,0.7,1C15.9,7.4,16.7,7.7,17.5,8z
				"/>
			<path class="st56" d="M12.8,16.5c0-0.1,0-0.2,0-0.4c-0.2-1,0.2-1.9,0.9-2.7c0.1-0.1,0.2-0.2,0.2-0.3s0.1-0.1,0.2-0.2
				c0.2,0,0.5-0.2,0.6,0s-0.2,0.3-0.3,0.4c-1.1,1.1-1.4,2.3-0.7,4c0,0.1,0.1,0.3,0.1,0.4c-0.1,0.1-0.2,0-0.3,0
				c-0.2-0.1-0.3-0.2-0.4-0.3C13,17.3,13,17.3,13,17.2c-0.1-0.2-0.2-0.3-0.1-0.5C12.8,16.7,12.9,16.6,12.8,16.5z"/>
			<path class="st57" d="M13.6,13.5c-0.6,0.8-0.9,1.7-0.9,2.7c-0.2-0.4-0.2-0.8-0.1-1.2c0-0.1,0.1-0.2,0.1-0.3
				c0.1-0.2,0.1-0.3,0.2-0.5c0.1-0.1,0.2-0.2,0.2-0.3C13.3,13.7,13.3,13.4,13.6,13.5z"/>
			<path class="st58" d="M14.1,13.1c0,0.1-0.1,0.1-0.2,0.1c-0.2-0.2,0-0.3,0.1-0.4c0.2-0.1,0.5-0.3,0.8-0.3c0,0.1-0.1,0.1-0.1,0.2
				C14.6,13,14.3,13.1,14.1,13.1z"/>
			<path class="st59" d="M12.8,16.8c0,0.2,0.1,0.4,0.1,0.6h-0.1c-0.2-0.1-0.2-0.2-0.2-0.4C12.7,16.9,12.7,16.9,12.8,16.8L12.8,16.8z
				"/>
			<path class="st57" d="M12.8,16.8L12.8,16.8c-0.1-0.1-0.1-0.2-0.1-0.3C13,16.5,12.9,16.7,12.8,16.8z"/>
			<path class="st60" d="M16,8.2c-1.1-0.5-1.8-1.3-2.2-2.5c0-0.1,0-0.2,0-0.2c0.4,0.4,0.4,1,0.8,1.4c0.5,0.5,1.1,0.9,1.6,1.3l0,0
				C16.1,8.2,16,8.2,16,8.2z"/>
			<path class="st60" d="M17.6,8.4c0.1-0.1,0.2,0,0.3,0v0.1c-0.1,0.2-0.2,0.3-0.4,0.3c-0.4-0.1-0.9-0.2-1.2-0.6l0,0
				c0.3,0,0.6,0.1,0.9,0.2C17.3,8.5,17.4,8.5,17.6,8.4z"/>
			<path class="st24" d="M15,12.1c-0.1-1.1-0.1-2.2-0.1-3.2c0-0.2-0.2-0.4,0.1-0.5c0.1-0.1,0.2,0,0.4,0c0.2,0.1,0.3,0.2,0.4,0.3
				c-0.1,1.2-0.1,2.3,0,3.5c0,0.1,0,0.3-0.1,0.4c-0.1,0.6,0,1.2-0.1,1.7c0,0.3,0,0.6,0,0.9c0-0.7,0-1.4,0-2.1c0-0.2-0.1-0.3,0.1-0.5
				c0.4,0,0.3,0.3,0.3,0.5c0,1,0,1.9,0,2.9c-0.2,0.3-0.4,0.1-0.6,0c-0.1-0.1-0.2-0.2-0.2-0.3s0-0.1,0-0.2c0-0.8,0-1.7,0-2.5
				C15.2,12.7,15,12.4,15,12.1z"/>
			<path class="st61" d="M14.1,13.1c0.2-0.1,0.4-0.3,0.6-0.4c0.2,0.1,0.1,0.2,0.1,0.3c0.1,0.1,0.1,0.3,0.1,0.4
				c-0.3,0.3-0.6,0.6-0.8,0.9c-0.1,0.2-0.2,0.4-0.3,0.6c-0.1,0.2-0.1,0.3-0.1,0.5v0.1c-0.1,0.3,0,0.6,0,0.9c0,0.1,0,0.2,0,0.3
				c0,0.2,0.1,0.4,0.2,0.6c0,0.1,0,0.2,0,0.3c-0.1,0.1-0.2,0-0.2-0.1c-0.9-1.7-0.4-3,1.1-4.4C14.4,13,14.2,13.3,14.1,13.1z"/>
			<path class="st62" d="M15,12.1c0.4,0.3,0.4,0.7,0.4,1.1c0,0.8,0,1.7,0,2.5C15,15.6,15,15.2,14.9,15s-0.1-0.4-0.1-0.6
				c0.1-0.5,0-1,0.2-1.5C14.8,12.6,14.8,12.4,15,12.1z"/>
			<path class="st63" d="M15,12.9c0,0.5,0.1,1.1-0.1,1.6c-0.1,0-0.1-0.1-0.1-0.2v-0.1v-0.1c0-0.2-0.1-0.4,0-0.5c0-0.2,0-0.3,0-0.5
				C14.8,12.9,14.9,12.9,15,12.9z"/>
			<path class="st64" d="M15.3,8.5c-0.1,0-0.2-0.1-0.3-0.1c-0.1-0.1-0.1-0.1-0.2-0.2l-0.1-0.1C14.7,8,14.8,8,14.9,8
				C15.1,8.1,15.4,8.1,15.3,8.5z"/>
			<path class="st49" d="M15.3,8.5c0-0.3-0.3-0.3-0.4-0.5c-0.2-0.3-0.5-0.5-0.6-0.8c0.2,0,0.2,0.2,0.4,0.3c0.4,0.4,0.8,0.8,1.4,1
				c0.1,0,0.2,0.1,0.3,0.2c0,0.1-0.1,0.1-0.1,0.2C16.1,9,16,8.8,15.8,8.7C15.5,8.6,15.4,8.5,15.3,8.5z"/>
			<path class="st65" d="M16.3,8.2c0.4,0.3,0.8,0.3,1.2,0.5c-0.1,0.1-0.2,0.1-0.3,0.1c-0.1,0-0.3,0-0.4-0.1
				c-0.2-0.3-0.6-0.2-0.8-0.5C16.1,8.2,16.2,8.2,16.3,8.2z"/>
			<path class="st64" d="M16.8,8.7c0.1,0,0.3,0,0.4,0.1l0,0c-0.1,0.1-0.2,0.1-0.3,0.1h-0.1c-0.1,0-0.2,0-0.3,0
				c-0.1,0-0.2-0.1-0.3-0.2l0.1-0.1C16.4,8.7,16.6,8.7,16.8,8.7z"/>
			<path class="st49" d="M14.3,7.2c-0.1,0-0.2-0.1-0.2-0.2C14.3,6.8,14.2,7.1,14.3,7.2z"/>
			<path class="st66" d="M16.5,19.8c-0.4,0-0.8-0.1-1.2-0.1c-0.1,0-0.2,0-0.3,0s-0.2-0.1-0.2-0.1c-0.1,0-0.1-0.1-0.2-0.1
				c-0.1-0.1-0.2-0.2-0.3-0.2c-0.1-0.1-0.3-0.1-0.4-0.2l0,0c0-0.2,0-0.3,0.1-0.4s0.2,0.1,0.3,0.1c0.2,0.1,0.4,0.3,0.6,0.3
				c0.9,0.4,1.8,0.3,2.7,0c0.1,0,0.2-0.1,0.3-0.3c0.1-0.2,0.2-0.3,0.3-0.4c0.1,0,0.1,0,0.2,0c0.2,0.1,0.5,0,0.7,0.2
				c0.1,0.1,0,0.2-0.1,0.3c-0.2,0.2-0.5,0.4-0.8,0.6c-0.5,0.2-0.9,0.4-1.5,0.5C16.9,19.9,16.7,19.9,16.5,19.8z"/>
			<path class="st67" d="M17,20.7c-0.1,0-0.2,0-0.3,0c-0.2-0.2-0.5-0.5,0.1-0.6C16.9,20.3,16.8,20.5,17,20.7z"/>
			<path class="st6" d="M15.1,19.6c0.1,0,0.2,0,0.3,0.1c-0.1,0.1,0.3,0,0.1,0.2c-0.1,0-0.2,0-0.2-0.1C15.2,19.7,15,19.8,15.1,19.6z"
				/>
			<path class="st68" d="M16.5,19.8c0.2,0,0.3,0,0.5,0c0.1,0.1,0.1,0.1,0,0.2l0,0h-0.1C16.8,20,16.7,19.9,16.5,19.8z"/>
			<path class="st69" d="M19.7,13.8l0.1,0.1c0.1,0.1,0.2,0.2,0.3,0.4c0.1,0.3,0.3,0.5,0.2,0.8c0,0.4,0.2,0.7,0.1,1.1
				c0.1,0.2,0,0.3-0.2,0.3c-0.1,0-0.1-0.1-0.1-0.2c0-0.6-0.2-1.2-0.6-1.6h-0.1c-0.2-0.1-0.3-0.3-0.3-0.5c0-0.1,0-0.2-0.2-0.2
				c-0.3-0.1-0.4-0.3-0.6-0.6c0-0.1,0-0.1,0-0.2c0.2-0.2,0.4-0.3,0.6-0.1c0.1,0.1,0.3,0.2,0.4,0.3C19.5,13.5,19.5,13.7,19.7,13.8z"
				/>
			<path class="st70" d="M18.1,15.2c-0.1-0.5-0.1-1-0.1-1.4c0-0.5,0.1-0.9,0.1-1.4c0-0.2,0-0.4,0.3-0.4c0,0.1,0,0.3,0,0.4
				c0,0.1,0,0.2,0,0.3s0,0.2,0,0.3c-0.2,0.3-0.1,0.5,0,0.8c0,0.1,0,0.2,0,0.3s0,0.1,0,0.2c0,0.1-0.1,0.2-0.1,0.3s0,0.3-0.1,0.4
				C18.2,15.1,18.1,15.2,18.1,15.2z"/>
			<path class="st71" d="M18.2,12.9c0-0.1,0-0.2,0.1-0.2c0.3,0.2,0.7,0.4,0.9,0.7c-0.1,0-0.2,0-0.3-0.1c-0.2-0.2-0.4-0.2-0.7-0.1
				C18.2,13.1,18.2,13,18.2,12.9z"/>
			<path class="st31" d="M19.7,13.3c0.1-0.1,0.1-0.1,0.2,0l-0.1,0.1C19.7,13.4,19.7,13.3,19.7,13.3z"/>
			<path class="st72" d="M17.1,20c0-0.1,0-0.1,0-0.2c0.5-0.1,1-0.3,1.4-0.5c0.1,0,0.1,0.1,0.1,0.2c-0.1,0.1-0.3,0.2-0.4,0.2
				s-0.1,0.1-0.2,0.1s-0.2,0-0.3,0.1c-0.2,0-0.3,0.1-0.5,0.1C17.1,20,17.1,20,17.1,20z"/>
			<path class="st73" d="M18.6,19.5c0-0.1-0.1-0.1-0.1-0.2c0.2-0.2,0.5-0.3,0.7-0.5c0.1,0,0.1,0.1,0.1,0.2
				C19,19.2,18.8,19.4,18.6,19.5z"/>
			<path class="st74" d="M19.3,19c0-0.1,0-0.1-0.1-0.2c0-0.1,0.1-0.1,0.1-0.2h0.1c0.1,0.1,0.1,0.2,0.1,0.3l0,0L19.4,19
				C19.3,19,19.3,19,19.3,19z"/>
			<path class="st45" d="M20.3,15.1c-0.1-0.3-0.2-0.5-0.3-0.8c0-0.1,0.1-0.2,0.2-0.1c0,0.1,0.1,0.1,0.1,0.2c0.1,0.2,0.2,0.3,0.2,0.5
				C20.4,15,20.3,15,20.3,15.1z"/>
			<path class="st75" d="M20.2,16.4c0.2,0,0.2-0.1,0.2-0.2c0.2,0.1,0.2,0.3,0.2,0.4c-0.3,0.1-0.4,0.4-0.4,0.7c0,0,0,0-0.1,0L20,17.2
				C19.9,16.9,20,16.6,20.2,16.4z"/>
			<path class="st76" d="M12.8,17.4C12.9,17.4,12.9,17.4,12.8,17.4c0.1,0,0.2,0.1,0.2,0.1c0.1,0.1,0.2,0.2,0.1,0.4
				c-0.1,0-0.1,0-0.1,0c-0.1-0.1-0.2-0.3-0.2-0.4V17.4z"/>
			<path class="st77" d="M13,17.9c0.1,0,0.1,0,0.2,0c0.1,0,0.2,0,0.2,0.1s0,0.1,0,0.2s-0.1,0.1-0.2,0.1c-0.1-0.1-0.1-0.1-0.2-0.2
				C13,18,13,18,13,17.9z"/>
			<path class="st78" d="M20.1,17.3L20.1,17.3c0.1,0,0.2,0.1,0.2,0.1c0,0.2-0.1,0.3-0.1,0.5C20.1,18,20,18,20,18.1
				c-0.1-0.1-0.1-0.1-0.1-0.2C19.9,17.7,19.9,17.5,20.1,17.3z"/>
			<path class="st31" d="M20.2,14.2c-0.1,0-0.1,0.1-0.2,0.1c-0.1-0.1-0.2-0.2-0.2-0.4C20,13.9,20.2,13.9,20.2,14.2z"/>
			<path class="st79" d="M13.2,18.3l0.1-0.1c0.3,0,0.3,0.2,0.3,0.4c0,0.1-0.1,0.1-0.1,0.1c-0.1,0-0.1-0.1-0.2-0.1
				C13.3,18.5,13.3,18.4,13.2,18.3z"/>
			<path class="st80" d="M15.1,19.6c0.1,0.1,0.1,0.1,0.2,0.2h-0.1c-0.1,0-0.2,0-0.2-0.1c-0.1,0-0.2-0.1-0.1-0.2
				C14.9,19.5,15,19.5,15.1,19.6z"/>
			<path class="st81" d="M19.9,17.9c0,0.1,0.1,0.1,0.1,0.2s-0.1,0.2-0.1,0.3h-0.1c-0.1,0-0.1-0.1-0.2-0.1
				C19.6,18.1,19.7,17.9,19.9,17.9z"/>
			<path class="st57" d="M13.7,18.6c-0.1-0.1-0.1-0.3-0.3-0.4c0-0.1,0-0.1,0-0.2s0-0.2,0.1-0.2s0.1,0.1,0.2,0.1
				c0.3,0,0.4,0.3,0.6,0.5c0.2,0.2,0.4,0.3,0.6,0.5c0.1,0.1,0.2,0.1,0.2,0.3c-0.4,0.1-0.5-0.3-0.9-0.4c0,0.1-0.1,0.2-0.1,0.3H14V19
				C13.8,18.8,13.7,18.7,13.7,18.6z"/>
			<path class="st82" d="M13.7,18.6c0.1,0.1,0.2,0.2,0.2,0.3c-0.1,0-0.2-0.1-0.3-0.2C13.6,18.7,13.6,18.6,13.7,18.6z"/>
			<path class="st83" d="M13.9,19c0.2,0,0.3,0,0.4,0.2c0.1,0.1,0.1,0.1,0,0.2l0,0c-0.1-0.1-0.3-0.2-0.4-0.3C14,19.1,14,19.1,13.9,19
				z"/>
			<path class="st40" d="M19.7,18.3l0.1,0.1c0,0.1-0.1,0.2-0.1,0.3c-0.1,0,0,0.3-0.2,0.2c0-0.1-0.1-0.2-0.1-0.3
				C19.3,18.4,19.5,18.3,19.7,18.3z"/>
			<path class="st84" d="M14.7,19.6c-0.1,0.2-0.3,0.3-0.4,0.5C14.1,19.8,14.4,19.8,14.7,19.6C14.6,19.6,14.6,19.6,14.7,19.6z"/>
			<path class="st85" d="M14.7,19.6C14.6,19.6,14.6,19.6,14.7,19.6c-0.1-0.1-0.1-0.1-0.1-0.1c0-0.1,0.1-0.1,0.1-0.1
				c0.1,0,0.1,0.1,0.2,0.1c0,0.1,0.1,0.1,0.1,0.2h-0.1C14.8,19.7,14.7,19.7,14.7,19.6z"/>
			<path class="st86" d="M14.7,19.4l-0.1,0.1c-0.1,0-0.1-0.1-0.2-0.1c0-0.1,0-0.1,0-0.2C14.5,19.2,14.5,19.4,14.7,19.4z"/>
			<path class="st87" d="M17.6,3.8c0.2,0,0.3,0,0.5,0s0.4,0.2,0.5,0.4s0.1,0.4-0.2,0.5c-0.1-0.1-0.1-0.2-0.1-0.4
				c0-0.2-0.2-0.2-0.3-0.2c-0.1,0-0.2,0.1-0.2,0.2c0,0.2,0.1,0.3,0.3,0.3c0.1,0,0.3,0,0.4,0.1C18.3,5.1,18,5,17.8,4.9
				c-0.3-0.1-0.3-0.4-0.2-0.7C17.4,4,17.6,3.9,17.6,3.8z"/>
			<path class="st88" d="M17.2,8.8c0.1,0,0.2-0.1,0.3-0.1c0.2,0,0.3-0.1,0.4-0.2c0,1.2,0,2.4,0,3.6c0,0.2-0.1,0.3-0.2,0.3
				c-0.4,0.1-0.4,0.4-0.4,0.7c0,0.8,0,1.6,0,2.4c0,0.4,0.1,0.4,0.4,0.2h0.1c0,0.2-0.1,0.3-0.2,0.4s-0.2,0.1-0.3,0
				C17,16,17,15.8,17,15.5c0-1,0-1.9,0-2.9c0-1.1,0.2-2.2,0-3.2C17,9.3,17,9,17.2,8.8L17.2,8.8z"/>
			<path class="st51" d="M18.1,15.2c0-0.1,0-0.1,0-0.2c0.3-0.3,0.5-0.1,0.7,0.2c0.1,0.2,0.2,0.3,0.2,0.5c0,0.3,0.1,0.7-0.1,1
				C18.5,17,18,17.3,17.5,17c-0.2-0.1-0.4-0.1-0.3-0.4l0.1-0.1c0.1,0,0.1,0,0.2,0c0.2,0.1,0.5,0.2,0.7,0.1c0.3-0.1,0.5-0.4,0.4-0.8
				c0-0.2-0.1-0.5-0.4-0.2c-0.1,0-0.1,0-0.2,0c0-0.1,0-0.2,0-0.3C18.1,15.3,18.1,15.2,18.1,15.2z"/>
			<path class="st89" d="M18.1,15.3c0,0.1,0,0.2,0,0.3v0.1c0,0.1-0.1,0.1-0.1,0.1h-0.1h-0.1C17.9,15.6,18,15.5,18.1,15.3z"/>
			<path class="st90" d="M14.8,18.9c-0.5-0.2-0.8-0.6-1.1-1c0-0.1-0.1-0.3-0.1-0.4c0.1,0,0.1,0.1,0.2,0.1h0.1c0,0.1,0.1,0.1,0.1,0.2
				s0.1,0.2,0.3,0.2c0.3,0.2,0.6,0.5,1,0.7c0.3,0.1,0.6,0.3,0.9,0.3l0.1,0.1c-0.4,0.4-0.7,0.1-1.1,0C15,19.1,14.9,18.9,14.8,18.9z"
				/>
			<path class="st91" d="M13.4,17.8c0,0.1,0,0.2-0.1,0.2s-0.1-0.1-0.2-0.1c0-0.1-0.1-0.3-0.1-0.4C13.2,17.6,13.3,17.7,13.4,17.8z"/>
			<path class="st6" d="M16.2,8.8c0.1,0,0.2,0.1,0.3,0.1c-0.2,2.4,0.1,4.8,0.1,7.2c0,0.1-0.1,0.2-0.2,0.2s-0.2,0-0.3,0
				c0,0,0,0-0.1-0.1c-0.2-1,0-2-0.1-3c0-0.2,0.1-0.4-0.2-0.5c0,0,0,0,0-0.1l0,0c-0.1-0.7-0.1-1.5-0.1-2.2c0-0.6,0-1.1,0.1-1.7
				C15.8,8.7,16,8.8,16.2,8.8z"/>
			<path class="st92" d="M14.8,14.3c0,0.1,0,0.1,0,0.2c0,0.2,0.1,0.3,0.1,0.5c0,0.3,0.1,0.6,0.4,0.8c0,0.1,0.1,0.1,0.1,0.2
				c-0.1,0.1-0.1,0.1-0.2,0.1c-0.6-0.3-0.9-0.9-0.7-1.5C14.6,14.4,14.7,14.3,14.8,14.3z"/>
			<path class="st18" d="M15.7,12.6L15.7,12.6c0,1,0,2,0,2.9C15.6,14.5,15.4,13.6,15.7,12.6z"/>
			<path class="st93" d="M15.3,16c0.1,0,0.1,0,0.2,0c0.2,0,0.3,0.3,0.5,0.2l0,0c0.1,0.1,0.4,0,0.4,0.2c-0.1,0.2-0.4,0.2-0.6,0.1
				c-0.2-0.1-0.4-0.1-0.6-0.2c-0.1-0.1-0.1-0.1-0.1-0.2C15.1,16.1,15.2,16,15.3,16z"/>
			<path class="st94" d="M15.3,15.8C15,15.6,14.8,15.4,15,15C15.1,15.2,15.1,15.5,15.3,15.8C15.4,15.7,15.4,15.8,15.3,15.8z"/>
			<path class="st95" d="M13.6,15.4c0-0.2,0-0.4,0.1-0.5h0.1c0.1,0.1,0.1,0.3,0.2,0.5c0.1-0.1,0.2-0.3,0.4-0.1
				c0.2,0.1,0.3,0.3,0.3,0.6c-0.2,0.2-0.5,0.4-0.7,0.5c-0.1,0.1-0.2,0.2-0.4,0c0-0.2,0-0.3,0-0.5C13.5,15.7,13.7,15.6,13.6,15.4z"/>
			<path class="st65" d="M13.7,17.3c-0.1-0.2-0.2-0.4-0.2-0.6c0.3-0.2,0.6-0.5,1-0.6c0.3-0.1,0.6-0.1,0.7,0.3
				c-0.1,0.3-0.4,0.2-0.6,0.3C14.3,16.9,14,17.1,13.7,17.3z"/>
			<path class="st96" d="M15.2,16.4c-0.4-0.3-0.7-0.3-1.1,0.1c-0.1,0.1-0.3,0.3-0.5,0.2c-0.1-0.1-0.1-0.1-0.1-0.2c0,0,0-0.1,0.1-0.1
				c0.4-0.1,0.6-0.6,1-0.6c0.3,0,0.4,0.2,0.6,0.3c0,0.1,0.1,0.1,0.1,0.2S15.2,16.4,15.2,16.4z"/>
			<path class="st97" d="M15.2,16.4l0.1-0.1c0.1,0.1,0.4,0,0.5,0.2c-0.1,0.4-0.5,0.2-0.7,0.3c-0.3,0.1-0.6,0.2-0.8,0.5
				c-0.1,0.1-0.2,0.2-0.4,0.3h-0.1c0-0.1,0-0.2,0-0.3C14,16.8,14.6,16.6,15.2,16.4z"/>
			<path class="st98" d="M14.7,13.5c0,0.2,0.1,0.4,0.1,0.6c-0.2,0.2-0.5,0.3-0.8,0.3c-0.1,0-0.1-0.1-0.1-0.1
				C14.2,14,14.3,13.6,14.7,13.5z"/>
			<path class="st95" d="M14,14.3c0.4,0.2,0.6-0.2,0.9-0.2v0.1c-0.3,0.3-0.6,0.6-1.1,0.7h-0.1C13.7,14.7,13.8,14.5,14,14.3z"/>
			<path class="st99" d="M13.5,16.4C13.5,16.4,13.5,16.5,13.5,16.4c-0.1-0.2-0.2-0.6,0-0.9c0.1,0.1,0.1,0.2,0,0.3
				C13.5,16,13.5,16.2,13.5,16.4z"/>
			<path class="st49" d="M13.5,15.8c0-0.1,0-0.2,0-0.3v-0.1C13.9,15.5,13.6,15.7,13.5,15.8z"/>
			<path class="st49" d="M13.7,14.9c0.4-0.2,0.7-0.5,1.1-0.7v0.1c-0.4,0.8-0.3,1.2,0.4,1.7l-0.1,0.1c-0.3,0.1-0.4-0.2-0.6-0.3l0,0
				c-0.2-0.6-0.3-0.6-0.7-0.1C13.8,15.4,13.8,15.1,13.7,14.9z"/>
			<path class="st100" d="M16.5,16.2c0-0.1-0.1-0.3-0.1-0.4c0.1-2.2-0.2-4.3-0.1-6.5c0-0.2,0.1-0.4,0.2-0.5c0.1,0,0.2,0,0.3,0
				c0.2,0.4,0,0.8,0,1.2c0,1.8,0,3.6,0,5.4C16.8,15.8,16.9,16.1,16.5,16.2z"/>
			<path class="st100" d="M17.2,8.8c0,1,0.2,2.1,0,3.1c-0.1,0.3,0.2,0.5,0,0.8C17,12.8,17,13,17,13.2c0,0.8,0,1.6,0,2.4
				c0,0.2,0,0.4-0.2,0.6c-0.1,0-0.1-0.1-0.1-0.2c0-2.3,0.1-4.6,0.1-6.9c0-0.1,0-0.1,0.1-0.2C16.9,8.8,17.1,8.8,17.2,8.8z"/>
			<path class="st101" d="M16.9,8.9c0,1.2,0.1,2.4,0,3.5s0,2.2-0.1,3.3c0,0.2-0.1,0.3,0.1,0.5c0.1,0,0.2,0,0.2,0
				c0,0.2-0.1,0.2-0.3,0.2c-0.2-0.1-0.4,0-0.5-0.3c0.1,0,0.1,0,0.2,0c0.2-0.2,0.2-0.4,0.2-0.7c0-1.8,0-3.7,0-5.5
				C16.7,9.6,16.7,9.2,16.9,8.9C16.8,8.9,16.8,8.9,16.9,8.9z"/>
			<path class="st6" d="M18.4,18.5c-0.1,0.1-0.2,0.2-0.3,0.3c-0.2,0.3-0.5,0.3-0.8,0.3c-0.3-0.5-1-0.5-1.4-0.9
				c-0.6-0.6-0.6-0.8,0.1-1.4c0.1,0,0.1,0,0.2,0c0.1,0.2-0.1,0.3-0.1,0.4c-0.2,0.3,0.1,0.4,0.2,0.6c0.5,0.5,1.2,0.7,1.9,0.6
				C18.3,18.4,18.4,18.4,18.4,18.5z"/>
			<path class="st13" d="M18.4,18.5C18.3,18.5,18.3,18.4,18.4,18.5c-0.2-0.2-0.1-0.3,0-0.4c0.9-1,1.1-2.1,0.4-3.1
				c-0.2-0.2-0.3-0.4-0.5-0.4c0-0.1-0.1-0.2,0.1-0.3c0.1-0.2,0.3-0.1,0.4,0s0.3,0.3,0.4,0.4l0.1,0.1c0.3,0.5,0.4,1.2,0.5,1.8
				s-0.3,1-0.6,1.4c-0.1,0.2-0.3,0.4-0.5,0.5C18.5,18.5,18.4,18.5,18.4,18.5z"/>
			<path class="st102" d="M18.6,18.5c0.1-0.2,0.3-0.3,0.4-0.5c0.3-0.2,0.4-0.6,0.6-0.9c0.1-0.1,0.1-0.4,0.3-0.3c0.2,0,0,0.3,0.1,0.4
				c0,0,0,0.1,0.1,0.1l0,0c0,0.2-0.1,0.4-0.2,0.6c-0.1,0.1-0.2,0.3-0.2,0.4c-0.1,0.1-0.2,0.2-0.3,0.3c0,0,0,0-0.1,0
				C19.1,18.6,18.8,18.5,18.6,18.5z"/>
			<path class="st103" d="M17.3,19c0.3-0.1,0.5-0.1,0.8-0.2c0,0.1,0,0.3-0.2,0.3c-1,0.2-2,0.5-2.9,0c-0.1-0.1-0.1-0.1-0.2-0.2
				c0.3-0.1,0.5,0.3,0.8,0.3c0.2,0,0.4,0.1,0.6,0c0.2-0.2,0.5-0.1,0.7-0.1C17,19,17.1,19.1,17.3,19z"/>
			<path class="st104" d="M20.1,17.3c-0.2-0.1-0.2-0.3-0.2-0.5c-0.3,0.2-0.3,0.5-0.4,0.7S19.3,18,19,18c0.2-0.5,0.6-0.8,0.6-1.4
				c0-0.2-0.1-0.5,0-0.7c0.3-0.1,0.6-0.3,0.6,0.3c0,0.1,0,0.1,0,0.2C20.1,16.7,20.1,17,20.1,17.3z"/>
			<path class="st75" d="M20.2,16.2c-0.1-0.2-0.2-0.4-0.5-0.3c-0.2-0.3-0.3-0.6-0.4-0.9c0-0.1-0.1-0.3,0-0.4c0.1,0,0.1-0.1,0.1-0.1
				C19.9,14.6,20.3,15.8,20.2,16.2z"/>
			<path class="st105" d="M19.4,14.6c0,0.1,0.1,0.2,0.1,0.3c-0.2,0.3-0.3,0-0.4-0.1l0,0c-0.2-0.3-0.4-0.6-0.8-0.7c0-0.1,0-0.2,0-0.3
				s-0.1-0.3,0-0.4c0.2,0.2,0.4,0.3,0.6,0.5c0.1,0,0.2,0.1,0.2,0.2C19.2,14.3,19.3,14.4,19.4,14.6z"/>
			<path class="st106" d="M18.3,13.4c0,0.1,0,0.3,0,0.4c-0.1-0.3-0.1-0.6,0-0.9c0,0.1,0,0.2,0,0.3C18.3,13.2,18.3,13.3,18.3,13.4z"
				/>
			<path class="st75" d="M19.1,14.1C19,14,18.9,14,18.9,13.9c0.1,0,0.1-0.1,0.2,0S19.1,14,19.1,14.1z"/>
			<path class="st48" d="M18.2,14.6c0.3-0.1,0.4,0.1,0.6,0.3c0.1,0.2,0.3,0.4,0.2,0.7h-0.1c0-0.1-0.1-0.1-0.1-0.2
				c-0.1-0.3-0.3-0.6-0.7-0.4C18.1,14.9,18.1,14.7,18.2,14.6z"/>
			<path class="st37" d="M18.3,14.1c0.3-0.1,0.7,0.2,0.8,0.7c-0.3-0.1-0.4-0.6-0.8-0.5C18.3,14.2,18.3,14.2,18.3,14.1z"/>
			<path class="st107" d="M18.4,4.7c-0.1,0-0.2,0-0.3,0c-0.3,0-0.5-0.1-0.5-0.3c0-0.2,0-0.4,0.3-0.4s0.5,0,0.5,0.4
				C18.4,4.5,18.4,4.6,18.4,4.7L18.4,4.7z"/>
			<path class="st10" d="M19,15.6c0-0.3-0.2-0.5-0.2-0.7c0.6,0.6,0.7,1.7,0.2,2.5c-0.2,0.3-0.3,0.6-0.6,0.8
				c-0.8,0.3-1.9-0.1-2.3-0.8c-0.1-0.1-0.1-0.2,0-0.3c0.1-0.1,0.1-0.2,0.2-0.3c0-0.1,0.2-0.2,0.2-0.3c0.1-0.1,0.1-0.1,0.2-0.1
				c0,0,0,0,0.1,0s0.2,0,0.2-0.1s-0.1-0.1-0.1-0.1c0-1,0-2,0-3c0-0.2,0-0.4,0.3-0.5c0,1,0,2,0,3c0,0.3,0.1,0.4,0.3,0.5
				c0,0.1-0.1,0.2-0.2,0.3l0,0c-0.1,0.1-0.1,0.1-0.2,0.2s-0.3,0.1-0.4,0.2L16.6,17c-0.1,0.1-0.1,0.2,0,0.3c0.3,0.6,1.5,0.8,2,0.4
				c0.1-0.1,0.2-0.3,0.2-0.5c0-0.1,0-0.1,0-0.2c0,0,0-0.1,0.1-0.1l0.1-0.1c0.1-0.2,0.2-0.5,0-0.8C18.9,15.9,18.9,15.7,19,15.6z"/>
			<path class="st108" d="M18.1,15.7C18.1,15.7,18.1,15.6,18.1,15.7c0.2-0.1,0.2-0.5,0.4-0.4c0.2,0.1,0.3,0.4,0.3,0.7
				c0,0.3-0.2,0.6-0.4,0.7c-0.3,0.1-0.6,0.2-0.9-0.1c0-0.2,0.2-0.3,0.2-0.4c0.1-0.1,0.1-0.2,0.2-0.3H18c0.2,0.1,0,0.3,0.1,0.4
				C18.5,16,18.5,16,18.1,15.7z"/>
			<path class="st109" d="M17.7,16.1c0,0.2-0.1,0.3-0.2,0.4c-0.1,0-0.1,0-0.2,0c0-0.1,0.1-0.2,0.2-0.3
				C17.5,16.2,17.6,16.1,17.7,16.1z"/>
			<path class="st109" d="M17.1,16.6c0-0.1,0.1-0.1,0.2-0.1c0,0.3,0.4,0.6,0.8,0.5c0.3-0.1,0.5-0.3,0.8-0.3c0.1,0.1,0.1,0.1,0,0.2
				l0,0c-0.4,0.5-1.3,0.6-1.8,0.2C16.9,16.9,16.8,16.8,17.1,16.6z"/>
			<path class="st110" d="M18.9,16.9c0-0.1,0-0.1,0-0.2c0-0.4,0-0.7,0-1.1H19c0,0.1,0,0.3,0.1,0.4C19.2,16.3,19,16.6,18.9,16.9
				L18.9,16.9z"/>
			<path class="st111" d="M18.1,15.7c0.1,0,0.3-0.2,0.4,0c0,0.1,0.1,0.3,0,0.4c-0.2,0.2-0.3,0.3-0.6,0.2c0.1-0.2,0.2-0.4,0.1-0.6
				C18,15.8,18,15.7,18.1,15.7z"/>
			<path class="st112" d="M15.2,18.8c-0.4-0.1-0.7-0.4-1-0.7C14,18,13.9,18,13.9,17.8c-0.1-0.3,0.4-0.2,0.4-0.4
				c0.5-0.6,1.2-0.8,1.9-0.8c0.1,0.3-0.2,0.1-0.3,0.2S15.7,17,15.5,17c-0.3,0-0.5,0.2-0.7,0.5c-0.2,0.4,0,0.6,0.3,0.8
				S15.6,18.7,15.2,18.8z"/>
			<path class="st113" d="M15.2,18.8c0.2-0.1,0.2-0.3,0-0.4c-0.4-0.2-0.5-0.5-0.4-0.8s0.4-0.7,0.8-0.7V17l0,0
				c-0.7,0.6-0.7,0.7,0,1.3c0.2,0.2,0.6,0.3,0.7,0.6c0,0.1-0.2,0.1-0.2,0.1C15.7,19.2,15.5,18.9,15.2,18.8z"/>
			<path class="st114" d="M14.4,17.5c0,0.3-0.4,0-0.4,0.3c0,0.1-0.1,0-0.1,0c0-0.1,0-0.1,0-0.2c0.3-0.4,0.6-0.8,1.1-0.9
				C14.9,17.1,14.5,17.2,14.4,17.5z"/>
			<path class="st6" d="M16.1,19.1c0.1,0,0.1-0.1,0.2-0.1c0.2-0.2,0.4-0.1,0.6-0.1c0.1,0,0.2,0.1,0.1,0.2
				C16.7,19.1,16.4,19.1,16.1,19.1L16.1,19.1z"/>
			<path class="st61" d="M13.9,17.8L13.9,17.8c0.2,0.1,0.2,0.2,0.3,0.3C14,18.1,13.9,18,13.9,17.8z"/>
			<path class="st115" d="M16.3,16.2c0.1,0.2,0.4,0,0.5,0.2l0,0c-0.1,0.1-0.3,0.1-0.4,0c-0.2,0-0.4,0.1-0.4-0.2
				C16.1,16.2,16.2,16.2,16.3,16.2z"/>
			<path class="st105" d="M16.4,16.4c0.1,0,0.3,0,0.4,0c-0.1,0.1-0.1,0.1-0.2,0.2s-0.2,0.1-0.3,0c-0.8,0-1.4,0.4-1.9,0.9
				c0-0.4,0.5-0.5,0.6-0.8c0.3-0.1,0.6,0,0.8-0.2C16,16.5,16.2,16.6,16.4,16.4z"/>
			<path class="st63" d="M17,19.1C16.9,19.1,16.9,19,17,19.1c-0.6-0.2-1-0.4-1.4-0.8c-0.6-0.5-0.6-0.8,0-1.3v-0.1
				c0.1,0,0.3-0.1,0.4-0.1h0.1c-0.6,0.7-0.5,0.7,0.1,1.4c0.2,0.3,0.5,0.3,0.8,0.4c0.2,0.1,0.3,0.2,0.3,0.4
				C17.2,19.1,17.1,19.1,17,19.1z"/>
			<path class="st15" d="M16.1,17.1c0.1,0.5,0.5,0.7,0.9,0.9c0.4,0.2,0.9,0.3,1.4,0.2c0,0.1-0.1,0.1-0.1,0.2
				c-0.9,0.2-1.7-0.2-2.3-0.9C15.8,17.3,15.9,17.2,16.1,17.1z"/>
			<path class="st116" d="M16.1,16.8H16c0.1-0.1,0.2-0.1,0.3-0.2c0.1,0,0.2,0,0.3,0c-0.1,0.1-0.2,0.1-0.3,0.2
				C16.2,16.8,16.1,16.8,16.1,16.8z"/>
			<path class="st37" d="M19.1,14.8c0.1,0,0.2,0.2,0.4,0.1c0,0.4,0.3,0.6,0.2,1c-0.1,0.2,0.1,0.5-0.1,0.7c-0.3-0.2-0.1-0.5-0.2-0.8
				C19.4,15.5,19.1,15.2,19.1,14.8z"/>
			<path class="st117" d="M18.2,4.3c0,0.1-0.1,0.2-0.2,0.2s-0.2-0.1-0.2-0.2S17.9,4,18,4C18.1,4.1,18.2,4.2,18.2,4.3z"/>
			<path class="st9" d="M18.7,17.6C18.6,17.9,18.3,18,18,18c-0.6-0.1-1.2-0.1-1.6-0.7c-0.2-0.3-0.1-0.4,0.1-0.5
				c0.4,0.6,1.1,0.9,1.8,0.7C18.5,17.5,18.6,17.4,18.7,17.6z"/>
			<path class="st110" d="M17.1,16.6c-0.1,0.2,0,0.3,0.1,0.4c0.6,0.4,1.1,0.3,1.7-0.1c0,0.1,0,0.1,0,0.2c-0.1,0.1-0.1,0.3-0.3,0.4
				c-0.5,0.2-1.4,0.1-1.8-0.3c-0.1-0.1-0.2-0.2-0.1-0.3C16.8,16.7,16.9,16.6,17.1,16.6z"/>
			<path class="st118" d="M16.7,16.8c0.4,0.8,1.6,1,2.2,0.3c0,0.2,0,0.4-0.2,0.5c-0.6,0.1-1.2,0.1-1.7-0.2
				C16.8,17.3,16.5,17.1,16.7,16.8C16.6,16.8,16.6,16.8,16.7,16.8z"/>
			<path class="st48" d="M19,16.9c0-0.3,0.1-0.6,0.1-0.9C19.3,16.3,19.1,16.6,19,16.9z"/>
			<path class="st116" d="M15.6,17c-0.5,0.7-0.5,0.9,0.3,1.4c0.3,0.2,0.7,0.3,1,0.6c-0.2,0-0.4,0-0.6,0c-0.3-0.2-0.6-0.5-0.9-0.7
				C14.7,17.8,14.8,17.4,15.6,17z"/>
		</g>
	</g>
</g>
</svg>
